<?xml version="1.0" encoding="UTF-8"?>
<svg id="Capa_1" data-name="Capa 1" xmlns="http://www.w3.org/2000/svg" version="1.1" viewBox="0 0 400 344">
  <defs>
    <style>
      .cls-1, .cls-2, .cls-3, .cls-4, .cls-5, .cls-6, .cls-7 {
        fill: none;
      }

      .cls-1, .cls-3, .cls-4, .cls-5, .cls-6, .cls-7 {
        stroke-width: .3px;
      }

      .cls-1, .cls-8 {
        stroke-linecap: round;
        stroke-linejoin: round;
      }

      .cls-1, .cls-7 {
        stroke: #677e51;
      }

      .cls-2 {
        stroke: #fafcfb;
        stroke-width: .2px;
      }

      .cls-2, .cls-3, .cls-4, .cls-5, .cls-6, .cls-9, .cls-10, .cls-7 {
        stroke-miterlimit: 10;
      }

      .cls-11 {
        fill: #cdca7a;
      }

      .cls-11, .cls-12, .cls-13, .cls-14, .cls-15, .cls-16, .cls-17, .cls-18, .cls-19, .cls-20 {
        stroke-width: 0px;
      }

      .cls-12 {
        fill: #272a19;
      }

      .cls-3 {
        stroke: #b2a140;
      }

      .cls-13 {
        fill: #d3ce7d;
      }

      .cls-14 {
        fill: #677e51;
      }

      .cls-15 {
        fill: #d0cd7a;
      }

      .cls-4 {
        stroke: #405828;
      }

      .cls-5 {
        stroke: #b1b350;
      }

      .cls-16 {
        fill: #000;
      }

      .cls-17 {
        fill: #2c4028;
      }

      .cls-6 {
        stroke: #c3c25d;
      }

      .cls-9 {
        fill: #020202;
        stroke: #000;
      }

      .cls-9, .cls-10, .cls-8 {
        stroke-width: .4px;
      }

      .cls-18 {
        fill: #e9cb3f;
      }

      .cls-19 {
        fill: #527032;
      }

      .cls-20 {
        fill: #cdcb76;
      }

      .cls-10, .cls-8 {
        fill: #edbb1c;
        stroke: #e9a01e;
      }
    </style>
  </defs>
  <g>
    <path class="cls-18" d="M152.2,218.1c2.6.6.6-7.4-.6-12.1-1.9-6.8-5.2-12.1-8.3-15.9-6.7-8.3-16.7-15-18.5-13.4-.6.5-.2,1.8,0,2.6,5.1,18.2,2.8,18.5,6.4,24.2,6,9.8,15.2,13.2,21,14.7h0Z"/>
    <line class="cls-3" x1="133.4" y1="187.8" x2="152.5" y2="218.4"/>
  </g>
  <path class="cls-7" d="M248.8,286.6c-3.1,1.5-5.8,4.1-11.2,4.8-10.2,1.3-18.3-1.5-22.3-3.2"/>
  <g>
    <path class="cls-16" d="M237.7,285.9c-20.7,0-38-4.4-52.1-13.2-14.1-8.8-24.6-21-31.8-36.4-7.1-15.5-10.7-32.9-10.7-52.4s4.2-40.4,12.6-55.7c8.4-15.3,20.1-26.9,34.9-34.9,14.9-8,31.9-12,51.2-12s19.2.9,25.6,2.7c6.4,1.8,11.5,3.6,15.4,5.4,3.8,1.8,6.9,2.7,9.3,2.7s4.3-1.1,5.6-3.2c1.3-2.1,2.9-4.7,4.7-7.7h9v69h-10.2c-3.2-19.7-10-33.9-20.3-42.8-10.3-8.8-23.2-13.2-38.7-13.2s-38.4,7.7-50.1,23.2c-11.7,15.5-17.6,36.6-17.6,63.5s3.1,36.4,9.2,49.1c6.1,12.6,14.6,22,25.4,28,10.8,6,23.3,9,37.3,9s26-2.6,36.4-7.7,19.9-12.3,28.3-21.5l7.2,6.3c-5.4,8-11.9,15.2-19.4,21.5s-16.3,11.3-26.3,14.9-21.7,5.4-34.9,5.4h0Z"/>
    <g>
      <path class="cls-8" d="M181.2,179.2c3.8,7.1-5.2,21.4-5.2,21.4-2.1-.9-6.4-3.2-10-7.9-3.2-4.1-4.3-8.2-4.8-10.5,1.7-5.8,3.5-11.6,5.2-17.5.7.6,1.8,1.5,3.1,2.6,6.9,6.1,10.3,9.1,11.8,11.8h-.1Z"/>
      <path class="cls-8" d="M215.8,186.2c-1.3,7.9-17.2,13.7-17.2,13.7-1.1-2.1-3.1-6.5-3.1-12.3s1.6-9.2,2.6-11.2c4.9-3.5,9.9-7.1,14.8-10.6.2.9.5,2.3.8,3.9,1.8,9,2.6,13.5,2.1,16.5h0Z"/>
      <path class="cls-10" d="M239.1,211.9c-5.8,5.6-22,.7-22,.7.3-2.3,1.3-7.1,4.8-11.8,3.1-4.2,6.7-6.4,8.8-7.5,6.1.1,12.1.2,18.2.3-.4.9-1,2.1-1.7,3.6-4,8.3-5.9,12.4-8.2,14.5v.2h0Z"/>
      <path class="cls-10" d="M241.2,245.7c-8,.9-18-12.7-18-12.7,1.7-1.7,5.3-4.8,11-6.5,5-1.5,9.2-1,11.5-.7,4.8,3.7,9.6,7.5,14.4,11.2-.8.5-2.1,1.1-3.5,1.9-8.1,4.2-12.2,6.3-15.3,6.7h-.1Z"/>
      <path class="cls-10" d="M227.5,278.3c-7.4-3.1-9.4-19.9-9.4-19.9,2.3-.6,7-1.6,12.7-.2,5.1,1.2,8.5,3.6,10.3,5.1,2.3,5.6,4.6,11.2,7,16.8-1,0-2.3,0-4-.1-9.2-.3-13.7-.5-16.6-1.7h0Z"/>
      <path class="cls-10" d="M192.5,290.9c-4.5-6.7,3.1-21.8,3.1-21.8,2.2.7,6.7,2.5,10.8,6.8,3.6,3.8,5.1,7.8,5.8,10-1.2,6-2.3,11.9-3.5,17.9-.8-.5-1.9-1.3-3.3-2.3-7.4-5.3-11.2-8-12.9-10.6h0Z"/>
      <path class="cls-10" d="M160,282.7c1.9-7.8,18.2-12.4,18.2-12.4,1,2.1,2.7,6.7,2.2,12.5-.4,5.2-2.3,9-3.4,11-5.2,3.2-10.4,6.3-15.5,9.5-.1-.9-.3-2.3-.5-4-1.1-9.1-1.6-13.7-.9-16.6h-.1Z"/>
      <path class="cls-10" d="M135.6,257.3c5.8-5.5,22-.6,22-.6-.3,2.3-1.4,7.1-4.9,11.8-3.1,4.1-6.8,6.3-8.8,7.4-6.1-.1-12.1-.3-18.2-.4.4-.9,1-2.1,1.7-3.6,4-8.2,6-12.4,8.2-14.5h0Z"/>
      <path class="cls-10" d="M130.5,223.1c7.9-1.2,18.4,12.1,18.4,12.1-1.6,1.7-5.1,5-10.8,6.8-4.9,1.6-9.2,1.3-11.5,1-4.9-3.6-9.8-7.2-14.7-10.8.8-.5,2-1.2,3.5-2,8-4.5,12-6.7,15-7.2h.1Z"/>
      <path class="cls-10" d="M148.4,190.9c7.4,3,9.6,19.8,9.6,19.8-2.3.6-7,1.7-12.7.4-5.1-1.1-8.6-3.5-10.4-5-2.4-5.6-4.8-11.2-7.1-16.8h4c9.2.2,13.8.4,16.6,1.5h0Z"/>
      <path class="cls-10" d="M229.1,199.5c-7.5,14.4-19.2,17.6-20.6,17.8h-1.4l-9-6c-.2-1.4-.6-17.1,11.7-28,9.3-8.3,20.5-8.2,22.9-8.1,0,0,2.2,13.3-3.5,24.2h0Z"/>
      <g>
        <line class="cls-2" x1="209.5" y1="199.4" x2="201.7" y2="212.9"/>
        <line class="cls-2" x1="216.5" y1="196.7" x2="204.3" y2="214.6"/>
        <line class="cls-2" x1="216.1" y1="206.8" x2="206.9" y2="216.4"/>
      </g>
      <path class="cls-10" d="M242.2,230.6c-14.4,8-25.9,3.9-27.2,3.2l-1.2-.8-4.1-10.4c.6-1.3,9.2-15,25.5-17.1,12.4-1.6,21.6,5,23.6,6.5,0,0-5.7,12.6-16.6,18.7h0Z"/>
      <g>
        <line class="cls-2" x1="226.1" y1="219.1" x2="211.9" y2="226"/>
        <line class="cls-2" x1="233.3" y1="220.9" x2="213.1" y2="229"/>
        <line class="cls-2" x1="227.3" y1="229.2" x2="214.3" y2="232.1"/>
      </g>
      <path class="cls-10" d="M234.4,264.3c-16.2-2.4-23.2-12.6-23.9-13.9l-.5-1.4,2.6-10.6c1.3-.6,16-6.2,30.4,2,11,6.2,14.7,17,15.4,19.3,0,0-11.8,6.4-24.1,4.6h.1Z"/>
      <g>
        <line class="cls-2" x1="227.8" y1="245.3" x2="212.4" y2="242.4"/>
        <line class="cls-2" x1="232.5" y1="251" x2="211.6" y2="245.4"/>
        <line class="cls-2" x1="222.9" y1="253.9" x2="210.8" y2="248.5"/>
      </g>
      <path class="cls-10" d="M208,285c-11.7-11.3-11.4-23.4-11.2-24.9l.4-1.4,8.3-6.9c1.4.2,16.6,4.3,23.5,19.1,5.3,11.3,2,22,1.2,24.3,0,0-13.3-1.7-22.2-10.3h0Z"/>
      <g>
        <line class="cls-2" x1="213.7" y1="266.2" x2="203" y2="254.8"/>
        <line class="cls-2" x1="214.3" y1="273.7" x2="200.6" y2="256.9"/>
        <line class="cls-2" x1="204.8" y1="270.4" x2="198.2" y2="258.9"/>
      </g>
      <path class="cls-10" d="M174.4,287.1c-2.4-16.1,5.3-25.5,6.3-26.5l1.2-.8,10.8-.4c1,1,10.5,13.5,6.9,29.5-2.7,12.2-11.9,18.6-13.9,20,0,0-9.5-9.5-11.3-21.7h0Z"/>
      <g>
        <line class="cls-2" x1="190.4" y1="275.8" x2="188.8" y2="260.2"/>
        <line class="cls-2" x1="186.2" y1="282" x2="185.7" y2="260.3"/>
        <line class="cls-2" x1="180.7" y1="273.6" x2="182.6" y2="260.4"/>
      </g>
      <path class="cls-10" d="M145.9,267.2c9.3-13.3,21.4-15,22.8-15l1.4.2,8.1,7.1c0,1.4-1.6,17.1-15.2,26.2-10.4,7-21.4,5.4-23.8,5,0,0-.4-13.4,6.7-23.6h0Z"/>
      <g>
        <line class="cls-2" x1="165.3" y1="269.9" x2="174.9" y2="257.6"/>
        <line class="cls-2" x1="158.1" y1="271.6" x2="172.5" y2="255.5"/>
        <line class="cls-2" x1="159.8" y1="261.7" x2="170.2" y2="253.4"/>
      </g>
      <path class="cls-10" d="M133.4,238.2c14.7-6.8,26-2.2,27.2-1.5l1.1.9,3.5,10.2c-.7,1.2-10,13.9-26.3,15-12.5.8-21.2-6.1-23.1-7.6,0,0,6.4-11.8,17.6-17h0Z"/>
      <g>
        <line class="cls-2" x1="148.8" y1="250.3" x2="163.2" y2="244.4"/>
        <line class="cls-2" x1="141.6" y1="248.1" x2="162.2" y2="241.5"/>
        <line class="cls-2" x1="148.1" y1="240.5" x2="161.2" y2="238.5"/>
      </g>
      <path class="cls-10" d="M140.5,206.4c16,2.7,22.7,12.8,23.3,14.1l.5,1.4-2.9,10.4c-1.3.6-16.1,5.9-30.2-2.4-10.8-6.3-14.1-17-14.8-19.3,0,0,11.9-6.2,24.1-4.1h0Z"/>
      <g>
        <line class="cls-2" x1="146.4" y1="225.1" x2="161.7" y2="228.4"/>
        <line class="cls-2" x1="141.8" y1="219.2" x2="162.6" y2="225.3"/>
        <line class="cls-2" x1="151.5" y1="216.5" x2="163.4" y2="222.3"/>
      </g>
      <path class="cls-10" d="M167,184.8c11,12,10,24.1,9.7,25.5l-.5,1.3-8.7,6.4c-1.4-.3-16.3-5.3-22.3-20.6-4.6-11.6-.6-22.1.3-24.3,0,0,13.2,2.5,21.5,11.6h0Z"/>
      <g>
        <line class="cls-2" x1="160.1" y1="203.1" x2="170.1" y2="215.1"/>
        <line class="cls-2" x1="160" y1="195.6" x2="172.6" y2="213.3"/>
        <line class="cls-2" x1="169.3" y1="199.5" x2="175.2" y2="211.4"/>
      </g>
      <path class="cls-10" d="M201.1,184.4c1.3,16.2-7,25.1-8.1,26l-1.2.8-10.8-.3c-.9-1.1-9.6-14.2-4.9-29.9,3.6-12,13.2-17.8,15.2-19,0,0,8.8,10.1,9.8,22.4Z"/>
      <g>
        <line class="cls-2" x1="184.4" y1="194.5" x2="184.8" y2="210.2"/>
        <line class="cls-2" x1="188.9" y1="188.6" x2="188" y2="210.3"/>
        <line class="cls-2" x1="193.8" y1="197.4" x2="191.1" y2="210.4"/>
      </g>
      <circle class="cls-9" cx="187.6" cy="234.7" r="26.7"/>
    </g>
    <path class="cls-17" d="M242.5,295.9c6.4-1.5,18.9,1.4,19.5,1.5,15.6,8.1,28.3,19.1,35.9,36.5-8.4-5.3-17-7.3-25.9-7.9-4.6-.3-9.2-.9-13.8-1.4-11.5-1.4-20.3-6.4-24.1-18.1-1.1-3.2-3-6.1-4.5-9.1,1.1,0,11.4-1.1,12.9-1.5Z"/>
    <g>
      <path class="cls-17" d="M338.5,276.7c2.9,1.2,5.7,2.5,8.6,3.7-15.1,1.8-27.9,9-41.3,14.6-13.5,5.7-26.7,5.5-39.8-1.5-4.9-2.7-9.9-5.4-15.8-5.8,2.4-3.1,5.8-4.1,9.5-4.2,11.5-.4,22.8-1.8,34-4.5,13.3-3.2,26.6-3.8,40.1-2.4,1.5.2,2,.7,4.7,0h0Z"/>
      <path class="cls-14" d="M338.5,276.7c-1.6,1.7-3.2.1-4.7,0-13.5-1.5-26.9-.8-40.1,2.4-11.1,2.7-22.5,4.1-34,4.5-3.7.1-7.1,1.1-9.5,4.2-1.4.6-2.8.5-4.4.4,4.7-2.6,7.9-6.6,11.1-10.5,12.2-15,27.6-20.1,46.2-15.1,12.3,3.3,24.1,8,35.3,14.2h.1Z"/>
    </g>
    <path class="cls-1" d="M212.5,288.6c2.8,1.8,6.9,4.3,11.9,7.1,6.7,3.8,11.5,6.4,17.6,8.8,7.8,3,9.4,2.3,17,4.8,4.9,1.6,11.9,4.5,20,9.8"/>
  </g>
  <g>
    <path class="cls-13" d="M122.8,138.3c-1.8-1.3-5.1-4.1-7-8.9-.9-2.1-3.4-8.5-.6-12.8,1.3-2,3.2-2.7,5.1-6.4.6-1.2.8-1.9,1.3-1.9,1.7-.2,4.4,6.8,5.1,12.8.4,3.3.5,9.2-2.6,16.6l-1.3.6h0Z"/>
    <path class="cls-11" d="M133.1,170.2c.2-.6-2.4-1.2-4.5-3.8-1.2-1.5-1.3-2.6-1.9-3.8-1.5-3.2-4.6-4.7-9.6-7-5.2-2.4-7.8-3.6-11.5-3.8-8.3-.4-16.6,4.5-16.6,4.5h0s4.4,3.8,5.1,4.5c3.8,3.3,10,6.7,16.6,8.3,4.1,1,2.3-.2,15.3,1.3,2.3.2,6.8.8,7,0v-.2h.1Z"/>
    <path class="cls-15" d="M112.6,146c.4-1.6-2.9-3.8-5.7-5.7-2.8-1.9-5.9-4-10.2-4.5-7.6-.9-15.6,3.5-15.3,5.7,0,.6.8,1,1.3,1.3,7.6,4,13.4,4.5,13.4,4.5,6.5.5,15.9,1.2,16.6-1.3h-.1Z"/>
    <path class="cls-19" d="M53.3,66.9c1-.5,3,3.2,8.3,7.7,3.2,2.7,5.2,3.7,15.3,8.9,10.4,5.4,15.6,8.1,17.2,9.6,4.4,3.8,6.2,7.9,10.2,15.9,0,0,2.1,4.2,4.5,17.2,0,.5.3,1.7-.3,2.2-1.1.9-3.5-2.2-6.4-2.6-5.1-.6-8.3-1.3-12.1-1.3-10.4,0-20.4-10.5-24.9-17.2-.8-1.3-.9-1.6-7.7-23-3.6-11.6-5.3-16.9-4.1-17.5h0Z"/>
    <path class="cls-4" d="M62.9,84.1c2.8,3.3,7.6,8.6,14,14.7,6.3,5.9,9.3,8.4,17.2,15.3,3.9,3.4,5.5,6.3,12.4,13.1"/>
    <path class="cls-12" d="M110.1,132.6c2.3,2.7,5.6,6.7,9.6,12.1,3,2.4,4.4,4.8,5.1,6.4.2.4,1,2.3.6,2.6-.3.2-1.2-.6-1.9-1.3,0,0-3.9-3.5-8.9-6.4-1.1-.6-3.1-1.7-3.5-1.3-.2.2,0,.8.3,1.3l1.9,1.3c3.9,1.3,6.7,3.2,8.3,4.5.5.4,2.4,2,4.5,4.5,1.1,1.3,1.1,1.6,3.8,5.7,1.8,2.7,2.6,3.8,3.8,5.7,1.3,2,2.4,3.6,3.1,4.7-.2.2-.3.4-.5.6l-6.4-4.7,1.3,1.9,5.1,3.8c.3.7.8,1.8,1.3,3.2,1,2.9.9,3.6,1.9,7,.2.5.8,2.5,1.9,5.1.4.9,1.1,2.6,1.3,2.6s-1.2-3.8-2.6-9.6c-.8-3.4-1.2-6-1.3-8.9v-13.6l-1.3-.5.6,11.5v1.3h-.6c-1.8-4.1-3.7-7-5.1-8.9-1.4-1.9-2.6-3.1-3.8-5.7-.8-1.7-1.4-3.5-1.9-5.1-.3-.9-.8-2.4-1.3-4.5-1-4.3-1.6-6.5-1.3-7.7,0-.3.3-1.1,0-1.9-.3-.7-.8-1-1.3-1.3l.3,4.3c1,3.5,2.2,7.6,1.7,7.8-.3.1-.8-.9-1.9-2.6-.9-1.3-2.7-3.4-6.4-7.7-3.7-4.2-3.6-4-3.8-4.5-1.2-2.1-1.7-4-3.8-6.4-.2-.2-.5-1-1.3-1.3-.4-.2-1.1-.2-1.3,0-.6.7,2.4,4.1,3.8,5.7v.3h0Z"/>
    <path class="cls-20" d="M139.2,161.3c-.4.9-1.8.2-2.4,0-2.3-2.4-4.9-6-6.4-10.8-.5-1.7-3.5-12.1,2.6-21.7,2.4-3.9,6.3-8.3,7.7-7.7.4.2.4.7.6,1.9.6,3.3,1.4,4.4,1.9,6.4,1.4,5.4,1,15,0,19.1-2.6,10.2-3.2,10.8-4,12.8h0Z"/>
    <path class="cls-6" d="M111.7,145c-1.6-.9-.8-.4-2.6-1.3-2-.9-3.9-1.8-5.7-2.6"/>
    <path class="cls-5" d="M119.7,163.2c2,.6,4.6,1.6,7.3,3.5,1.7,1.2,3.1,2.4,4.1,3.5"/>
  </g>
</svg>