<svg width="288" height="141" viewBox="0 0 288 141" fill="none" xmlns="http://www.w3.org/2000/svg">
<rect width="288" height="141" fill="#F5F5F5"/>
<g id="logo2 1" clip-path="url(#clip0_0_1)">
<path id="cd" d="M95.27 47.53H73.97V50.41L80.7 51.18C80.83 57.4 80.83 63.65 80.83 69.85V72.59C80.83 74.37 80.83 76.11 80.83 77.82C72.53 76.36 66.92 69.01 66.92 56.5C66.92 42.46 74.77 34.9 84.49 34.9C86.79 34.9 89.36 35.45 92.02 36.94L93.41 45.19H97.8L97.51 34.75C92.61 31.94 87.5 31.29 83.61 31.29C69.57 31.29 59.34 42.09 59.34 56.49C59.34 70.89 67.86 80.25 80.8 81.55C80.79 85.19 80.75 88.69 80.68 92.11L73.95 92.88V95.76H93.81C107.82 95.76 118.5 87.26 118.5 71.71C118.5 56.16 108.97 47.52 95.25 47.52L95.27 47.53ZM93.39 92.47H87.46C87.38 88.89 87.35 85.27 87.34 81.52C91.12 81.13 94.8 80.11 98.24 78.25L98.53 67.81H94.14L92.74 76.09C90.94 76.96 89.12 77.53 87.33 77.82C87.33 76.11 87.33 74.37 87.33 72.59V69.85C87.33 63.43 87.33 57.07 87.47 50.84H94.04C104.73 50.84 110.94 58.11 110.94 71.72C110.94 85.33 104.73 92.46 93.39 92.46V92.47Z" fill="#1D1D1B"/>
<path id="e" d="M155.12 74.46C155.12 76.12 154.9 77.56 154.62 78.49H127.98V75.47H145.16C148.63 75.47 149.42 73.81 149.42 71.8C149.42 67.7 145.95 63.95 141.41 63.95C136.87 63.95 131.45 67.84 131.45 78.14C131.45 87.28 136.07 92.18 143.29 92.18C147.91 92.18 150.8 90.09 153.4 87.07L155.06 88.37C152.46 93.48 147.84 96.72 141.27 96.72C131.6 96.72 125.31 90.02 125.31 79.08C125.31 68.14 132.82 60.72 141.77 60.72C149.21 60.72 155.13 65.76 155.13 74.47L155.12 74.46Z" fill="#1D1D1B"/>
<path id="v" d="M165.08 65.61L158 64.39V61.65H175.33V64.39L166.52 65.61H165.08ZM167.39 61.65L178.65 90.96L175.69 94.7L187.31 61.65H191.21L178.07 96.21H175.11L160.53 61.65H167.39ZM187.18 65.61L179.96 64.39V61.65H193.68V64.39L188.63 65.61H187.19H187.18Z" fill="#1D1D1B"/>
<path id="&#62;" d="M291.379 65.5182L236.492 93.4727V82.5636L278.595 62.2795L278.254 62.9614V61.2568L278.595 61.9386L236.492 41.6545V30.7454L291.379 58.7V65.5182Z" fill="#1D1D1B"/>
<path id="&#60;" d="M-1.89773 65.5182V58.7L52.9886 30.7454V41.6545L10.8864 61.9386L11.2273 61.2568V62.9614L10.8864 62.2795L52.9886 82.5636V93.4727L-1.89773 65.5182Z" fill="#1D1D1B"/>
<path id="/" d="M228.796 24.7568L209.343 97.0281H202.976L222.429 24.7568H228.796Z" fill="#1D1D1B"/>
</g>
<defs>
<clipPath id="clip0_0_1">
<rect width="287.99" height="140.4" fill="white"/>
</clipPath>
</defs>
</svg>
