<?xml version="1.0" encoding="UTF-8"?><svg id="Capa_2" xmlns="http://www.w3.org/2000/svg" viewBox="0 0 57.5 52.78"><defs><style>.cls-1{fill:#d0d0d5;}.cls-1,.cls-2,.cls-3{stroke:#000;stroke-miterlimit:10;}.cls-1,.cls-3{stroke-width:2px;}.cls-2{fill:#eedbcc;stroke-width:3px;}.cls-4{fill:#171817;stroke-width:0px;}.cls-3{fill:#ff0025;}</style></defs><g id="empatia"><path class="cls-2" d="M20.89,42.28l10.98-.3s.76-.24,1.19-.59c1.09-.9,1.78-2.38,1.19-3.86-.35-.87-1.78-1.78-2.38-1.78-7.94,0-13.98-.39-16.92,0-2.81.37-4.6,1.16-5.94,2.38-.27.25-.48.46-.59.59v10.39l2.08.3c9.41-.37,13.82-.24,16.03,0,.29.03,1.06.12,2.08,0,3.16-.38,6.83-3.27,6.83-3.27l19.89-12.77c.13-.17.92-1.27.59-2.67-.29-1.24-1.32-2.17-2.38-2.38-1.08-.21-2.03.38-2.38.59-2.34,1.45-8.98,4.99-16.63,9.8-.06.15-.14.99-.3,1.19-.26.34-.75,1.21-1.19,1.48-.48.3-1.19.59-1.19.59l-10.98.3Z"/><rect class="cls-1" x="1" y="34.56" width="7.42" height="17.22" rx="1.64" ry="1.64"/><circle class="cls-4" cx="4.71" cy="38.27" r="1.93"/><path class="cls-3" d="M32.21,31.58c.15,0,.29-.06.4-.16l14.26-14.09c2.65-2.64,3.65-6.46,2.55-9.84-1.84-5.6-8.28-6.41-8.66-6.45-2.56-.28-7.16,1.29-8.49,3.39h-.13c-1.32-2.11-5.93-3.67-8.49-3.39-.38.04-6.82.85-8.66,6.45-1.11,3.38-.11,7.2,2.55,9.84l14.26,14.09c.11.11.25.16.4.16h0Z"/></g></svg>