<?xml version="1.0" encoding="UTF-8"?><svg id="Capa_1" xmlns="http://www.w3.org/2000/svg" viewBox="0 0 72.15 79.2"><defs><style>.cls-1{fill:#e45026;}.cls-1,.cls-2,.cls-3,.cls-4{stroke-width:0px;}.cls-2{fill:#ec672c;}.cls-3{fill:#ecedef;}.cls-4{fill:#fff;}</style></defs><polygon class="cls-1" points="58.89 66.6 34.46 73.76 9.99 66.6 4.98 6.01 64.62 6.01 58.89 66.6"/><polygon class="cls-2" points="55.71 62.84 34.5 69.05 34.79 10.24 60.68 10.24 55.71 62.84"/><polygon class="cls-1" points="13.95 62.96 35.16 69.17 34.88 10.36 8.98 10.36 13.95 62.96"/><polyline class="cls-3" points="34.8 33.15 24.8 33.15 24.32 25.51 34.8 25.6 34.8 18.12 15.97 18.12 18.12 40.54 34.8 40.38"/><polyline class="cls-3" points="34.76 51.8 26.23 50.08 25.75 44.12 18.12 44.12 19.31 55.81 34.8 60.34"/><polyline class="cls-4" points="34.76 40.38 43.15 40.3 42.67 49.84 34.76 51.8 34.76 60.34 49.59 56.28 51.74 33.15 34.76 33.15 34.76 33.14"/><polyline class="cls-4" points="34.76 25.6 52.45 25.75 52.93 18.12 34.76 18.12"/></svg>