<?xml version="1.0" encoding="UTF-8"?><svg id="Capa_2" xmlns="http://www.w3.org/2000/svg" xmlns:xlink="http://www.w3.org/1999/xlink" viewBox="0 0 57 47.46"><defs><style>.cls-1{fill:#f3f3f3;}.cls-1,.cls-2,.cls-3{stroke-width:0px;}.cls-2{fill:url(#Degradado_sin_nombre_6);}.cls-3{fill:#2b2b2b;}</style><linearGradient id="Degradado_sin_nombre_6" x1="16.5" y1="11.83" x2="16.95" y2="45.75" gradientUnits="userSpaceOnUse"><stop offset="0" stop-color="#7cc8ef"/><stop offset="1" stop-color="#516fb3"/></linearGradient></defs><g id="macOs"><path class="cls-1" d="M23.07,0h31.47c1.36,0,2.46,1.1,2.46,2.46v42.54c0,1.36-1.1,2.46-2.46,2.46h-31.47V0h0Z"/><path class="cls-2" d="M33.93,47.46H1.38c-.76,0-1.38-.62-1.38-1.38V1.38C0,.62.62,0,1.38,0h30.78c-2.07,3.37-4.35,7.74-6.21,13.09-1.53,4.39-2.43,8.42-2.96,11.83h10.5c-.77,3.18-1.47,7.6-1.18,12.86.21,3.83.89,7.11,1.63,9.68Z"/><rect class="cls-3" x="12.49" y="7.76" width="2.51" height="7.54" rx="1.16" ry="1.16"/><rect class="cls-3" x="38.81" y="7.76" width="2.51" height="7.54" rx="1.16" ry="1.16"/><path class="cls-3" d="M7.61,32.9c-.36-.42-.41-1.01-.15-1.48.29-.5.9-.75,1.48-.59,1.89.9,4.31,2.03,7.46,2.92.93.26,5.4,1.48,11.32,1.52,8.56.05,15.67-2.41,19.96-4.29.56-.19,1.17,0,1.48.44.38.53.27,1.32-.3,1.77,0,0-5.75,2.88-10.94,3.84-1.05.2-5.1.98-10.65.74-7.78-.34-14.48-2.49-19.67-4.88Z"/></g></svg>