<?xml version="1.0" encoding="UTF-8"?><svg id="Capa_2" xmlns="http://www.w3.org/2000/svg" viewBox="0 0 58 56.96"><defs><style>.cls-1{fill:#44768e;stroke-width:0px;}</style></defs><g id="mySQL"><path class="cls-1" d="M3.74,0c.38.22.83.17,1.23.28,2.17.61,4.18,1.52,5.89,3.01.55.47,1.12.68,1.84.69,3.09.04,5.91.92,8.54,2.58,4.37,2.76,8.22,6.05,11.34,10.18,2.06,2.72,3.52,5.73,4.78,8.87,1.11,2.76,2.56,5.37,3.81,8.07.41.87,1,1.45,1.96,1.8,4.18,1.51,7.69,4.11,11,7.01.7.61,1.16,1.43,1.78,2.13.28.31.1.47-.25.59-1.38.47-2.81.7-4.26.84-1.25.13-2.4.65-3.63.82-.32.04-.18.21-.11.35.25.48.64.83,1.06,1.16.73.57,1.54,1.02,2.34,1.48,1.84,1.06,3.38,2.46,4.72,4.09.28.34.53.7.88.95.66.46.89,1.22,1.34,1.83v.23c-.22-.02-.38-.16-.53-.3-1.83-1.69-3.9-3.02-6.19-4-1.72-.73-3.22-1.82-4.65-2.99-1.1-.9-1.85-2.08-2.39-3.39-.18-.45.16-.65.47-.75,1.27-.4,2.51-.93,3.84-1.15,1.44-.23,2.88-.33,4.34-.31.14,0,.34.07.42-.07.1-.18-.08-.32-.19-.42-.23-.22-.47-.44-.73-.62-1.65-1.13-3.31-2.25-4.96-3.37-1.46-.99-3.12-1.53-4.79-1.96-1.8-.47-3.03-1.44-3.81-3.12-1.61-3.45-3.3-6.86-4.74-10.38-1.29-3.16-3.18-5.95-5.41-8.5-3.27-3.75-7.11-6.73-11.72-8.69-1.2-.51-2.43-.79-3.73-.83-.77-.02-1.54-.09-2.31-.14-.52-.04-.89-.38-1.26-.7-1.72-1.52-3.8-2.35-5.94-3.04-.59-.19-1.2-.15-1.62.33-.43.49-.31,1.08-.07,1.66.36.87.92,1.6,1.51,2.31,1.76,2.13,3.17,4.44,3.88,7.15.22.85.53,1.69.83,2.52.63,1.75,1.4,3.41,2.82,4.7.59.54.73,1.23.54,2.02-.21.88-.57,1.71-.84,2.57-1.31,4.15-1.14,8.21.73,12.16.27.57.64,1.07,1.23,1.36.35.17.54.14.59-.32.14-1.22.28-2.43.48-3.64.28-1.73,1.18-3.12,2.32-4.38.34-.37.41.04.46.22.24.8.57,1.56.9,2.31,1.67,3.82,3.74,7.4,6.36,10.65.52.65,1.08,1.26,1.76,1.75.1.07.23.14.22.35-.27-.05-.48-.2-.66-.38-1.54-1.56-3.33-2.84-4.88-4.38-1.38-1.38-2.45-2.95-3.21-4.74-.17-.41-.4-.8-.75-1.2-.15.89-.31,1.78-.45,2.67-.1.63-.15,1.28-.37,1.88-.5,1.34-1.91,1.89-3.2,1.25-.66-.33-1.16-.84-1.6-1.41-1.53-2-2.15-4.33-2.42-6.78-.28-2.55-.02-5.04.74-7.49.28-.9.33-1.85.8-2.7.14-.26-.07-.52-.25-.71-1.66-1.69-2.52-3.82-3.32-5.98-.49-1.32-.99-2.65-1.33-4.02-.18-.73-.59-1.34-1.03-1.93-.78-1.04-1.55-2.09-2.36-3.11-.66-.83-1.07-1.79-1.52-2.74v-1.47C.46,1.26,1.35.28,2.92.05c.01,0,.02-.03.03-.05h.79Z"/><path class="cls-1" d="M12.74,9.83c.56-.11.9.29,1.22.6.99.96,1.01,1.92.15,2.93-.15.18-.31.28-.44-.05-.42-1.06-1.01-2.01-1.79-2.84-.26-.28-.32-.51.19-.54.22-.01.45-.06.67-.09Z"/></g></svg>