<?xml version="1.0" encoding="UTF-8"?><svg id="Capa_2" xmlns="http://www.w3.org/2000/svg" viewBox="0 0 59 57.77"><defs><style>.cls-1{fill:#7dc12e;}.cls-1,.cls-2{stroke-width:0px;}.cls-3{fill:#d0d0d5;stroke-width:2px;}.cls-3,.cls-4{stroke:#000;stroke-miterlimit:10;}.cls-4{fill:#eedbcc;stroke-width:3px;}.cls-2{fill:#171817;}</style></defs><g id="positive"><rect class="cls-3" x="4.08" y="31.91" width="10.59" height="20.79" rx="1.57" ry="1.57" transform="translate(-15.4 6.75) rotate(-22.37)"/><path class="cls-4" d="M36.61,18.9c-1.05.52-3.83,1.7-7.7,3.31h-.36c-.05-1.66-.33-3.9-1.25-6.36-.3-.8-1.22-2.29-3.05-5.28-.3-.49-.72-1.15-1.52-1.52-.81-.37-2.1-.49-2.96.27-.75.66-.79,1.67-.81,2.15-.03.86.23,1.26.54,2.42,0,0,.23.88.45,2.78.34,2.99-1.18,6.42-1.43,6.99-1.65,3.72-4.26,5.98-5.73,7.08l-.81.81,6.99,16.39,11.55-2.51c4.81-1.45,8.47-2.56,10.03-3.05.07-.02.47-.15.99-.36,1.22-.5,2.26-.93,2.96-1.88.24-.34.75-1.05.63-1.97-.12-.92-.82-1.73-1.61-1.97-.79-.24-1.57.13-1.61,0-.03-.09.35-.23.81-.54.28-.19.91-.62,1.25-1.25.35-.64.44-1.52.09-2.33-.46-1.08-1.46-1.44-1.7-1.52-.8-.27-1.58.05-1.61-.09-.02-.08.2-.18.63-.45.39-.25.76-.48.99-.72.62-.64.55-1.66.54-1.88-.06-.84-.47-1.4-.63-1.61-.2-.26-.73-.98-1.7-1.16-.64-.12-1.22.18-1.25.09-.02-.05.17-.16.36-.27,0,0,.5-.3,1.16-.81.87-.67.89-2.09.9-2.33,0-.45.02-1.26-.54-1.88-.42-.47-.97-.63-1.61-.81-.29-.08-.75-.21-1.34-.18-.8.04-1.39.34-1.61.45Z"/><path class="cls-1" d="M5.33,30.8c-.05-.62-.07-1.24-.07-1.87C5.26,15.08,16.49,3.85,30.34,3.85s25.08,11.23,25.08,25.08-11.23,25.08-25.08,25.08c-3.77,0-7.34-.83-10.55-2.32l-4.46,2.01c4.33,2.58,9.39,4.07,14.79,4.07,15.95,0,28.88-12.93,28.88-28.88S46.07,0,30.12,0,1.23,12.93,1.23,28.88c0,1.15.07,2.29.2,3.41l3.9-1.49Z"/><circle class="cls-2" cx="6.59" cy="36.09" r="2.26"/></g></svg>