<?xml version="1.0" encoding="UTF-8"?><svg id="Capa_2" xmlns="http://www.w3.org/2000/svg" viewBox="0 0 58 51.81"><defs><style>.cls-1{fill:#90d8f9;stroke-width:0px;}</style></defs><g id="reactjs"><path class="cls-1" d="M47.01,8.84c-.06,1.61-.21,3.21-.5,4.8-.14.74-.29,1.47-.47,2.19-.05.22-.01.29.2.35,1.96.58,3.88,1.28,5.7,2.22,1.52.79,2.94,1.72,4.11,2.99.89.96,1.55,2.04,1.82,3.33.35,1.7-.05,3.24-1.01,4.65-1.07,1.57-2.55,2.67-4.17,3.6-2.03,1.17-4.21,1.97-6.45,2.64-.2.06-.28.11-.22.34.51,2.11.87,4.24.94,6.41.05,1.9-.11,3.76-.84,5.54-.88,2.11-2.42,3.47-4.72,3.82-1.52.23-2.98-.1-4.39-.65-1.96-.76-3.68-1.92-5.31-3.21-.86-.68-1.68-1.42-2.49-2.17-.17-.16-.25-.14-.41,0-1.41,1.32-2.87,2.58-4.5,3.64-1.42.93-2.91,1.72-4.57,2.15-1.66.43-3.3.47-4.88-.3-1.49-.72-2.44-1.94-3.03-3.44-.51-1.29-.71-2.64-.77-4.02-.11-2.62.31-5.17.92-7.7.06-.26.02-.36-.24-.43-1.95-.55-3.84-1.26-5.64-2.19-1.48-.77-2.86-1.67-4.02-2.89-1.08-1.13-1.84-2.43-2.03-4-.16-1.33.17-2.57.86-3.72.98-1.63,2.42-2.78,4.02-3.75,2.11-1.28,4.4-2.15,6.77-2.83.28-.08.35-.16.28-.46-.51-2.07-.85-4.17-.92-6.31-.06-1.89.1-3.74.83-5.5C12.75,1.81,14.28.45,16.59.08c1.25-.2,2.49,0,3.69.39,1.98.64,3.72,1.72,5.38,2.96,1.09.82,2.11,1.72,3.11,2.65.17.16.26.21.46.02,1.35-1.27,2.75-2.48,4.3-3.5,1.48-.99,3.03-1.83,4.77-2.28,1.66-.43,3.3-.47,4.88.31,1.55.77,2.51,2.05,3.1,3.64.45,1.23.66,2.5.69,3.8,0,.26.04.52.06.78ZM28.9,34.43c1.59.03,3.14-.08,4.7-.13.21,0,.3-.12.39-.27,1.68-2.51,3.18-5.13,4.53-7.83.11-.22.09-.39-.01-.6-.6-1.21-1.24-2.4-1.91-3.58-.83-1.46-1.71-2.89-2.65-4.28-.08-.11-.15-.21-.32-.22-.97-.04-1.95-.11-2.92-.13-2.02-.04-4.04,0-6.06.11-.35.02-.55.13-.74.41-1.61,2.48-3.1,5.02-4.41,7.67-.11.23-.12.4,0,.63.76,1.52,1.57,3.03,2.44,4.49.65,1.1,1.35,2.18,2.04,3.26.1.15.18.32.43.33,1.51.05,3.01.17,4.49.13ZM54.59,26.02c0-.47-.1-.86-.29-1.23-.46-.88-1.16-1.53-1.94-2.11-2.15-1.58-4.61-2.46-7.13-3.23-.18-.05-.24.02-.29.17-.68,2.06-1.49,4.07-2.38,6.04-.08.17-.08.3,0,.48.89,1.98,1.71,3.98,2.38,6.04.07.21.17.21.35.16,1.41-.41,2.79-.89,4.12-1.5,1.56-.72,3.06-1.55,4.23-2.86.52-.58.91-1.22.95-1.97ZM3.42,25.91c.02.35.09.69.24,1.01.44.92,1.16,1.59,1.96,2.18,2.15,1.59,4.62,2.48,7.15,3.25.2.06.26-.03.31-.19.68-2.06,1.49-4.07,2.39-6.04.07-.16.07-.29,0-.45-.9-1.97-1.71-3.98-2.38-6.04-.06-.2-.15-.23-.35-.18-1.39.41-2.77.88-4.09,1.49-1.62.74-3.16,1.6-4.36,2.97-.5.57-.84,1.21-.87,1.99ZM17.06,3.42c-.62-.03-1.41.53-1.92,1.57-.44.9-.61,1.87-.66,2.86-.08,1.52,0,3.04.27,4.54.15.87.33,1.74.53,2.6.06.24.17.3.41.25.47-.11.95-.19,1.43-.28,1.59-.28,3.2-.51,4.81-.65.25-.02.41-.12.56-.32,1.13-1.58,2.31-3.12,3.6-4.57.55-.63.56-.61-.03-1.18-1.46-1.39-3.03-2.63-4.8-3.62-1.13-.63-2.3-1.14-4.19-1.2ZM43.55,8.76c.03-1.02-.08-2.19-.48-3.31-.23-.64-.56-1.22-1.15-1.61-.79-.53-1.67-.46-2.53-.27-1.26.27-2.38.87-3.46,1.55-1.6,1-3.01,2.22-4.38,3.49-.11.11-.17.18-.04.33,1.46,1.63,2.8,3.37,4.09,5.13.1.14.22.21.39.23,2.12.17,4.23.52,6.32.92.3.06.38-.02.44-.28.45-1.98.83-3.97.8-6.19ZM14.46,42.93c-.02,1.21.08,2.46.57,3.65.46,1.11,1.26,1.84,2.64,1.79,1.07-.04,2.04-.4,2.98-.86,2.19-1.08,4.03-2.64,5.81-4.29.13-.13.15-.21.02-.36-1.43-1.61-2.77-3.31-4.02-5.06-.12-.17-.26-.27-.47-.29-.42-.03-.83-.09-1.25-.13-1.68-.17-3.35-.44-5-.79-.32-.07-.43.02-.49.31-.44,1.97-.82,3.95-.79,6.04ZM43.55,42.89c-.01-.56-.02-1.11-.06-1.67-.12-1.47-.42-2.91-.73-4.35-.06-.28-.17-.35-.47-.29-2.06.42-4.15.74-6.25.92-.21.02-.35.1-.48.27-.42.59-.86,1.17-1.3,1.75-.87,1.15-1.79,2.26-2.74,3.34-.12.14-.11.22.02.33.22.19.44.39.65.6.93.87,1.91,1.67,2.96,2.39,1.4.96,2.85,1.83,4.56,2.12,1.03.17,2,.08,2.73-.81.37-.45.59-.97.75-1.51.29-1.01.39-2.05.35-3.1ZM38.21,33.78c.08.01.12.03.16.03,1.01-.17,2.03-.35,3.04-.52.26-.04.24-.18.17-.36-.23-.64-.45-1.28-.7-1.92-.13-.35-.23-.72-.46-1.09-.72,1.32-1.45,2.58-2.22,3.86ZM17.56,21.93c.73-1.37,1.48-2.62,2.26-3.94-1.16.15-2.24.34-3.31.56-.17.03-.14.16-.11.27.34,1.02.71,2.03,1.16,3.11ZM17.55,29.92c-.43,1.04-.8,2.04-1.14,3.04-.07.22,0,.29.22.33.68.11,1.36.26,2.03.37.36.06.72.1,1.15.15-.74-1.25-1.45-2.43-2.1-3.65-.04-.07-.09-.13-.16-.25ZM38.17,17.96c.79,1.3,1.5,2.51,2.17,3.75.03.05.06.09.11.16.05-.1.1-.17.13-.26.29-.76.58-1.53.85-2.29.26-.72.25-.74-.51-.88-.89-.17-1.78-.3-2.76-.47ZM26.76,37.83c.7.91,1.38,1.73,2.09,2.54.12.14.21.13.32,0,.66-.76,1.3-1.54,1.93-2.33.14-.18.05-.21-.12-.2-1.38,0-2.77,0-4.22,0ZM29.01,13.98c.65,0,1.29,0,1.94,0,.07,0,.17.04.2-.06.01-.04-.03-.1-.07-.14-.63-.77-1.27-1.54-1.9-2.31-.14-.17-.24-.15-.37,0-.63.74-1.27,1.48-1.86,2.26-.05.06-.14.11-.1.2.05.1.16.05.25.05.64,0,1.27,0,1.91,0Z"/><path class="cls-1" d="M32.41,25.93c0,1.88-1.54,3.39-3.45,3.38-1.86,0-3.37-1.55-3.37-3.44,0-1.88,1.54-3.39,3.45-3.38,1.86,0,3.37,1.55,3.37,3.44Z"/></g></svg>