<?xml version="1.0" encoding="UTF-8"?><svg id="Capa_2" xmlns="http://www.w3.org/2000/svg" viewBox="0 0 51.7 66"><defs><style>.cls-1{fill:#d0d0d5;}.cls-1,.cls-2{stroke:#000;}.cls-1,.cls-2,.cls-3,.cls-4,.cls-5,.cls-6,.cls-7,.cls-8{stroke-miterlimit:10;}.cls-1,.cls-9,.cls-4,.cls-5,.cls-6,.cls-7,.cls-8{stroke-width:2px;}.cls-2{fill:#eedbcc;}.cls-2,.cls-3{stroke-width:3px;}.cls-9{stroke-linecap:round;stroke-linejoin:round;}.cls-9,.cls-3,.cls-4,.cls-5,.cls-6,.cls-7,.cls-8{stroke:#171817;}.cls-9,.cls-5{fill:#7d737f;}.cls-3{fill:#9ec8fc;}.cls-4{fill:#a2f5c3;}.cls-10{fill:#000;}.cls-10,.cls-11{stroke-width:0px;}.cls-11{fill:#171817;}.cls-6{fill:#eceef0;}.cls-7{fill:#d3a571;}.cls-8{fill:#a29aa5;}</style></defs><g id="responsabilidad"><path class="cls-2" d="M18.79,56.5l9.83-.27s.68-.21,1.06-.53c.98-.81,1.59-2.12,1.06-3.45-.31-.78-1.59-1.59-2.12-1.59-7.1,0-12.51-.35-15.14,0-2.52.33-4.11,1.04-5.31,2.12-.24.22-.42.41-.53.53v9.29l1.86.27c8.42-.33,12.36-.21,14.34,0,.26.03.95.11,1.86,0,2.83-.34,6.11-2.92,6.11-2.92l17.79-11.42c.11-.15.82-1.14.53-2.39-.26-1.11-1.18-1.94-2.12-2.12-.97-.19-1.82.34-2.12.53-2.09,1.3-8.03,4.46-14.87,8.76-.06.13-.13.88-.27,1.06-.24.31-.67,1.08-1.06,1.33-.43.27-1.06.53-1.06.53l-9.83.27Z"/><rect class="cls-1" x="1" y="49.6" width="6.64" height="15.4" rx="1.47" ry="1.47"/><circle class="cls-11" cx="4.32" cy="52.92" r="1.73"/><polygon class="cls-6" points="45.75 41.23 15.47 41.23 15.47 1.66 42 1.66 45.75 5.91 45.75 41.23"/><rect class="cls-3" x="19.59" y="8.97" width="7.97" height="8.76" rx="1.14" ry="1.14"/><rect class="cls-4" x="19.72" y="25.7" width="7.7" height="7.7" rx=".94" ry=".94"/><polygon class="cls-8" points="41.97 1.8 41.37 1.8 41.37 7.37 45.75 7.37 45.75 6.18 41.97 1.8"/><rect class="cls-7" x="1.27" y="8.44" width="8.5" height="28.68"/><polygon class="cls-9" points="5.51 45.61 1.27 37.12 9.76 37.12 5.51 45.61"/><path class="cls-5" d="M5.38,1h.26c2.27,0,4.12,1.84,4.12,4.12v3.58H1.27v-3.58C1.27,2.84,3.11,1,5.38,1Z"/><rect class="cls-10" x="31.54" y="10.03" width="11.68" height="1.86" rx=".81" ry=".81"/><rect class="cls-10" x="31.54" y="15.47" width="11.68" height="1.86" rx=".81" ry=".81"/><rect class="cls-10" x="31.54" y="26.1" width="11.68" height="1.86" rx=".81" ry=".81"/><rect class="cls-10" x="31.54" y="31.67" width="11.68" height="1.86" rx=".81" ry=".81"/><path class="cls-10" d="M26.19,11.73h0c-.35-.32-.88-.29-1.2.06l-1.83,2.05-1.07-1.2c-.27-.3-.74-.33-1.04-.06l-.12.1c-.3.27-.33.74-.06,1.04l1.7,1.89c.18.2.44.28.68.23.24,0,.47-.09.64-.28l2.37-2.65c.31-.35.28-.88-.07-1.2Z"/><path class="cls-10" d="M26.19,27.93h0c-.35-.32-.88-.29-1.2.06l-1.83,2.05-1.07-1.2c-.27-.3-.74-.33-1.04-.06l-.12.1c-.3.27-.33.74-.06,1.04l1.7,1.89c.18.2.44.28.68.23.24,0,.47-.09.64-.28l2.37-2.65c.31-.35.28-.88-.07-1.2Z"/></g></svg>