<?xml version="1.0" encoding="UTF-8"?><svg id="Capa_2" xmlns="http://www.w3.org/2000/svg" viewBox="0 0 57 56.98"><defs><style>.cls-1{fill:#528cc0;}.cls-1,.cls-2,.cls-3{stroke-width:0px;}.cls-2{fill:#5a91c3;}.cls-3{fill:#fbfcfd;}</style></defs><g id="wordpress"><path class="cls-2" d="M57,28.55c-.01,15.69-12.85,28.45-28.61,28.43C12.75,56.96-.01,44.12,0,28.43.01,12.74,12.86-.03,28.61,0c15.64.03,28.4,12.86,28.39,28.55ZM28.44,55.62c15.02.02,27.18-12.08,27.2-27.06.02-15.02-12.08-27.17-27.07-27.19C13.54,1.34,1.38,13.44,1.36,28.43c-.02,15.02,12.08,27.17,27.07,27.19Z"/><path class="cls-3" d="M28.44,55.62c-14.99-.02-27.09-12.17-27.07-27.19C1.38,13.44,13.54,1.34,28.56,1.36c14.99.02,27.09,12.18,27.07,27.19-.02,14.99-12.18,27.08-27.2,27.06ZM50.1,17.29s-.04-.03-.06-.04c.02,0,.05.02.07.03.08,3.14-.24,6.22-1.29,9.21-2.55,7.26-5.07,14.53-7.59,21.81-.12.34-.36.66-.24,1.06.31.02.51-.18.72-.33,8.37-5.8,12.08-13.77,10.97-23.89-.3-2.76-1.06-5.45-2.58-7.84ZM22.4,43.26c.15-.27.23-.38.27-.5,1.65-4.92,3.29-9.85,4.94-14.77.17-.5.03-.93-.14-1.38-.9-2.45-1.9-4.88-2.65-7.37-.49-1.63-1.21-2.6-3.06-2.41-.7.07-1.3-.25-1.22-1.12.08-.81.65-.93,1.33-.89,1.39.08,2.78.17,4.17.22,2.75.12,5.5-.04,8.24-.23.66-.04,1.19.13,1.27.85.08.76-.43,1.09-1.12,1.16-.44.05-.88.06-1.32.11-1.23.14-1.23.14-.85,1.29,2.46,7.3,4.91,14.6,7.37,21.9.31.93.63,1.85.94,2.79.44-.22.41-.61.51-.92,1.04-3.41,1.99-6.84,3.11-10.22,1.43-4.31.85-8.28-1.67-12.02-.7-1.04-1.33-2.14-1.69-3.35-.86-2.89.5-5.23,3.43-5.92.13-.03.24-.11.36-.16-.09-.41-.43-.56-.68-.76-5.2-4.15-11.11-6.01-17.75-5.36-7.27.71-13.04,4.1-17.42,9.91-.18.23-.5.48-.38.78.14.34.54.17.82.18,2.24.06,4.48-.11,6.71-.25.7-.04,1.27.15,1.31.92.04.76-.51,1.04-1.2,1.11-.51.05-1.01.14-1.52.13-.83-.02-.93.28-.67,1.03,2.62,7.71,5.2,15.43,7.8,23.15.22.66.48,1.31.77,2.1ZM29,30.84c-.17.24-.25.31-.28.39-2.29,6.64-4.57,13.28-6.87,19.91-.24.69.03.87.64,1.02,4.46,1.11,8.87.98,13.26-.34.76-.23.74-.54.51-1.16-1.35-3.62-2.66-7.26-3.99-10.89-1.07-2.93-2.15-5.85-3.28-8.94ZM6.18,18.52c-2.81,6.85-2.85,13.4.01,19.9,2.32,5.27,8.11,11.14,11.55,11.77-3.83-10.5-7.65-20.95-11.56-31.67Z"/><path class="cls-1" d="M22.4,43.26c-.29-.79-.55-1.44-.77-2.1-2.6-7.72-5.18-15.44-7.8-23.15-.26-.75-.16-1.05.67-1.03.51.01,1.01-.08,1.52-.13.69-.06,1.23-.35,1.2-1.11-.04-.78-.6-.97-1.31-.92-2.24.14-4.47.31-6.71.25-.28,0-.68.16-.82-.18-.12-.3.2-.55.38-.78,4.38-5.81,10.15-9.2,17.42-9.91,6.64-.65,12.55,1.21,17.75,5.36.26.2.59.35.68.76-.12.05-.23.13-.36.16-2.93.69-4.29,3.03-3.43,5.92.36,1.22.99,2.31,1.69,3.35,2.52,3.74,3.11,7.71,1.67,12.02-1.12,3.38-2.07,6.82-3.11,10.22-.09.3-.06.69-.51.92-.32-.94-.63-1.87-.94-2.79-2.46-7.3-4.91-14.6-7.37-21.9-.38-1.14-.38-1.15.85-1.29.44-.05.88-.06,1.32-.11.69-.08,1.2-.4,1.12-1.16-.08-.72-.61-.9-1.27-.85-2.74.19-5.49.35-8.24.23-1.39-.06-2.78-.14-4.17-.22-.68-.04-1.26.08-1.33.89-.08.87.52,1.19,1.22,1.12,1.85-.19,2.57.77,3.06,2.41.75,2.5,1.75,4.92,2.65,7.37.17.45.31.88.14,1.38-1.65,4.92-3.29,9.84-4.94,14.77-.04.12-.12.23-.27.5Z"/><path class="cls-1" d="M29,30.84c1.13,3.08,2.21,6.01,3.28,8.94,1.33,3.63,2.64,7.27,3.99,10.89.23.61.26.93-.51,1.16-4.4,1.32-8.81,1.45-13.26.34-.61-.15-.88-.33-.64-1.02,2.3-6.63,4.58-13.27,6.87-19.91.03-.09.11-.15.28-.39Z"/><path class="cls-1" d="M6.18,18.52c3.92,10.72,7.73,21.17,11.56,31.67-3.44-.63-9.24-6.49-11.55-11.77-2.86-6.51-2.82-13.06-.01-19.9Z"/><path class="cls-1" d="M50.1,17.29c1.52,2.39,2.28,5.08,2.58,7.84,1.11,10.12-2.6,18.09-10.97,23.89-.21.15-.41.35-.72.33-.12-.4.13-.72.24-1.06,2.52-7.27,5.05-14.54,7.59-21.81,1.05-2.99,1.37-6.07,1.29-9.21h-.01Z"/><path class="cls-1" d="M50.11,17.28s-.05-.02-.07-.03c.02.01.04.03.06.04,0,0,.01-.01.01-.01Z"/></g></svg>