<?xml version="1.0" encoding="UTF-8"?>
<svg id="Capa_1" data-name="Capa 1" xmlns="http://www.w3.org/2000/svg" version="1.1" viewBox="0 0 557.2 562.5">
  <defs>
    <style>
      .cls-1 {
        stroke-width: .3px;
      }

      .cls-1, .cls-2 {
        fill: none;
        stroke: #fbfdfc;
      }

      .cls-1, .cls-2, .cls-3, .cls-4 {
        stroke-miterlimit: 10;
      }

      .cls-2 {
        stroke-width: .3px;
      }

      .cls-5 {
        stroke-linecap: round;
        stroke-linejoin: round;
      }

      .cls-5, .cls-3 {
        fill: #eebc1d;
      }

      .cls-5, .cls-3, .cls-4 {
        stroke: #fff;
        stroke-width: .6px;
      }

      .cls-4 {
        fill: #020303;
      }
    </style>
  </defs>
  <path class="cls-5" d="M261.5,67.3c14.2,26.6-19.6,80.2-19.6,80.2-8.1-3.5-24.2-11.9-37.6-29.5-11.9-15.4-16.3-30.8-18-39.3,6.5-21.8,13.1-43.6,19.6-65.5,2.8,2.3,6.7,5.7,11.5,9.8,25.9,22.7,38.8,34.1,44.2,44.2Z"/>
  <path class="cls-5" d="M391.3,93.6c-5,29.7-64.6,51.4-64.6,51.4-4.2-7.7-11.8-24.2-11.8-46.3,0-19.5,6-34.3,9.8-42.1,18.5-13.3,37.1-26.5,55.6-39.8.8,3.5,1.9,8.6,3.1,14.8,6.6,33.8,9.9,50.7,7.9,62Z"/>
  <path class="cls-3" d="M478.7,190c-21.7,20.8-82.5,2.8-82.5,2.8,1.2-8.7,5-26.5,18.2-44.2,11.6-15.6,25.3-24,32.9-28,22.8.4,45.6.8,68.3,1.2-1.5,3.3-3.6,8-6.4,13.7-14.9,31-22.3,46.5-30.6,54.5Z"/>
  <path class="cls-3" d="M486.6,316.6c-29.9,3.5-67.6-47.5-67.6-47.5,6.2-6.2,19.9-18.2,41.1-24.4,18.7-5.5,34.6-3.9,43.1-2.5,17.9,14,35.9,28.1,53.8,42.1-3.2,1.7-7.7,4.2-13.3,7.1-30.6,15.8-45.8,23.7-57.2,25.1Z"/>
  <path class="cls-3" d="M435.1,438.9c-27.8-11.7-35.4-74.6-35.4-74.6,8.5-2.3,26.3-6,47.8-.9,19,4.5,32.1,13.7,38.8,19.1,8.7,21.1,17.4,42.1,26.1,63.2-3.6,0-8.8-.2-15.1-.4-34.4-1.3-51.6-1.9-62.2-6.4Z"/>
  <path class="cls-3" d="M304.1,486.5c-16.7-25.1,11.7-81.7,11.7-81.7,8.4,2.7,25.2,9.5,40.3,25.6,13.3,14.2,19.2,29.1,21.8,37.3-4.4,22.4-8.8,44.7-13.2,67.1-3-2-7.3-5-12.4-8.7-27.9-20.1-41.9-30.1-48.3-39.7Z"/>
  <path class="cls-3" d="M181.9,455.7c7.2-29.2,68.2-46.6,68.2-46.6,3.6,8,10,25,8.4,47.1-1.5,19.4-8.5,33.8-12.8,41.3-19.4,11.9-38.9,23.8-58.3,35.6-.5-3.6-1.2-8.7-2-15-4.1-34.2-6.1-51.2-3.4-62.4Z"/>
  <path class="cls-3" d="M90.5,360.2c21.9-20.7,82.5-2.2,82.5-2.2-1.3,8.7-5.1,26.5-18.5,44.1-11.8,15.5-25.4,23.8-33.1,27.7-22.8-.6-45.6-1.1-68.3-1.7,1.5-3.3,3.7-8,6.4-13.6,15.1-30.9,22.6-46.4,31-54.3Z"/>
  <path class="cls-3" d="M71.4,232c29.8-4.5,69.1,45.3,69.1,45.3-6,6.4-19.3,18.8-40.3,25.7-18.5,6.1-34.5,5-43,3.9-18.4-13.5-36.8-26.9-55.2-40.4,3.1-1.8,7.6-4.5,13.1-7.5,30-16.8,45-25.2,56.4-26.9Z"/>
  <path class="cls-3" d="M138.4,111.2c27.9,11.4,36.2,74.2,36.2,74.2-8.5,2.4-26.2,6.3-47.8,1.4-19-4.3-32.2-13.3-39-18.7-8.9-21-17.8-41.9-26.8-62.9,3.6,0,8.8,0,15.1.2,34.4.9,51.6,1.4,62.2,5.7Z"/>
  <path class="cls-3" d="M441.4,143.6c-28,54.1-72.1,66.2-77.4,66.9h-5.4s-33.8-22.4-33.8-22.4c-.7-5.2-2.4-64.2,43.7-105.1,35-31.1,77.1-30.6,86.1-30.3,0,0,8.1,49.7-13.2,90.9Z"/>
  <g>
    <line class="cls-2" x1="367.9" y1="142.9" x2="338.4" y2="193.7"/>
    <line class="cls-2" x1="394.1" y1="133.1" x2="348.3" y2="200.2"/>
    <line class="cls-2" x1="392.4" y1="170.8" x2="358.1" y2="206.8"/>
  </g>
  <path class="cls-3" d="M490.5,260.2c-53.9,29.9-97.2,14.5-102,12l-4.5-3.1-15.3-38.9c2.4-4.9,34.4-56.3,95.7-64.3,46.6-6.1,81.2,18.8,88.5,24.3,0,0-21.4,47.2-62.4,70Z"/>
  <g>
    <line class="cls-1" x1="429.9" y1="216.8" x2="376.7" y2="243"/>
    <line class="cls-1" x1="457.2" y1="223.7" x2="381.2" y2="254.3"/>
    <line class="cls-1" x1="434.5" y1="254.9" x2="385.6" y2="265.6"/>
  </g>
  <path class="cls-3" d="M461,386.4c-60.7-9.1-87-47.2-89.5-52.1l-1.9-5.1,9.8-39.7c4.7-2.4,60-23.3,114.2,7.4,41.3,23.3,55.1,63.6,57.8,72.3,0,0-44.3,24-90.5,17.1Z"/>
  <g>
    <line class="cls-2" x1="436.3" y1="315.3" x2="378.6" y2="304.3"/>
    <line class="cls-2" x1="454.2" y1="336.8" x2="375.7" y2="315.7"/>
    <line class="cls-2" x1="418.1" y1="347.7" x2="372.8" y2="327.2"/>
  </g>
  <path class="cls-3" d="M362.1,464c-43.9-42.3-42.9-87.9-42.1-93.3l1.5-5.2,31.2-26c5.2.8,62.3,16,88.3,71.8,19.8,42.4,7.4,82.6,4.5,91.2,0,0-50-6.4-83.4-38.5Z"/>
  <g>
    <line class="cls-2" x1="383.6" y1="393.8" x2="343.3" y2="351.1"/>
    <line class="cls-2" x1="385.6" y1="421.7" x2="334.3" y2="358.6"/>
    <line class="cls-2" x1="349.9" y1="409.4" x2="325.2" y2="366.2"/>
  </g>
  <path class="cls-3" d="M235.9,472.1c-8.9-60.3,19.8-95.8,23.8-99.5l4.3-3.2,40.6-1.5c3.6,3.8,39.4,50.8,25.9,110.8-10.3,45.7-44.7,69.9-52.2,74.9,0,0-35.6-35.6-42.4-81.5Z"/>
  <g>
    <line class="cls-2" x1="295.9" y1="429.6" x2="290.2" y2="371.2"/>
    <line class="cls-2" x1="280.4" y1="452.9" x2="278.4" y2="371.7"/>
    <line class="cls-2" x1="259.7" y1="421.4" x2="266.6" y2="372.1"/>
  </g>
  <path class="cls-3" d="M129.2,397.4c34.9-50,80.1-56.1,85.5-56.2l5.3.7,30.6,26.7c0,5.3-6.1,64-57.2,98.4-38.8,26.2-80.4,20.2-89.3,18.7,0,0-1.5-50.3,25-88.4Z"/>
  <g>
    <line class="cls-2" x1="202" y1="407.7" x2="237.9" y2="361.2"/>
    <line class="cls-2" x1="174.8" y1="413.9" x2="229" y2="353.4"/>
    <line class="cls-2" x1="181.3" y1="376.8" x2="220.1" y2="345.7"/>
  </g>
  <path class="cls-3" d="M82.1,288.7c55.3-25.7,97.5-8.3,102.2-5.6l4.3,3.3,13,38.5c-2.6,4.6-37.4,52.3-98.9,56.4-46.7,3.2-79.7-22.9-86.7-28.7,0,0,24-44.3,66-63.9Z"/>
  <g>
    <line class="cls-2" x1="139.8" y1="334.1" x2="194.2" y2="312"/>
    <line class="cls-2" x1="113.1" y1="325.9" x2="190.4" y2="300.8"/>
    <line class="cls-2" x1="137.4" y1="297.1" x2="186.6" y2="289.6"/>
  </g>
  <path class="cls-3" d="M109,169.2c60.2,10,85.2,48.1,87.5,53l1.7,5.1-10.9,39.1c-4.7,2.3-60.4,22.1-113.5-9.2-40.4-23.7-52.9-63.9-55.4-72.5,0,0,44.8-23.1,90.5-15.5Z"/>
  <g>
    <line class="cls-2" x1="131" y1="239.3" x2="188.4" y2="251.7"/>
    <line class="cls-2" x1="113.6" y1="217.4" x2="191.6" y2="240.3"/>
    <line class="cls-2" x1="149.9" y1="207.4" x2="194.8" y2="229"/>
  </g>
  <path class="cls-3" d="M208.2,88.1c41.2,44.9,37.4,90.4,36.2,95.7l-1.8,5.1-32.7,24c-5.1-1.1-61.1-19.9-83.7-77.2-17.1-43.6-2.3-82.9,1.1-91.3,0,0,49.5,9.4,80.8,43.6Z"/>
  <g>
    <line class="cls-2" x1="182.3" y1="157" x2="219.9" y2="202.1"/>
    <line class="cls-2" x1="182.1" y1="129" x2="229.4" y2="195.1"/>
    <line class="cls-2" x1="216.9" y1="143.5" x2="238.9" y2="188.1"/>
  </g>
  <path class="cls-3" d="M336.2,86.6c4.7,60.8-26.3,94.2-30.5,97.7l-4.5,2.9-40.6-1.2c-3.4-4.1-35.9-53.3-18.3-112.3,13.4-44.9,49.3-66.7,57.2-71.2,0,0,33.1,37.9,36.7,84.2Z"/>
  <g>
    <line class="cls-2" x1="273.4" y1="124.8" x2="275.1" y2="183.5"/>
    <line class="cls-2" x1="290.5" y1="102.7" x2="286.9" y2="183.9"/>
    <line class="cls-2" x1="308.9" y1="135.5" x2="298.7" y2="184.3"/>
  </g>
  <circle class="cls-4" cx="285.6" cy="275.5" r="100.3"/>
</svg>