<?xml version="1.0" encoding="UTF-8"?><svg id="logo" xmlns="http://www.w3.org/2000/svg" viewBox="0 0 59.16 64.47"><defs><style>.cls-1{fill:#1d1d1b;stroke-width:0px;}</style></defs><path class="cls-1" d="M35.93,16.24H14.63v2.88l6.73.77c.13,6.22.13,12.47.13,18.67v7.97c-8.3-1.46-13.91-8.81-13.91-21.32C7.58,11.17,15.43,3.61,25.15,3.61c2.3,0,4.87.55,7.53,2.04l1.39,8.25h4.39l-.29-10.44C33.27.65,28.16,0,24.27,0,10.23,0,0,10.8,0,25.2s8.52,23.76,21.46,25.06c-.01,3.64-.05,7.14-.12,10.56l-6.73.77v2.88h19.86c14.01,0,24.69-8.5,24.69-24.05s-9.53-24.19-23.25-24.19h.02ZM34.05,61.18h-5.93c-.08-3.58-.11-7.2-.12-10.95,3.78-.39,7.46-1.41,10.9-3.27l.29-10.44h-4.39l-1.4,8.28c-1.8.87-3.62,1.44-5.41,1.73v-7.97c0-6.42,0-12.78.14-19.01h6.57c10.69,0,16.9,7.27,16.9,20.88s-6.21,20.74-17.55,20.74h0Z"/></svg>