<?xml version="1.0" encoding="UTF-8"?><svg id="Capa_2" xmlns="http://www.w3.org/2000/svg" viewBox="0 0 48.26 65"><defs><style>.cls-1{fill:#81a0f7;}.cls-1,.cls-2{stroke-width:0px;}.cls-2{fill:#bd3c1a;}</style></defs><g id="JAVA"><path class="cls-2" d="M30.55,0c.72.83,1.12,1.84,1.45,2.86,1.21,3.73.39,7.02-2.18,9.94-1.53,1.74-3.33,3.17-5.1,4.64-1.29,1.07-2.61,2.11-3.74,3.36-.92,1.01-1.2,2.14-1.05,3.47.32,2.89,1.24,5.61,2.36,8.27.28.66.58,1.31.9,1.95.14.29.21.53-.05.77-.28.25-.55.14-.8-.06-.84-.68-1.65-1.41-2.4-2.19-1.59-1.64-2.99-3.42-4-5.48-1.59-3.26-1.24-6.32.9-9.22,1.22-1.65,2.67-3.05,4.28-4.3,1.71-1.32,3.51-2.52,5.24-3.83,1.92-1.46,2.93-3.42,3.37-5.73.23-1.2.27-2.42.09-3.63-.05-.34.01-.61.32-.8h.41Z"/><path class="cls-1" d="M0,56.88c.67-1.34,1.97-1.69,3.25-2.02,1.49-.38,3.03-.54,4.56-.66.67-.05,1.35-.11,2.02-.15.47-.03.73.25.65.65-.06.3-.31.4-.57.44-.97.17-1.93.39-2.88.68-.66.2-1.32.41-1.92.76-.09.05-.23.09-.23.21,0,.15.15.18.26.22.95.4,1.97.58,2.98.76,2.11.39,4.25.61,6.39.79.97.08,1.94.13,2.91.16,1.99.07,3.98.15,5.97.08,2.73-.1,5.45-.24,8.17-.53,3.04-.33,6.05-.77,9.02-1.49.76-.18,1.52-.39,2.23-.73.52-.25.59-.42.38-.94-.1-.26-.03-.46.17-.61.22-.16.47-.14.68.03.88.68,1.5,1.8.32,3.02-.65.67-1.5,1.01-2.34,1.34-2.6,1-5.31,1.55-8.05,1.96-2.37.36-4.74.59-7.13.74-2.67.17-5.35.28-8.03.2-1.04-.03-2.08-.02-3.12-.05-3.34-.09-6.67-.26-9.97-.83-1.2-.21-2.38-.48-3.5-.98-1.03-.47-1.88-1.1-2.22-2.25v-.81Z"/><path class="cls-1" d="M24.54,65c-.06-.02-.13-.06-.19-.06-2.38,0-4.75-.17-7.12-.42-2.48-.26-4.95-.61-7.4-1.13-.34-.07-.58-.24-.54-.59.04-.36.31-.5.68-.48,2.39.09,4.78.14,7.18.2,3.73.09,7.47.07,11.2.03,2.12-.03,4.24-.13,6.36-.31,3.19-.28,6.26-1.01,9.18-2.34,1.03-.47,2.03-1.02,2.87-1.8.2-.18.41-.22.63-.09.24.15.34.37.26.66-.32,1.16-1.05,2.03-1.97,2.75-1.56,1.23-3.38,1.85-5.28,2.28-1.54.35-3.11.53-4.68.74-2.06.28-4.14.41-6.22.49-.07,0-.14,0-.17.08h-4.79Z"/><path class="cls-1" d="M48.26,40.38c-.18.66-.32,1.33-.66,1.93-.66,1.16-1.62,2.03-2.71,2.75-2.12,1.39-4.46,2.23-6.9,2.84-.3.08-.58.04-.73-.28-.16-.33,0-.58.27-.76,1-.67,1.96-1.4,2.86-2.2,1.17-1.01,2.28-2.08,3.1-3.41.76-1.24.75-2.22-.05-3.18-.37-.45-.86-.73-1.39-.95-1.01-.42-2.07-.62-3.16-.66-.09,0-.19,0-.28-.01-.24-.05-.43-.18-.49-.43-.06-.26.07-.45.29-.57.82-.46,1.71-.74,2.62-.97,1.12-.28,2.25-.35,3.38-.08,1.84.43,2.88,1.72,3.44,3.45.17.53.28,1.09.41,1.63v.89Z"/><path class="cls-1" d="M19.76,38.84c2.48.03,4.77-.05,7.05-.18,2.96-.18,5.93-.42,8.84-1.04.29-.06.58-.14.87-.21.3-.08.59-.07.74.24.15.31.02.58-.25.78-1.02.73-2.13,1.27-3.29,1.73-2.74,1.07-5.59,1.63-8.5,1.95-3.02.34-6.05.36-9.08.28-2.49-.06-4.96-.29-7.37-.96-1.03-.29-2.04-.65-2.84-1.41-1.16-1.1-.97-2.54.42-3.33,1.08-.6,2.27-.87,3.46-1.09,1.99-.35,4-.47,6.01-.5.05,0,.11,0,.16,0,.33,0,.55.14.59.48.04.35-.17.52-.48.6-.64.16-1.29.29-1.93.46-1.06.29-2.1.62-3.06,1.17-.12.07-.3.13-.28.26.02.17.23.15.36.18,1,.25,2.03.33,3.05.39,1.9.12,3.81.23,5.52.17Z"/><path class="cls-2" d="M26.38,37.19c0-.14.09-.31.17-.48.42-.97.77-1.96.85-3.03.05-.64-.13-1.19-.53-1.7-.59-.76-1.21-1.49-1.74-2.29-1.25-1.9-1.77-4-1.63-6.24.08-1.25.76-2.26,1.56-3.18,1.46-1.67,3.28-2.9,5.17-4.01,1.65-.96,3.37-1.78,5.13-2.51.17-.07.36-.12.53-.2.3-.13.55-.06.71.2.17.29.05.54-.2.74-.95.76-1.92,1.5-2.85,2.29-1.42,1.19-2.81,2.42-3.99,3.86-.48.58-.83,1.23-1.05,1.95-.22.72-.16,1.42.14,2.1.23.53.55,1.02.88,1.5.55.8,1.07,1.62,1.45,2.52.81,1.91.6,3.72-.47,5.46-.84,1.38-1.97,2.5-3.25,3.48-.19.15-.38.19-.6.07-.18-.1-.28-.25-.27-.52Z"/><path class="cls-1" d="M23.07,55.67c-2.71-.03-5.4-.24-8.03-.91-.92-.24-1.81-.55-2.56-1.16-.7-.57-1.07-1.28-.85-2.21.15-.65.61-1.04,1.16-1.33.75-.39,1.58-.52,2.43-.57.26-.02.44.11.55.33.11.21.04.4-.11.55-.24.23-.12.34.12.41.73.2,1.48.31,2.23.41,2.05.28,4.12.4,6.19.32,1.09-.04,2.17-.27,3.25-.43.97-.14,1.95-.3,2.91-.52.22-.05.42-.01.62.11,1.06.65,2.13,1.29,3.19,1.94.2.12.31.29.29.54-.03.31-.25.43-.5.53-1.2.49-2.44.88-3.7,1.18-2.36.56-4.75.86-7.18.83Z"/><path class="cls-1" d="M20.11,45.18c3.24-.03,6.44-.32,9.62-.95.78-.16,1.56-.3,2.34-.5.26-.06.47,0,.68.15.79.57,1.59,1.13,2.39,1.68.22.15.37.34.33.6-.05.28-.27.41-.54.48-1.59.36-3.19.69-4.8.98-1.78.32-3.57.6-5.37.78-3.03.31-6.06.41-9.09-.11-1.4-.24-2.79-.52-4.1-1.09-.52-.23-1.02-.5-1.41-.94-.68-.77-.6-1.66.21-2.29.84-.65,1.83-.96,2.84-1.23.13-.03.26-.07.4-.09.3-.04.5.11.58.39.07.27-.04.47-.28.61-.17.09-.34.16-.49.28-.3.23-.27.46.09.59.47.17.97.26,1.46.33,1.7.23,3.41.35,5.13.34Z"/></g></svg>