<?xml version="1.0" encoding="UTF-8"?><svg id="Capa_2" xmlns="http://www.w3.org/2000/svg" viewBox="0 0 57 37.88"><defs><style>.cls-1{fill:#b7986e;}.cls-1,.cls-2{stroke-width:0px;}.cls-2{fill:#1e3163;}</style></defs><g id="MariaDB"><path class="cls-2" d="M57,2.35c-.13.09-.09.24-.11.35-.2,1.05-.71,1.92-1.45,2.68-.72.73-1.51,1.38-2.32,1.99-.68.51-1.29,1.08-1.86,1.71-.94,1.05-1.35,2.32-1.59,3.66-.67,3.67-1.63,7.28-2.65,10.86-.32,1.12-.7,2.21-.63,3.4.06.97.19,1.93.57,2.84.33.81.76,1.53,1.68,1.86-.87.61-1.8.92-2.81,1.01-1.48.13-2.85-.16-4.05-1.1-.19-.15-.4-.3-.51-.49-.22-.41-.48-.33-.81-.18-.67.3-1.18.79-1.61,1.36-.24.31-.47.63-.66.97-.91,1.7-2.32,2.77-4.12,3.39-1.42.49-2.85.95-4.35,1.15-.03,0-.05.04-.07.06h-.86c-.37-.2-.38-.2-.12-.55.29-.4.59-.8.89-1.2.85-1.13,1.69-2.25,2.22-3.58.13-.33.02-.39-.27-.43-1.22-.17-2.44-.35-3.66-.53-2.84-.42-5.7-.73-8.58-.61-1.4.06-2.78.28-4.07.88-1.24.57-2.33,1.37-3.43,2.15-2.45,1.73-5.16,2.62-8.17,2.53-.75-.02-1.49-.12-2.18-.44-.67-.31-.75-.83-.21-1.34.34-.32.75-.53,1.14-.79.19-.13.4-.25.53-.53-1.15.27-2.1.01-2.88-.84v-.07c1.02-1.12,2.36-1.56,3.81-1.78,1.3-.2,2.62-.23,3.94-.33,1.57-.12,2.77-.76,3.65-2.07.51-.76.95-1.56,1.48-2.3.82-1.16,1.95-1.99,3.08-2.82,2.67-1.95,5.68-3.09,8.91-3.73,2.28-.45,4.53-.99,6.71-1.82,2.62-.99,4.67-2.66,6.25-4.95,1.15-1.66,2.13-3.42,3.22-5.11.84-1.31,1.75-2.56,2.87-3.65,1.61-1.57,3.53-2.43,5.75-2.69,1.36-.16,2.74-.24,4.07-.63.6-.17,1.16-.44,1.74-.65h.5c.55.16.9.49,1,1.07v1.28ZM30.38,36.55c2.97-.49,5.35-1.97,7.19-4.33,1.21-1.56,2.04-3.33,2.73-5.17.05-.14.03-.4.22-.39.17.02.21.26.26.43.02.08.03.16.05.24.09.41.03.83.09,1.24.03.24-.04.59.18.68.17.07.41-.19.6-.33,1.38-.99,2.38-2.3,3.18-3.77,1.3-2.38,2.06-4.95,2.72-7.56.54-2.16.95-4.34,1.49-6.5.34-1.37,1.08-2.42,2.17-3.28.65-.5,1.33-.95,1.99-1.44.08-.06.21-.1.18-.23-.18-1.01.17-1.91.6-2.79.05-.11.15-.21.13-.36h0c.1.02.14-.17.24-.08.08.08-.01.18-.05.26-.09.2-.21.4-.3.6-.32.72-.51,1.46-.44,2.32.99-.73,1.79-1.53,2.1-2.7.18-.68.21-.59-.45-.69-.59-.09-1.11-.29-1.32-.92-.07-.2-.18-.12-.3-.06-.56.26-1.15.36-1.76.36-.85,0-1.71.03-2.56.13-1.38.17-2.65.63-3.78,1.44-1.42,1.01-2.45,2.36-3.38,3.81-1.01,1.58-1.87,3.24-2.9,4.81-1.01,1.55-2.13,3.01-3.68,4.06-2.81,1.91-5.92,3.08-9.25,3.67-3.02.54-5.92,1.43-8.58,3-1.75,1.03-3.41,2.16-4.56,3.89-.59.89-1.17,1.78-1.86,2.61-.52.62-1.08,1.16-1.92,1.33-.78.16-1.56.26-2.36.3-1.24.06-2.49.09-3.72.29-.7.11-1.4.25-1.98.71-.15.12-.36.25-.32.43.04.16.28.17.45.21.7.16,1.42.11,2.13.12.43,0,.51.16.29.54-.09.17-.22.31-.36.43-.29.25-.61.45-.93.66-.25.16-.52.3-.72.52-.16.18-.12.3.12.34.19.03.38.04.57.06,1.03.11,2.06.16,3.09,0,1.75-.27,3.4-.86,4.94-1.73,1.02-.58,2.01-1.21,3.01-1.83,1.85-1.18,3.87-1.83,6.07-1.89,1.75-.04,3.48.16,5.21.39,1.93.26,3.86.46,5.81.41.71-.02,1.15-.32,1.47-.91.32-.59.54-1.21.77-1.83.21-.59.42-1.19.84-1.67.15-.17.31-.32.58-.34,0,.48-.02.93-.06,1.4-.2,2.29-.94,4.38-2.12,6.35-.57.95-1.23,1.82-1.84,2.75-.01.02-.04.04-.04.05.03.04.06.02.08,0ZM46.67,31.55c-.93-1.46-1.3-3.05-1.54-4.7-.06.04-.1.06-.13.09-.47.48-.96.95-1.42,1.44-.42.44-.8.91-1.03,1.48-.2.48-.19.6.24.89,1.17.78,2.47.98,3.89.81Z"/><path class="cls-1" d="M54.15,2.99c.02.14-.08.24-.13.36-.43.88-.78,1.78-.6,2.79.02.14-.1.17-.18.23-.66.49-1.34.93-1.99,1.44-1.09.85-1.83,1.91-2.17,3.28-.54,2.16-.95,4.34-1.49,6.5-.65,2.61-1.42,5.19-2.72,7.56-.81,1.47-1.8,2.78-3.18,3.77-.19.14-.43.4-.6.33-.22-.09-.15-.44-.18-.68-.05-.41,0-.83-.09-1.24-.02-.08-.03-.16-.05-.24-.05-.17-.09-.41-.26-.43-.19-.02-.17.25-.22.39-.69,1.84-1.52,3.61-2.73,5.17-1.83,2.37-4.22,3.84-7.19,4.33-.01-.02-.03-.03-.04-.04.6-.92,1.27-1.8,1.84-2.75,1.17-1.96,1.92-4.06,2.12-6.35.04-.46.06-.92.06-1.4-.26.02-.43.17-.58.34-.42.49-.63,1.08-.84,1.67-.23.62-.45,1.25-.77,1.83-.32.59-.76.89-1.47.91-1.95.05-3.88-.16-5.81-.41-1.73-.23-3.46-.43-5.21-.39-2.2.06-4.21.71-6.07,1.89-.99.63-1.98,1.26-3.01,1.83-1.54.87-3.18,1.47-4.94,1.73-1.03.16-2.06.11-3.09,0-.19-.02-.38-.03-.57-.06-.24-.04-.28-.16-.12-.34.2-.23.47-.36.72-.52.32-.2.64-.4.93-.66.14-.13.27-.27.36-.43.21-.38.13-.53-.29-.54-.71-.01-1.42.04-2.13-.12-.17-.04-.42-.05-.45-.21-.04-.19.17-.32.32-.43.58-.46,1.28-.6,1.98-.71,1.23-.2,2.48-.23,3.72-.29.8-.04,1.58-.14,2.36-.3.83-.17,1.4-.71,1.92-1.33.69-.82,1.27-1.72,1.86-2.61,1.15-1.73,2.81-2.86,4.56-3.89,2.66-1.56,5.55-2.46,8.58-3,3.33-.59,6.44-1.76,9.25-3.67,1.55-1.05,2.67-2.51,3.68-4.06,1.03-1.57,1.89-3.23,2.9-4.81.92-1.45,1.96-2.8,3.38-3.81,1.13-.81,2.4-1.27,3.78-1.44.85-.1,1.7-.12,2.56-.13.61,0,1.2-.11,1.76-.36.12-.06.24-.14.3.06.21.63.74.83,1.32.92.66.11.63.02.45.69-.31,1.17-1.11,1.97-2.1,2.7-.07-.86.12-1.6.44-2.32.09-.2.21-.4.3-.6.04-.08.13-.18.05-.26-.09-.09-.14.1-.24.08-.1-.1.06-.23-.07-.36-.24.21-.36.51-.52.77-.48.76-.8,1.58-.89,2.48,0,.07-.05.19.05.22.13.03.13-.1.15-.19.01-.06.02-.12.03-.17.1-.94.52-1.76,1.02-2.54.05-.08.06-.25.24-.21ZM50.02,4.01c0-.43-.01-.45-.46-.45-.12,0-.24,0-.36,0-.71.07-1.36.27-1.76.92-.44.72-.4.85.43,1.05,1.09.26,2.14-.5,2.15-1.53ZM53.7,2.11c-.81.27-2.69,3.07-2.54,3.78.54-1.47,1.55-2.61,2.54-3.78ZM51.86,6.06c.21-.24.19-.49.26-.71.29-.94.88-1.69,1.48-2.44.13-.16.29-.3.3-.55-.81.44-2.18,2.88-2.04,3.69Z"/><path class="cls-1" d="M46.67,31.55c-1.41.17-2.71-.02-3.89-.81-.43-.29-.44-.41-.24-.89.24-.57.62-1.04,1.03-1.48.46-.49.94-.96,1.42-1.44.03-.03.07-.05.13-.09.25,1.65.62,3.24,1.54,4.7Z"/><path class="cls-1" d="M30.38,36.55s-.06.04-.08,0c0,0,.02-.03.04-.05.02.01.03.03.04.04Z"/><path class="cls-2" d="M50.02,4.01c0,1.02-1.06,1.79-2.15,1.53-.82-.2-.86-.33-.43-1.05.39-.65,1.05-.85,1.76-.92.12-.01.24,0,.36,0,.45,0,.46.01.46.45Z"/><path class="cls-2" d="M53.7,2.11c-.99,1.16-2,2.31-2.54,3.78-.15-.71,1.73-3.51,2.54-3.78Z"/><path class="cls-2" d="M51.86,6.06c-.14-.82,1.23-3.25,2.04-3.69,0,.25-.17.39-.3.55-.6.75-1.19,1.5-1.48,2.44-.07.22-.06.47-.26.71Z"/><path class="cls-2" d="M54.15,2.99c-.17-.04-.18.12-.24.21-.5.78-.92,1.59-1.02,2.54,0,.06-.01.12-.03.17-.02.09-.02.22-.15.19-.1-.02-.06-.14-.05-.22.09-.9.41-1.72.89-2.48.16-.26.29-.56.52-.77.14.13-.02.26.07.36,0,0,0,0,0,0Z"/></g></svg>