<?xml version="1.0" encoding="UTF-8"?><svg id="Capa_2" xmlns="http://www.w3.org/2000/svg" viewBox="0 0 57 28.94"><defs><style>.cls-1{fill:#000;}.cls-1,.cls-2{stroke-width:0px;}.cls-2{fill:#777ab0;}</style></defs><g id="php"><path class="cls-2" d="M30.95,28.94h-5.01c-.08-.15-.23-.1-.35-.11-3-.16-5.97-.54-8.9-1.23-4.16-.98-8.14-2.39-11.63-4.93C2.68,20.94.77,18.85.12,15.86c-.01-.06-.08-.11-.12-.17,0-.82,0-1.63,0-2.45.13-.05.12-.17.14-.28.38-1.75,1.27-3.23,2.46-4.53,1.95-2.13,4.37-3.59,6.98-4.76C14.19,1.62,19.05.63,24.05.21c.52-.04,1.06.02,1.56-.21h5.68c.13.2.34.11.51.12,3.63.23,7.22.76,10.72,1.78,3.67,1.06,7.17,2.51,10.17,4.94,1.85,1.49,3.35,3.25,4.03,5.59.1.35.09.73.29,1.05v2.11c-.1.05-.1.14-.12.23-.35,1.8-1.24,3.31-2.46,4.65-1.96,2.15-4.38,3.63-7.01,4.8-4.58,2.05-9.42,3.04-14.4,3.46-.69.06-1.39,0-2.07.21ZM14.93,7.58c-1.34,0-2.45.01-3.56,0-.33,0-.49.09-.56.43-.95,4.92-1.91,9.85-2.87,14.77-.07.37.05.45.39.45.83-.01,1.67-.02,2.5,0,.34,0,.49-.1.55-.45.18-1.04.42-2.07.59-3.11.07-.48.25-.64.74-.62,1.02.04,2.04.02,3.06,0,1.9-.05,3.59-.6,4.96-2.02,1.27-1.32,1.9-2.9,1.99-4.7.13-2.68-1.34-4.34-4-4.65-1.33-.15-2.67-.04-3.77-.09ZM41.52,7.58c-1.32,0-2.42.02-3.51,0-.4-.01-.55.11-.61.5-.23,1.28-.5,2.54-.75,3.82-.7,3.58-1.4,7.16-2.11,10.74-.08.41-.04.62.46.59.8-.04,1.6-.03,2.39,0,.38.01.51-.15.57-.5.19-1.08.42-2.14.61-3.22.06-.37.22-.47.58-.47,1.06.02,2.12.02,3.17-.01,1.53-.05,2.97-.36,4.21-1.34,1.72-1.36,2.62-3.14,2.76-5.3.17-2.51-1.09-4.14-3.57-4.64-1.47-.3-2.96-.11-4.21-.16ZM28.99,10.11v.02c.48,0,.97-.02,1.45,0,1.1.06,1.52.55,1.32,1.63-.41,2.28-.85,4.55-1.3,6.82-.08.39.01.48.38.47.85-.02,1.71-.02,2.56,0,.33,0,.44-.12.5-.42.45-2.38.94-4.76,1.36-7.15.38-2.17-.42-3.3-2.53-3.72-1.51-.3-3.03-.17-4.55-.17-.45,0-.53-.13-.44-.54.24-1.07.43-2.14.67-3.21.08-.35-.02-.41-.34-.41-.87.01-1.74.02-2.62,0-.31,0-.42.11-.47.4-.1.58-.22,1.16-.34,1.75-.84,4.35-1.68,8.69-2.54,13.03-.07.36,0,.45.36.44.8-.02,1.6-.02,2.39,0,.4.01.57-.09.65-.52.49-2.62,1.03-5.23,1.52-7.85.08-.41.21-.62.67-.58.42.04.85,0,1.28,0Z"/><path class="cls-1" d="M14.93,7.58c1.1.05,2.44-.07,3.77.09,2.67.31,4.13,1.97,4,4.65-.09,1.8-.71,3.38-1.99,4.7-1.36,1.41-3.06,1.96-4.96,2.02-1.02.03-2.04.04-3.06,0-.49-.02-.67.14-.74.62-.16,1.04-.41,2.07-.59,3.11-.06.35-.21.46-.55.45-.83-.02-1.67-.02-2.5,0-.34,0-.46-.08-.39-.45.97-4.92,1.92-9.84,2.87-14.77.07-.34.23-.44.56-.43,1.11.02,2.22,0,3.56,0ZM15.67,10.02c-.58,0-.99.02-1.4,0-.35-.03-.48.12-.54.45-.35,1.91-.72,3.82-1.1,5.73-.06.28-.03.4.3.39.78-.02,1.56.02,2.34-.03,2.28-.14,3.36-1.12,3.81-3.38.08-.4.1-.81.09-1.22-.03-.95-.44-1.47-1.35-1.73-.76-.22-1.54-.21-2.14-.2Z"/><path class="cls-1" d="M41.52,7.58c1.25.05,2.74-.13,4.21.16,2.48.5,3.73,2.12,3.57,4.64-.15,2.16-1.04,3.94-2.76,5.3-1.24.98-2.69,1.29-4.21,1.34-1.06.03-2.11.03-3.17.01-.36,0-.52.1-.58.47-.18,1.08-.42,2.14-.61,3.22-.06.35-.19.51-.57.5-.8-.03-1.6-.03-2.39,0-.5.02-.54-.18-.46-.59.71-3.58,1.41-7.16,2.11-10.74.25-1.27.52-2.54.75-3.82.07-.39.22-.51.61-.5,1.09.03,2.19,0,3.51,0ZM42.22,10.03c-.6,0-1.05.01-1.49,0-.28-.01-.39.11-.43.38-.34,1.95-.69,3.9-1.06,5.84-.05.29.03.35.29.35.78-.02,1.56.02,2.33-.03,1.34-.09,2.57-.45,3.25-1.77.46-.89.67-1.84.63-2.84-.04-.94-.46-1.46-1.36-1.72-.76-.22-1.54-.2-2.16-.2Z"/><path class="cls-1" d="M28.99,10.11c-.43,0-.86.03-1.28,0-.46-.05-.59.16-.67.58-.5,2.62-1.03,5.23-1.52,7.85-.08.43-.25.54-.65.52-.8-.03-1.6-.02-2.39,0-.35,0-.43-.08-.36-.44.86-4.34,1.7-8.69,2.54-13.03.11-.58.24-1.16.34-1.75.05-.29.16-.41.47-.4.87.02,1.74.02,2.62,0,.31,0,.42.06.34.41-.24,1.07-.44,2.14-.67,3.21-.09.41,0,.54.44.54,1.52,0,3.05-.13,4.55.17,2.11.42,2.91,1.55,2.53,3.72-.42,2.39-.91,4.77-1.36,7.15-.06.31-.17.43-.5.42-.85-.02-1.71-.02-2.56,0-.37,0-.46-.07-.38-.47.45-2.27.89-4.54,1.3-6.82.2-1.08-.22-1.57-1.32-1.63-.48-.03-.96,0-1.45,0v-.02Z"/><path class="cls-2" d="M15.67,10.02c.61,0,1.39-.02,2.14.2.91.27,1.31.78,1.35,1.73.01.41,0,.81-.09,1.22-.44,2.26-1.53,3.24-3.81,3.38-.78.05-1.56,0-2.34.03-.33,0-.35-.11-.3-.39.38-1.91.74-3.82,1.1-5.73.06-.33.19-.47.54-.45.41.03.82,0,1.4,0Z"/><path class="cls-2" d="M42.22,10.03c.62,0,1.4-.03,2.16.2.91.27,1.33.78,1.36,1.72.04,1-.17,1.95-.63,2.84-.68,1.32-1.91,1.68-3.25,1.77-.77.05-1.55.01-2.33.03-.27,0-.35-.06-.29-.35.36-1.94.71-3.89,1.06-5.84.05-.27.15-.39.43-.38.44.02.89,0,1.49,0Z"/></g></svg>