<?xml version="1.0" encoding="UTF-8"?><svg id="Capa_2" xmlns="http://www.w3.org/2000/svg" viewBox="0 0 60 52.65"><defs><style>.cls-1{fill:#eedbcc;}.cls-1,.cls-2{stroke:#000;stroke-miterlimit:10;stroke-width:3px;}.cls-2{fill:#528cc0;}</style></defs><g id="autodidacta"><path class="cls-1" d="M40.12,12.02c0,.76-.07,1.24-.07,1.24,0,0-2.4.39-4.72.76-3.15.5-5.73,2.13-5.73,2.13,0,0-2.26-2.2-5.46-2.66-2.41-.35-5-.37-5-.37,0,0-.06-.48-.06-1.09,0-5.81,4.71-10.52,10.52-10.52s10.52,4.71,10.52,10.52Z"/><rect class="cls-1" x="1.5" y="28.14" width="12.25" height="12.25"/><rect class="cls-1" x="46.25" y="28.14" width="12.25" height="12.25"/><path class="cls-2" d="M49.98,47.31c.47,0,.84,0,1.07,0l-.53-31.43c-1.69-.24-6.42-.8-11.19.53-2.81.78-7.2,3.42-8.52,3.73-.85.2-1.61.11-2.13,0-5.61-2.42-11.52-4.14-18.64-4.26-.54,0-1.07,0-1.6,0l.53,30.9c.35,0,.71,0,1.07,0,5.44.06,11.93,1.1,19.18,4.26.48.09,1.25.18,2.13,0,1.29-.27,1.89-.92,3.2-1.6.88-.45,1.65-.66,3.2-1.07,3.81-1.01,7.32-1.04,12.25-1.07Z"/></g></svg>