<?xml version="1.0" encoding="UTF-8"?><svg id="Capa_2" xmlns="http://www.w3.org/2000/svg" viewBox="0 0 57 34.21"><defs><style>.cls-1{fill:#e69826;}.cls-1,.cls-2{stroke-width:0px;}.cls-2{fill:#303743;}</style></defs><g id="aws"><path class="cls-1" d="M26.06,34.21c-.81-.09-1.61-.17-2.42-.26-1.31-.15-2.62-.34-3.91-.62-1.01-.22-2-.47-3-.74-1.49-.4-2.94-.92-4.36-1.5-3.45-1.41-6.65-3.27-9.61-5.53-.77-.59-1.51-1.23-2.26-1.85-.04-.04-.09-.08-.13-.12-.35-.34-.46-.73-.28-1,.17-.25.6-.25,1.03,0,2.04,1.15,4.14,2.18,6.3,3.07,1.69.7,3.41,1.32,5.16,1.84,1.65.49,3.32.92,5.01,1.26,1.15.23,2.31.43,3.47.62,1.17.19,2.37.26,3.55.37,2.38.23,4.76.19,7.15.12,1.05-.03,2.09-.14,3.13-.24,1.28-.12,2.56-.32,3.83-.57.91-.18,1.82-.35,2.73-.55,1.81-.41,3.59-.94,5.36-1.52,1.3-.43,2.56-.93,3.83-1.45.48-.2.98-.04,1.24.36.25.39.17.8-.29,1.19-1,.85-2.16,1.48-3.29,2.13-1.59.92-3.26,1.66-4.99,2.28-1.68.6-3.37,1.16-5.12,1.54-.94.2-1.87.44-2.81.58-.84.12-1.68.33-2.55.35-.75.02-1.5.16-2.24.25h-4.54Z"/><path class="cls-2" d="M29.29,4.85c-.3.62-.34,1.2-.48,1.73-.24.89-.44,1.8-.66,2.7-.17.72-.32,1.44-.5,2.16-.2.8-.37,1.61-.56,2.41-.2.83-.42,1.65-.59,2.49-.16.79-.5,1.09-1.31,1.09-.54,0-1.08,0-1.62,0-.71,0-.97-.19-1.17-.86-.48-1.61-1.01-3.21-1.46-4.83-.32-1.16-.73-2.29-1.09-3.44-.34-1.11-.65-2.22-.98-3.33-.28-.91-.57-1.82-.85-2.74-.11-.35-.22-.69-.29-1.05-.08-.39.16-.71.56-.72.73-.02,1.46-.02,2.18,0,.43.02.71.33.82.69.29.97.51,1.96.76,2.94.19.73.39,1.46.58,2.19.2.77.37,1.55.56,2.32.16.63.33,1.26.5,1.89.24.93.48,1.87.74,2.9.28-.65.32-1.27.48-1.86.24-.85.41-1.72.61-2.58.18-.77.36-1.55.55-2.32.21-.87.42-1.74.63-2.61.19-.8.41-1.6.57-2.41.16-.83.5-1.16,1.34-1.17.44,0,.87,0,1.31,0,.89,0,1.18.2,1.38,1.06.35,1.45.66,2.91,1,4.36.28,1.17.59,2.33.87,3.5.19.79.31,1.59.52,2.38.16.57.21,1.17.49,1.8.19-.71.36-1.32.52-1.95.21-.8.41-1.6.62-2.4.18-.73.36-1.46.55-2.19.28-1.08.57-2.16.85-3.24.18-.69.37-1.37.53-2.06.24-1.04.5-1.26,1.54-1.26.45,0,.9,0,1.35,0,.64.01.93.46.7,1.07-.42,1.14-.74,2.32-1.1,3.48-.36,1.16-.76,2.31-1.12,3.47-.33,1.04-.63,2.08-.95,3.12-.26.84-.5,1.69-.79,2.53-.31.89-.5,1.81-.87,2.68-.14.33-.35.56-.73.62-.81.12-1.62.12-2.43,0-.34-.05-.57-.27-.66-.57-.31-.97-.53-1.96-.74-2.95-.17-.78-.37-1.55-.56-2.32-.21-.86-.42-1.71-.63-2.57-.2-.83-.41-1.66-.61-2.49-.12-.52-.23-1.04-.37-1.7Z"/><path class="cls-2" d="M16.19,9.17c0,1.23.04,2.21-.01,3.19-.06,1.14.31,2.14.83,3.11.21.39.17.69-.14.97-.47.44-1.03.75-1.58,1.07-.4.23-.74-.01-1-.3-.36-.4-.73-.81-.93-1.31-.21-.52-.38-.39-.67-.08-.67.73-1.49,1.23-2.4,1.62-1.08.46-2.21.47-3.34.43-1.61-.06-2.92-.73-3.84-2.06-.66-.95-.85-2.02-.83-3.18.02-1.51.58-2.74,1.68-3.73.92-.83,2.02-1.22,3.24-1.47,1.34-.28,2.63-.04,3.94.06.45.03.86.28,1.32.26.16,0,.31.02.31-.19.01-1.07.11-2.15-.33-3.17-.39-.9-1.18-1.26-2.06-1.42-.95-.17-1.92-.15-2.86,0-.89.15-1.78.39-2.62.77-.22.1-.44.15-.66.22-.49.17-.78,0-.81-.51-.03-.43-.01-.87,0-1.31,0-.48.36-.72.72-.91.87-.45,1.8-.71,2.75-.95C8.16-.04,9.44-.04,10.71.06c1.5.12,2.92.54,3.99,1.7.73.79,1.09,1.76,1.3,2.8.33,1.62.09,3.25.18,4.62ZM12.8,11.28c0-.26,0-.52,0-.79,0-.17-.04-.27-.22-.31-1.53-.37-3.08-.49-4.63-.22-.85.15-1.61.58-1.9,1.43-.29.83-.33,1.72.04,2.56.22.5.6.91,1.15,1.07.85.24,1.7.17,2.57-.01,1.68-.37,3.11-1.7,3-3.73Z"/><path class="cls-2" d="M48.57.04c1.38-.1,2.68.18,3.93.67.28.11.54.28.79.45.3.21.47.51.46.89,0,.35.01.7,0,1.05-.02.44-.26.63-.69.59-.2-.02-.39-.08-.58-.17-1.36-.64-2.8-.86-4.28-.75-.6.04-1.21.17-1.75.48-.63.36-.89.92-.88,1.63.01.77.43,1.29,1.07,1.63.84.44,1.75.69,2.65.98,1.21.39,2.49.66,3.54,1.42,1.06.77,1.79,1.78,1.83,3.16.02.9.04,1.79-.4,2.64-.56,1.08-1.37,1.87-2.42,2.43-1.26.67-2.65.93-4.04.89-1.69-.05-3.38-.3-4.93-1.09-.57-.29-.95-.72-.9-1.41.02-.28,0-.55,0-.83.03-.53.43-.77.92-.59.64.24,1.25.53,1.92.7.69.18,1.38.34,2.09.35.85.01,1.71.09,2.55-.16,1.35-.4,1.98-1.16,1.84-2.45-.07-.65-.53-1.06-1.06-1.36-.62-.34-1.32-.52-2-.74-1.43-.45-2.92-.76-4.17-1.68-.78-.58-1.27-1.34-1.63-2.22-.41-1.02-.38-2.06,0-3.07.36-.96,1-1.73,1.86-2.31,1.3-.88,2.73-1.26,4.27-1.13Z"/><path class="cls-1" d="M52.97,21.28c1.1-.05,2.2,0,3.25.42.51.2.75.5.77,1.04.09,2.79-.84,5.25-2.4,7.5-.38.54-.82,1.06-1.38,1.45-.25.18-.51.26-.77.08-.27-.19-.13-.43-.04-.67.48-1.26.99-2.52,1.37-3.82.21-.71.38-1.43.42-2.18.04-.85-.31-1.27-1.18-1.36-1.63-.17-3.25-.13-4.87.12-.52.08-1.05.07-1.57.04-.37-.02-.46-.26-.26-.58.28-.44.73-.67,1.17-.89,1.73-.86,3.55-1.26,5.49-1.16Z"/></g></svg>