<?xml version="1.0" encoding="UTF-8"?><svg id="Capa_2" xmlns="http://www.w3.org/2000/svg" xmlns:xlink="http://www.w3.org/1999/xlink" viewBox="0 0 55.01 43.9"><defs><style>.cls-1{fill:url(#Degradado_sin_nombre_11);stroke:#6418f0;stroke-miterlimit:10;}.cls-2{fill:#fff;stroke-width:0px;}</style><linearGradient id="Degradado_sin_nombre_11" x1="2.95" y1="14.23" x2="54.42" y2="30.54" gradientUnits="userSpaceOnUse"><stop offset="0" stop-color="#761af7"/><stop offset="1" stop-color="#5c17ee"/></linearGradient></defs><g id="bootstrap"><path class="cls-1" d="M53.99,23.35c.21-.07.38-.13.51-.17l-.07-2.63c-.6-.08-1.44-.28-2.29-.81-2.02-1.27-2.63-3.54-3.04-5.13-.35-1.39-.42-3.4-.54-7.36-.07-2.41-.04-3.06-.54-3.98-.72-1.33-2.24-2.49-4.12-2.7-.42-.05-.78,0-1.01,0-16.6.22-26.19-.02-30.81-.07-.2,0-1.08-.03-2.26.2-1.69.34-3.11,2.15-3.31,3.92-.04.39-.01.68,0,.81.09.87.65,6.61-1.49,11.34,0,0-1.19,2.63-2.9,3.38-.75.32-1.48.34-1.48.34-.06,0-.1,0-.13,0v2.77s.08,0,.13,0c1.49.03,2.58,1,2.97,1.35,1.7,1.52,2.23,4.92,2.36,5.8.38,2.58.14,4.61.68,8.3.05.35.13.86.4,1.49.79,1.78,2.33,3,3.44,3.14l3.71.07h28.89c.1.01.26,0,.44,0,1.67.03,2.9-1.05,3.17-1.28,1.2-1.05,1.56-2.34,1.69-2.83.28-1.04.11-1.53.07-3.04-.06-2.33.27-4.1.54-5.53.45-2.39.99-3.58,1.15-3.91.49-1.05.96-2.01,1.89-2.57.31-.19,1.07-.56,1.96-.88Z"/><path class="cls-2" d="M31.1,21.28c1.62.25,3.04.89,4.06,2.22.9,1.17,1.21,2.5,1.11,3.96-.2,3.03-2.19,5.06-5.31,5.73-.83.18-1.69.27-2.54.28-3.1.03-6.21.01-9.31.01-.11,0-.22,0-.37,0,0-.15-.02-.26-.02-.38,0-7.42,0-14.85-.01-22.27,0-.33.1-.41.42-.41,3.05.01,6.1,0,9.14.01,1.63.01,3.2.33,4.56,1.3,1.82,1.3,2.57,3.12,2.21,5.29-.36,2.15-1.67,3.58-3.8,4.19-.03,0-.06.02-.1.03-.02,0-.04.02-.06.03ZM22.55,30.39c.13,0,.23.02.33.02,1.61,0,3.22,0,4.82-.01.5,0,1.01-.05,1.51-.14,1.69-.31,3.05-1.22,3.19-3.23.1-1.54-.47-2.75-1.89-3.4-.77-.35-1.58-.52-2.42-.54-1.75-.03-3.51-.02-5.26-.03-.09,0-.17.02-.27.03v7.3ZM22.55,13.55s-.02.09-.02.14c0,2.07,0,4.14,0,6.21,0,.28.16.27.35.27,1.18,0,2.36.02,3.54-.01.73-.02,1.46-.07,2.17-.23,2.04-.46,3.02-1.93,2.68-3.92-.21-1.24-1.19-2.16-2.65-2.37-2-.29-4.02-.09-6.03-.12,0,0-.02.01-.05.04Z"/></g></svg>