<?xml version="1.0" encoding="UTF-8"?><svg id="Capa_2" xmlns="http://www.w3.org/2000/svg" viewBox="0 0 197 164"><defs><style>.cls-1{fill:#f7f8fb;}.cls-1,.cls-2{stroke-width:0px;}.cls-2{fill:#d0b57c;}</style></defs><g id="carpetas"><g id="open"><path class="cls-2" d="M197,32.74V1.37c0-.75-.61-1.37-1.37-1.37h-85.36c-.93,0-1.79.52-2.21,1.35-2.71,5.27-12.53,24.33-14.13,27.25-.09.17-.19.34-.28.51-.37.67-1.44,2.23-2.7,3.49H2.85c-1.57,0-2.85,1.27-2.85,2.85v125.69c0,1.58,1.28,2.86,2.86,2.86h191.3c1.57,0,2.85-1.27,2.85-2.85V32.74Z"/><path class="cls-1" d="M178.99,16h-54.31c-.41,0-.77.24-.93.62l-6.14,14.47c-.28.67.21,1.41.93,1.41h60.45c.56,0,1.01-.45,1.01-1.01v-14.47c0-.56-.45-1.01-1.01-1.01Z"/></g></g></svg>