<?xml version="1.0" encoding="UTF-8"?><svg id="Capa_1" xmlns="http://www.w3.org/2000/svg" viewBox="0 0 59 67.65"><defs><style>.cls-1{fill:#1c88c7;}.cls-1,.cls-2,.cls-3,.cls-4{stroke-width:0px;}.cls-2{fill:#1b73ba;}.cls-3{fill:#fff;}.cls-4{fill:#ecedef;}</style></defs><polygon class="cls-2" points="54.4 61.08 30.12 67.65 5.47 61.08 0 0 59 0 54.4 61.08"/><polygon class="cls-1" points="50.15 56.15 30.01 61.52 29.35 6.24 53.96 6.24 50.15 56.15"/><polygon class="cls-2" points="30.01 61.52 9.57 56.15 5.04 6.24 29.31 6.24 30.01 61.52"/><polyline class="cls-4" points="29.66 27.26 29.66 12.91 10.62 13.03 11.49 20.25 29.01 20.25 11.71 27.69 12.81 34.7 29.66 34.84 29.66 34.85"/><polygon class="cls-3" points="29.45 20.25 29.59 34.84 38.2 34.92 37.55 44.77 29.84 46.52 29.88 54.84 44.11 50.02 46.3 27.26 30.54 27.26 47.62 20.25 47.62 12.81 29.44 12.91 29.45 20.25"/><polyline class="cls-4" points="29.88 46.52 29.66 46.46 20.91 44.33 20.25 38.86 13.03 38.86 14.12 50.46 29.88 54.84"/></svg>