<?xml version="1.0" encoding="UTF-8"?><svg id="Capa_2" xmlns="http://www.w3.org/2000/svg" viewBox="0 0 57 57.06"><defs><style>.cls-1{fill:#497ffb;}.cls-1,.cls-2{stroke-width:0px;}.cls-2{fill:#487ffb;}</style></defs><g id="DigitalOcean"><path class="cls-2" d="M17.55,46.04c0-.49,0-.97,0-1.46,0-3.07,0-6.14,0-9.21,0-.35-.04-.31.32-.31,3.45,0,6.9,0,10.35,0,.35,0,.31-.03.31.32,0,3.41,0,6.82,0,10.22,0,.05,0,.1,0,.15,0,.24,0,.24.24.24,1.99-.01,3.92-.39,5.79-1.08,2.24-.84,4.23-2.08,5.96-3.73,2.43-2.32,4.06-5.11,4.91-8.36.25-.96.4-1.95.48-2.94.06-.79.07-1.58.02-2.37-.08-1.41-.33-2.79-.72-4.15-.5-1.73-1.22-3.35-2.23-4.84-2.02-2.96-4.71-5.07-8.07-6.31-1.18-.44-2.4-.75-3.65-.94-1.17-.18-2.34-.26-3.52-.2-3.75.19-7.12,1.42-10.08,3.75-2.08,1.64-3.71,3.66-4.88,6.03-.77,1.57-1.29,3.22-1.56,4.94-.13.82-.21,1.65-.2,2.48,0,.23,0,.23-.23.23-1.55,0-3.1,0-4.64,0-1.92,0-3.84,0-5.75,0-.05,0-.1,0-.15,0q-.24,0-.24-.24c-.01-1.53.14-3.04.39-4.54.28-1.67.72-3.31,1.3-4.9.82-2.25,1.91-4.37,3.26-6.35,1.17-1.71,2.51-3.28,4.02-4.7,1.56-1.47,3.27-2.75,5.12-3.84,2.29-1.35,4.72-2.35,7.29-3.02,1.3-.34,2.61-.58,3.95-.73.94-.11,1.89-.13,2.83-.18h.64c.06.08.15.05.23.05.29,0,.59,0,.88,0,.53,0,1.05.06,1.57.11,1.12.11,2.23.29,3.33.53,2.14.47,4.2,1.13,6.18,2.07,2.34,1.1,4.48,2.5,6.42,4.2,2.36,2.07,4.32,4.46,5.87,7.2,1.51,2.68,2.53,5.54,3.12,8.56.24,1.23.42,2.46.5,3.71.08,1.31.1,2.62.02,3.92-.18,3.08-.87,6.05-2.03,8.9-1.14,2.8-2.69,5.36-4.65,7.67-2.93,3.46-6.48,6.08-10.64,7.86-2.02.86-4.11,1.48-6.28,1.85-1.09.18-2.18.31-3.28.37-.45.02-.9.04-1.36.04-.19,0-.19,0-.19-.19,0-.06,0-.12,0-.17,0-3.45,0-6.9,0-10.35,0-.35.04-.31-.32-.31-3.44,0-6.88,0-10.32,0-.11,0-.21,0-.32,0,0,0,0,0,0,0Z"/><path class="cls-1" d="M9.05,46.04c2.83,0,5.67,0,8.5,0,0,0,0,0,0,0,0,2.71,0,5.43,0,8.14,0,.35.04.32-.31.32-2.62,0-5.23,0-7.85,0-.02,0-.03,0-.05,0-.27,0-.27,0-.27-.27,0-2.63,0-5.26,0-7.9,0-.1,0-.2-.01-.29,0,0,0,0,0,0Z"/><path class="cls-2" d="M9.01,46.03c-.08,0-.16,0-.25,0-2.16,0-4.31,0-6.47,0-.34,0-.3.03-.3-.31,0-2.16,0-4.31,0-6.47,0-.33-.04-.3.31-.3,2.15,0,4.29,0,6.44,0,.36,0,.32-.04.32.31,0,2.16,0,4.31,0,6.47,0,.08,0,.16-.01.25-.02.01-.04.03-.05.04Z"/><path class="cls-1" d="M9.01,46.03s.04-.03.05-.04c0,.02,0,.03,0,.05,0,0,0,0,0,0-.02,0-.03,0-.05,0Z"/></g></svg>