<?xml version="1.0" encoding="UTF-8"?><svg id="Capa_2" xmlns="http://www.w3.org/2000/svg" viewBox="0 0 43.31 65"><defs><style>.cls-1{fill:#e07163;}.cls-1,.cls-2,.cls-3,.cls-4,.cls-5{stroke-width:0px;}.cls-2{fill:#6cbafb;}.cls-3{fill:#9159fa;}.cls-4{fill:#75cd86;}.cls-5{fill:#d24f26;}</style></defs><g id="figma"><path class="cls-5" d="M9.84,21.66c-.79-.16-1.6-.25-2.37-.52C3.28,19.62.77,16.66.12,12.23-.74,6.43,3.45.9,9.32.11c.09-.01.18,0,.21-.11h12.13c0,6.77,0,13.54,0,20.31,0,.45-.01.9-.02,1.35-3.93,0-7.87,0-11.8,0Z"/><path class="cls-1" d="M21.64,21.66c0-.45.02-.9.02-1.35,0-6.77,0-13.54,0-20.31h11.91c.07.11.19.09.29.1,4.21.63,7.09,2.96,8.74,6.86.37.86.46,1.8.72,2.69v2.49c-.14.08-.09.22-.12.34-.83,4.31-3.27,7.23-7.43,8.69-.73.26-1.51.32-2.25.51-.78-.08-1.55.11-2.33.09-.06-.03-.12-.08-.18-.08-3.11,0-6.22.01-9.34.02l-.02-.04Z"/><path class="cls-2" d="M31.18,21.76c.78.02,1.55-.17,2.33-.09.12.04.24.09.36.1,4.39.53,8.06,3.79,9.11,8.09.12.48.22.97.33,1.45v2.49c-.24.53-.26,1.11-.41,1.66-1.13,4.13-4.81,7.26-9.05,7.79-5.82.73-11.09-3.23-12.06-9-.02-.14-.03-.29-.04-.43-.15-.88-.15-1.75,0-2.63.48-4.58,4.23-8.85,9.43-9.44Z"/><path class="cls-3" d="M21.75,31.2c-.15.88-.15,1.75,0,2.63-.18.18-.09.41-.09.61-.01,2.97-.02,5.94-.02,8.91-3.94,0-7.88,0-11.82,0-.56-.11-1.13-.21-1.69-.35C3.8,41.9.63,38.26.1,33.82c-.71-5.94,3.41-11.27,9.33-12.04.14-.02.28-.07.41-.11,3.93,0,7.87,0,11.8,0,0,0,.02.04.02.04,0,3,0,6,0,8.99,0,.17-.08.36.09.51Z"/><path class="cls-4" d="M9.82,43.35c3.94,0,7.88,0,11.82,0,0,3.83.09,7.66-.01,11.48-.14,5.09-4.34,9.52-9.4,10.09-5.93.67-11.07-3.1-12.07-8.97-1.04-6.1,3.28-11.75,9.25-12.49.14-.02.28-.07.42-.1Z"/></g></svg>