<?xml version="1.0" encoding="UTF-8"?><svg id="Capa_2" xmlns="http://www.w3.org/2000/svg" viewBox="0 0 57.5 50.88"><defs><style>.cls-1{fill:#282828;}.cls-1,.cls-2{stroke-width:0px;}.cls-3{fill:#d0d0d5;stroke-width:2px;}.cls-3,.cls-4{stroke:#000;stroke-miterlimit:10;}.cls-4{fill:#eedbcc;stroke-width:3px;}.cls-2{fill:#171817;}</style></defs><g id="honest"><path class="cls-4" d="M20.89,40.38l10.98-.3s.76-.24,1.19-.59c1.09-.9,1.78-2.38,1.19-3.86-.35-.87-1.78-1.78-2.38-1.78-7.94,0-13.98-.39-16.92,0-2.81.37-4.6,1.16-5.94,2.38-.27.25-.48.46-.59.59v10.39l2.08.3c9.41-.37,13.82-.24,16.03,0,.29.03,1.06.12,2.08,0,3.16-.38,6.83-3.27,6.83-3.27l19.89-12.77c.13-.17.92-1.27.59-2.67-.29-1.24-1.32-2.17-2.38-2.38-1.08-.21-2.03.38-2.38.59-2.34,1.45-8.98,4.99-16.63,9.8-.06.15-.14.99-.3,1.19-.26.34-.75,1.21-1.19,1.48-.48.3-1.19.59-1.19.59l-10.98.3Z"/><rect class="cls-3" x="1" y="32.66" width="7.42" height="17.22" rx="1.64" ry="1.64"/><circle class="cls-2" cx="4.71" cy="36.37" r="1.93"/><path class="cls-1" d="M38.31,16.33l-2.18-10.09h1.67c.33,0,.61-.27.61-.61v-.12c0-.33-.27-.61-.61-.61h-12.21c-.26-.82-.91-1.46-1.73-1.73V.62c0-.34-.28-.62-.62-.62h-.55c-.34,0-.62.28-.62.62v2.61c-.75.29-1.33.9-1.58,1.67h-12.36c-.33,0-.61.27-.61.61v.12c0,.33.27.61.61.61h1.94l-2.15,9.95h-2.03v.8c0,2.84,2.3,5.14,5.14,5.14h.4c2.84,0,5.14-2.3,5.14-5.14v-.8h-1.43l-2.15-9.95h7.42c.18.9.81,1.64,1.66,1.97v18.99h-2.52c-1.72,0-3.12,1.4-3.12,3.12v.38h13.36v-.38c0-1.72-1.4-3.12-3.12-3.12h-2.82V8.26c.92-.29,1.62-1.07,1.8-2.02h7.6l-2.18,10.09h-1.58v.8c0,2.84,2.3,5.14,5.14,5.14h.4c2.84,0,5.14-2.3,5.14-5.14v-.8h-1.88ZM13.09,16.18h-3.1l1.55-8.19,1.55,8.19ZM23.04,7.05c-.74,0-1.34-.6-1.34-1.34s.6-1.34,1.34-1.34,1.34.6,1.34,1.34-.6,1.34-1.34,1.34ZM33.15,16.33l1.55-8.19,1.55,8.19h-3.1Z"/></g></svg>