<?xml version="1.0" encoding="UTF-8"?><svg id="Capa_1" xmlns="http://www.w3.org/2000/svg" viewBox="0 0 60.73 68.77"><defs><style>.cls-1{fill:none;stroke:#4778bc;stroke-miterlimit:10;}</style></defs><polygon class="cls-1" points="54.45 61.09 30.02 68.25 5.55 61.09 .54 .5 60.18 .5 54.45 61.09"/><polygon class="cls-1" points="56.24 4.73 30.35 4.73 30.35 4.85 4.54 4.85 9.51 57.44 30.06 63.46 30.06 63.54 30.19 63.5 30.72 63.66 30.72 63.35 51.27 57.33 56.24 4.73"/><polygon class="cls-1" points="30.36 20.08 48.01 20.24 48.49 12.6 30.36 12.6 30.32 12.6 11.53 12.6 13.68 35.03 30.36 34.87 30.36 34.87 38.71 34.79 38.23 44.33 30.32 46.29 21.79 44.57 21.31 38.61 13.68 38.61 14.87 50.29 30.32 54.81 30.32 54.83 30.34 54.82 30.36 54.83 30.36 54.82 45.15 50.77 47.3 27.63 30.36 27.63 30.32 27.63 20.36 27.63 19.88 20 30.36 20.09 30.36 20.08"/></svg>