<?xml version="1.0" encoding="UTF-8"?><svg id="Capa_1" xmlns="http://www.w3.org/2000/svg" viewBox="0 0 59.64 67.75"><defs><style>.cls-1{fill:#e45026;}.cls-1,.cls-2,.cls-3,.cls-4{stroke-width:0px;}.cls-2{fill:#ec672c;}.cls-3{fill:#ecedef;}.cls-4{fill:#fff;}</style></defs><polygon class="cls-1" points="53.91 60.59 29.48 67.75 5.01 60.59 0 0 59.64 0 53.91 60.59"/><polygon class="cls-2" points="50.73 56.83 29.52 63.04 29.8 4.23 55.7 4.23 50.73 56.83"/><polygon class="cls-1" points="8.97 56.94 30.18 63.16 29.89 4.35 4 4.35 8.97 56.94"/><polyline class="cls-3" points="29.82 27.13 19.81 27.13 19.34 19.5 29.82 19.59 29.82 12.1 10.99 12.1 13.13 34.53 29.82 34.37"/><polyline class="cls-3" points="29.77 45.79 21.24 44.07 20.77 38.11 13.13 38.11 14.33 49.79 29.82 54.33"/><polyline class="cls-4" points="29.77 34.37 38.17 34.29 37.69 43.83 29.77 45.79 29.77 54.33 44.61 50.27 46.75 27.13 29.77 27.13 29.77 27.13"/><polyline class="cls-4" points="29.77 19.58 47.47 19.74 47.95 12.1 29.77 12.1"/></svg>