<?xml version="1.0" encoding="UTF-8"?><svg id="Capa_2" xmlns="http://www.w3.org/2000/svg" viewBox="0 0 54.12 52.93"><defs><style>.cls-1{fill:#e49724;}.cls-1,.cls-2{stroke-width:0px;}.cls-2{fill:#2e0000;}</style></defs><g id="illustrator"><path class="cls-2" d="M0,45.3V7.63c.19-.02.24-.17.29-.32C1.4,3.49,3.87,1.1,7.76.18c.05-.01.07-.12.11-.18,12.72,0,25.43,0,38.15,0,.03.19.17.21.34.24,3.69.76,6.07,2.98,7.31,6.49.14.38.06.86.46,1.14v37.43c-.44.2-.36.65-.49,1-1.04,2.93-3,4.95-5.9,6.07-.56.22-1.21.16-1.72.56H7.63c-.05-.31-.34-.3-.55-.36-3.46-1.03-5.68-3.28-6.71-6.72-.06-.21-.06-.49-.37-.54ZM30.76,37.42c.6,0,1.19-.02,1.79,0,.65.03.96-.06.68-.86-2.65-7.43-5.27-14.86-7.88-22.3-.17-.48-.37-.72-.91-.71-1.63.03-3.26.01-4.89,0-.37,0-.69-.02-.74.52-.23,2.36-1.28,4.48-2.02,6.69-1.76,5.22-3.57,10.42-5.4,15.61-.28.79-.2,1.09.7,1.04,1.03-.06,2.07-.04,3.1,0,.61.02.93-.17,1.1-.79.35-1.26.84-2.48,1.17-3.74.23-.86.62-1.23,1.55-1.17,1.26.09,2.54.01,3.81.03,1.11.01,2.49-.34,3.24.19.75.53.87,1.96,1.23,3q.87,2.46,3.46,2.47ZM35.77,28.26c0,2.74.02,5.48-.01,8.22,0,.72.21.99.95.95,1.07-.05,2.14-.04,3.21,0,.66.03.9-.19.9-.87-.02-5.48-.02-10.96,0-16.43,0-.61-.19-.85-.82-.82-1.03.04-2.07.06-3.09,0-.87-.06-1.17.18-1.15,1.11.06,2.62.02,5.24.02,7.86ZM38.25,17.41c1.7.02,2.94-1.2,2.93-2.89,0-1.59-1.16-2.76-2.76-2.81-1.63-.05-2.87,1.15-2.9,2.78-.02,1.72,1.07,2.9,2.72,2.92Z"/><path class="cls-1" d="M30.76,37.42q-2.6,0-3.46-2.47c-.37-1.04-.49-2.47-1.23-3-.75-.53-2.13-.18-3.24-.19-1.27-.01-2.55.06-3.81-.03-.94-.07-1.33.31-1.55,1.17-.33,1.26-.82,2.48-1.17,3.74-.17.62-.49.81-1.1.79-1.03-.04-2.07-.05-3.1,0-.91.05-.98-.26-.7-1.04,1.83-5.2,3.64-10.4,5.4-15.61.74-2.21,1.79-4.33,2.02-6.69.05-.54.37-.52.74-.52,1.63,0,3.26.02,4.89,0,.54,0,.75.23.91.71,2.61,7.44,5.23,14.87,7.88,22.3.28.79-.03.89-.68.86-.59-.03-1.19,0-1.79,0ZM22.02,18.03c-.9,2.89-1.77,5.68-2.65,8.47-.18.55.01.69.54.69,1.31-.02,2.62-.07,3.92.01,1,.07.98-.32.73-1.07-.87-2.67-1.69-5.35-2.55-8.09Z"/><path class="cls-1" d="M35.77,28.26c0-2.62.04-5.24-.02-7.86-.02-.93.28-1.17,1.15-1.11,1.03.07,2.06.05,3.09,0,.63-.03.82.21.82.82-.02,5.48-.02,10.96,0,16.43,0,.68-.24.9-.9.87-1.07-.04-2.15-.05-3.21,0-.74.04-.96-.23-.95-.95.03-2.74.01-5.48.01-8.22Z"/><path class="cls-1" d="M38.25,17.41c-1.65-.02-2.74-1.19-2.72-2.92.02-1.63,1.27-2.83,2.9-2.78,1.6.05,2.76,1.22,2.76,2.81,0,1.69-1.23,2.91-2.93,2.89Z"/><path class="cls-2" d="M22.02,18.03c.86,2.74,1.68,5.43,2.55,8.09.24.75.27,1.14-.73,1.07-1.3-.09-2.61-.04-3.92-.01-.53,0-.72-.13-.54-.69.88-2.78,1.75-5.57,2.65-8.47Z"/></g></svg>