<?xml version="1.0" encoding="UTF-8"?><svg id="Capa_2" xmlns="http://www.w3.org/2000/svg" viewBox="0 0 58.98 67"><defs><style>.cls-1{fill:#e9ca32;}.cls-1,.cls-2,.cls-3{stroke-width:0px;}.cls-2{fill:#ffdd24;}.cls-3{fill:#fff;}</style></defs><g id="js"><polygon class="cls-1" points="53.32 59.92 29.15 67 4.95 59.92 0 0 58.98 0 53.32 59.92"/><polygon class="cls-2" points="50.17 56.2 29.2 62.34 29.48 4.19 55.09 4.19 50.17 56.2"/><polygon class="cls-1" points="8.87 56.32 29.84 62.46 29.56 4.3 3.95 4.3 8.87 56.32"/><polygon class="cls-3" points="31.67 11.74 50.12 12.24 49.62 18.72 38.15 18.72 38.15 29.69 48.62 28.69 47.13 49.63 31.67 53.61 31.42 46.88 41.39 44.39 42.39 35.92 31.42 37.41 31.67 11.74"/><polygon class="cls-3" points="20.46 11.99 26.94 11.99 26.94 53.86 8.99 48.88 8.99 41.9 20.46 44.89 20.46 11.99"/></g></svg>