<?xml version="1.0" encoding="UTF-8"?><svg id="Capa_2" xmlns="http://www.w3.org/2000/svg" viewBox="0 0 57 58.71"><defs><style>.cls-1{fill:#dc342a;stroke-width:0px;}</style></defs><g id="Laravel"><path class="cls-1" d="M57,13.11v13.4c-.32.23-.63.49-.97.68-3.14,1.82-6.27,3.64-9.43,5.42-.48.27-.64.57-.63,1.11.03,3.56-.01,7.12.03,10.68.01.87-.29,1.36-1.05,1.8-7.25,4.15-14.48,8.34-21.72,12.51h-.57c-.15-.23-.42-.3-.64-.42-7.02-4.05-14.03-8.09-21.05-12.14-.34-.2-.65-.46-.97-.69C0,32.59,0,19.71,0,6.84c.39-.25.76-.53,1.17-.76,3.19-1.85,6.39-3.69,9.57-5.54.28-.16.6-.26.8-.54.24,0,.48,0,.71,0,3.58,2.08,7.15,4.17,10.75,6.21.66.38.93.82.93,1.58-.02,7.38-.01,14.76-.01,22.14v.86c.16-.05.24-.06.29-.09,2.83-1.63,5.66-3.28,8.5-4.89.37-.21.37-.49.37-.82,0-3.68,0-7.36-.01-11.04,0-.66.21-1.1.8-1.44,3.46-1.96,6.91-3.95,10.35-5.95.59-.34,1.06-.34,1.64,0,3.36,1.96,6.73,3.89,10.1,5.82.37.21.71.45,1.03.72ZM22.02,56.07c.02-.07.04-.13.04-.19,0-3.28,0-6.55.02-9.83,0-.43-.23-.57-.53-.73-3.18-1.8-6.34-3.62-9.54-5.38-.75-.41-1.02-.91-1.01-1.75.02-7.79.01-15.57.02-23.36,0-.48-.11-.76-.56-1.01-2.69-1.51-5.35-3.06-8.03-4.58-.17-.1-.32-.3-.58-.19,0,.12-.02.24-.02.35,0,11.54,0,23.08-.01,34.61,0,.47.21.66.56.86,6.35,3.65,12.7,7.31,19.04,10.96.18.1.34.26.59.25ZM12.86,37.22c3.06-1.77,6-3.46,8.94-5.14.37-.21.27-.52.27-.81,0-7.21,0-14.43.01-21.64,0-.58-.03-.77-.65-.41-2.66,1.56-5.33,3.09-8.02,4.59-.44.25-.56.53-.56,1,.01,7.21,0,14.43,0,21.64,0,.21,0,.41,0,.75ZM23.92,56.12c.19-.08.26-.1.32-.14,6.49-3.74,12.98-7.48,19.47-11.21.34-.2.44-.42.44-.79-.01-3.09-.02-6.17,0-9.26,0-.63-.18-.59-.63-.33-6.36,3.64-12.71,7.27-19.08,10.88-.42.24-.54.5-.53.95.03,1.76.01,3.51.01,5.27,0,1.51,0,3.03,0,4.62ZM13.91,38.86c2.83,1.6,5.66,3.19,8.47,4.81.45.26.77.24,1.21-.02,6.31-3.62,12.64-7.23,18.95-10.84.19-.11.45-.15.52-.44-2.82-1.62-5.64-3.23-8.45-4.87-.45-.26-.76-.26-1.21,0-6.28,3.63-12.57,7.24-18.86,10.86-.22.13-.49.19-.63.48ZM34.93,15.1c0,3.47,0,6.79,0,10.11,0,.37.21.48.46.63,2.73,1.57,5.46,3.14,8.19,4.74.46.27.58.23.58-.33-.02-3.11-.02-6.22,0-9.33,0-.4-.15-.59-.47-.77-1.42-.81-2.83-1.64-4.25-2.46-1.45-.84-2.91-1.67-4.5-2.58ZM2.77,7.27c3.05,1.76,5.99,3.45,8.91,5.15.3.18.49.03.71-.1,2.79-1.61,5.58-3.22,8.37-4.84.09-.05.23-.08.24-.23-.02-.04-.04-.09-.07-.11-2.87-1.66-5.75-3.31-8.62-4.96-.23-.13-.43-.14-.66,0-2.91,1.68-5.83,3.35-8.86,5.09ZM54.23,13.5c-3.01-1.73-5.91-3.39-8.8-5.07-.33-.19-.55-.11-.84.06-2.69,1.55-5.38,3.09-8.08,4.64-.19.11-.37.23-.63.39,3.04,1.75,5.99,3.45,8.94,5.17.28.16.44,0,.64-.12,1.48-.85,2.96-1.7,4.43-2.56,1.41-.82,2.82-1.63,4.33-2.51ZM45.98,30.8c.18-.06.25-.07.31-.1,2.83-1.63,5.66-3.27,8.5-4.89.33-.19.37-.43.37-.75,0-3.09-.01-6.17,0-9.26,0-.55-.09-.66-.6-.36-2.7,1.58-5.41,3.14-8.12,4.69-.36.21-.48.45-.47.85.02,1.02,0,2.04,0,3.06,0,2.23,0,4.46,0,6.76Z"/></g></svg>