<?xml version="1.0" encoding="UTF-8"?><svg id="Capa_2" xmlns="http://www.w3.org/2000/svg" viewBox="0 0 54.1 52.76"><defs><style>.cls-1{fill:#142338;}.cls-1,.cls-2,.cls-3{stroke-width:0px;}.cls-2{fill:#497ffb;}.cls-3{fill:#65a5fa;}</style></defs><g id="photoshop"><path class="cls-2" d="M12.34,8.1c-.13,0-.26,0-.39,0-.03,0-.07.01-.1-.02h.49s-.01.01,0,.02Z"/><path class="cls-1" d="M0,44.01V8.7c.12-.25.1-.53.15-.79C.8,4,4,.8,7.91.14c.25-.04.51-.01.74-.14h36.7c.27.1.56.1.84.15,3.91.65,7.12,3.86,7.76,7.77.04.26.02.54.15.79v35.36c-.12.24-.1.51-.14.76-.69,3.98-3.8,7.09-7.79,7.79-.27.05-.55.04-.81.14H8.65c-.02-.07-.08-.05-.13-.06-.36-.06-.73-.11-1.09-.19-3.71-.82-6.67-3.94-7.29-7.66-.05-.28-.04-.57-.15-.85ZM12.17,25.4c0,3.81,0,7.62,0,11.43,0,.43.04.47.47.48,1.3,0,2.59,0,3.89,0,.5,0,.54-.04.54-.54,0-2.25,0-4.5,0-6.74,0-.21.05-.29.27-.27.3.03.6.02.9.03,1.81.05,3.6-.02,5.35-.54,2.17-.64,3.85-1.9,4.85-3.95.75-1.55.91-3.21.7-4.9-.31-2.46-1.5-4.36-3.67-5.61-1.6-.92-3.36-1.27-5.17-1.33-2.01-.07-4.01.03-6.02.07-.59.01-1.18.03-1.78.03-.23,0-.33.1-.32.32,0,.08,0,.15,0,.23,0,3.77,0,7.53,0,11.3ZM31.62,34.38c0,.61,0,1.22,0,1.83,0,.31.11.5.4.61.26.09.51.21.77.3,1.32.44,2.69.62,4.07.65,1.51.04,3-.1,4.41-.7,1.98-.84,3.2-2.29,3.42-4.47.21-2.02-.54-3.6-2.24-4.72-.72-.48-1.49-.87-2.29-1.21-.89-.37-1.81-.68-2.67-1.14-.3-.16-.58-.33-.81-.58-.56-.6-.33-1.48.46-1.72.3-.09.61-.16.93-.17,1.79-.05,3.52.21,5.14,1.01.09.04.17.07.27.07.2,0,.32-.09.32-.31,0-1.21,0-2.42,0-3.63,0-.24-.1-.43-.36-.5-.19-.05-.37-.14-.56-.19-2.02-.53-4.06-.64-6.12-.33-1.34.21-2.54.76-3.53,1.71-1.83,1.74-2.2,4.96-.35,7.01.74.82,1.66,1.36,2.63,1.86.89.46,1.86.75,2.77,1.17.41.19.83.37,1.17.69.65.61.49,1.45-.33,1.79-.44.18-.91.24-1.38.25-2.02.04-3.93-.39-5.7-1.37-.31-.17-.41-.12-.41.25,0,.62,0,1.24,0,1.85Z"/><path class="cls-3" d="M12.17,25.4c0-3.77,0-7.53,0-11.3,0-.08,0-.15,0-.23,0-.22.09-.32.32-.32.59,0,1.18-.02,1.78-.03,2.01-.04,4.01-.14,6.02-.07,1.82.06,3.58.41,5.17,1.33,2.17,1.25,3.36,3.15,3.67,5.61.21,1.69.05,3.35-.7,4.9-1,2.06-2.69,3.31-4.85,3.95-1.75.52-3.54.59-5.35.54-.3,0-.6,0-.9-.03-.22-.02-.27.06-.27.27,0,2.25,0,4.5,0,6.74,0,.5-.04.54-.54.54-1.3,0-2.59,0-3.89,0-.42,0-.47-.04-.47-.48,0-3.81,0-7.62,0-11.43ZM17.09,21.67c0,1.18,0,2.37,0,3.55,0,.18.03.26.24.28.61.04,1.22.03,1.82.03.91,0,1.8-.13,2.65-.42,1.43-.49,2.34-1.42,2.47-2.98.09-1.03-.06-2-.73-2.84-.54-.67-1.26-1-2.07-1.21-1.39-.36-2.81-.17-4.22-.19-.18,0-.17.12-.17.24,0,1.18,0,2.37,0,3.55Z"/><path class="cls-3" d="M31.62,34.38c0-.62,0-1.24,0-1.85,0-.36.1-.42.41-.25,1.77.99,3.68,1.42,5.7,1.37.47-.01.94-.07,1.38-.25.82-.34.98-1.18.33-1.79-.34-.32-.75-.5-1.17-.69-.91-.42-1.88-.7-2.77-1.17-.96-.5-1.88-1.04-2.63-1.86-1.85-2.05-1.47-5.27.35-7.01.99-.95,2.19-1.5,3.53-1.71,2.06-.32,4.1-.2,6.12.33.19.05.37.14.56.19.26.07.36.26.36.5,0,1.21,0,2.42,0,3.63,0,.22-.12.3-.32.31-.1,0-.18-.03-.27-.07-1.62-.8-3.35-1.06-5.14-1.01-.32,0-.63.08-.93.17-.79.24-1.01,1.12-.46,1.72.23.25.52.42.81.58.86.46,1.78.76,2.67,1.14.8.33,1.57.73,2.29,1.21,1.7,1.12,2.45,2.7,2.24,4.72-.23,2.18-1.44,3.63-3.42,4.47-1.41.6-2.9.74-4.41.7-1.38-.03-2.75-.21-4.07-.65-.26-.09-.51-.2-.77-.3-.29-.1-.41-.3-.4-.61.01-.61,0-1.22,0-1.83Z"/><path class="cls-1" d="M17.09,21.67c0-1.18,0-2.37,0-3.55,0-.13-.01-.24.17-.24,1.41.02,2.83-.17,4.22.19.8.21,1.53.54,2.07,1.21.67.84.82,1.8.73,2.84-.13,1.57-1.05,2.5-2.47,2.98-.86.29-1.75.42-2.65.42-.61,0-1.22.02-1.82-.03-.21-.01-.24-.09-.24-.28,0-1.18,0-2.37,0-3.55Z"/></g></svg>