<?xml version="1.0" encoding="UTF-8"?><svg id="Capa_2" xmlns="http://www.w3.org/2000/svg" viewBox="0 0 57.26 64.89"><defs><style>.cls-1{fill:#ebeef2;}.cls-1,.cls-2,.cls-3{stroke-width:0px;}.cls-2{fill:#272727;}.cls-3{fill:#46628e;}</style></defs><g id="postgres"><path class="cls-2" d="M56.61,12.51c-.13,5.9-1.71,11.49-3.73,16.98-.91,2.47-1.97,4.88-3.23,7.2-.42.77-.05.85.59.87,1.37.04,2.69-.24,4.02-.49,2.28-.44,3.48.89,2.81,3.09-1.21,4.02-4.18,5.72-8.11,6.11-.87.09-1.76.15-2.63.07-.8-.08-1,.2-1.06.94-.26,3.28-.5,6.58-1.11,9.82-1.1,5.87-7.37,9.33-12.95,7.15-1.87-.73-3.1-2.17-3.67-4.11-1.03-3.52-.96-7.17-1.14-10.79-.04-.91-.14-1.34-1.12-.76-.85.5-1.82.58-2.77.49-2.15-.2-4.3-.48-6.19-1.65-.42-.26-.63-.08-.95.13-2.42,1.57-4.17,1.37-6-.88-1.83-2.25-3.16-4.78-4.14-7.56-1.38-3.91-2.57-7.86-3.57-11.87C.45,22.31-.41,17.34.2,12.24c.49-4.12,2.29-7.55,5.94-9.6,2.36-1.32,5.12-1.65,7.88-1.4,2.49.23,4.95.59,7.32,1.41.46.16.83.14,1.25-.1,3-1.77,6.25-2.09,9.55-1.34,1.82.41,3.28-.51,4.9-.8,6.62-1.18,12.49-.01,17.26,5.11,1.88,2.02,2.38,4.37,2.31,6.98ZM27.98,45.37c.02,1.83.02,3.35.06,4.87.05,2.45.09,4.92.6,7.33.73,3.46,2.65,5.43,5.51,5.49,3.54.07,7.75-1.41,8.64-6.47.11-.61.22-1.23.29-1.85.33-2.99.67-5.97.96-8.96.09-.88.29-1.23,1.34-1.14,3.5.29,6.71-.49,9.24-3.12.64-.66,1.27-1.44.73-2.44-.53-.99-1.48-.78-2.35-.6-1.26.26-2.51.53-3.81.49-1.98-.05-2.12-.32-1.21-2.03,3.59-6.75,6.1-13.85,6.91-21.5.75-7.08-2.24-10.66-8.83-12.78-3.53-1.14-7.19-.87-10.73.19-1.1.33-2.12.32-3.23.18-3.13-.39-6.24-.4-8.95,1.61-.45.33-.85.28-1.33.13-1.12-.36-2.23-.72-3.37-.98-3.52-.79-7.03-1.03-10.5.28-2.23.84-3.86,2.34-4.82,4.53-1.65,3.75-1.76,7.71-1.21,11.66.83,6,2.3,11.87,4.36,17.57.92,2.55,1.94,5.07,3.74,7.17,2.06,2.41,4.22,2.38,6.23-.1,1.36-1.67,2.66-3.4,4.01-5.09.23-.29.43-.79.94-.57.89.38,1.83.61,2.79.85-.63,1.46-1.71,2.16-3.1,2.5-.6.14-1.2.32-1.79.52-.8.27-1.49.69-1.56,1.64-.07.93.52,1.51,1.25,1.91,1.53.83,3.17,1.06,4.89.83,1.53-.2,2.83-.9,4.29-2.1Z"/><path class="cls-1" d="M27.98,45.37c-1.46,1.21-2.77,1.9-4.29,2.1-1.72.23-3.36,0-4.89-.83-.73-.4-1.32-.97-1.25-1.91.07-.95.77-1.37,1.56-1.64.59-.2,1.18-.38,1.79-.52,1.39-.33,2.48-1.04,3.1-2.5-.96-.24-1.89-.47-2.79-.85-.51-.22-.71.29-.94.57-1.35,1.69-2.64,3.41-4.01,5.09-2.01,2.48-4.17,2.51-6.23.1-1.79-2.1-2.82-4.62-3.74-7.17-2.06-5.7-3.53-11.57-4.36-17.57-.55-3.95-.45-7.91,1.21-11.66.96-2.19,2.59-3.69,4.82-4.53,3.46-1.31,6.98-1.07,10.5-.28,1.14.26,2.26.62,3.37.98.48.15.89.21,1.33-.13,2.71-2.01,5.81-2,8.95-1.61,1.11.14,2.13.15,3.23-.18,3.55-1.06,7.2-1.33,10.73-.19,6.59,2.12,9.58,5.7,8.83,12.78-.81,7.66-3.32,14.75-6.91,21.5-.91,1.71-.77,1.98,1.21,2.03,1.29.03,2.55-.23,3.81-.49.87-.18,1.81-.39,2.35.6.54,1-.09,1.78-.73,2.44-2.53,2.63-5.74,3.41-9.24,3.12-1.05-.09-1.26.27-1.34,1.14-.29,2.99-.63,5.97-.96,8.96-.07.62-.18,1.23-.29,1.85-.89,5.06-5.11,6.54-8.64,6.47-2.86-.06-4.78-2.04-5.51-5.49-.51-2.41-.55-4.87-.6-7.33-.03-1.52-.04-3.04-.06-4.87ZM29.63,48.45s-.05,0-.07,0c.12,2.16.22,4.32.36,6.47.09,1.32.28,2.62.89,3.83.97,1.95,2.27,2.7,4.42,2.5,3.68-.35,5.7-2.34,6.18-6.1.57-4.43,1.05-8.87,1.3-13.33.07-1.37.41-2.63,1.75-3.33.53-.28.4-.59.13-.96-1.63-2.32-2.68-4.96-3.93-7.47-1.21-2.43-2.2-4.96-2.33-7.73-.14-3.12,1.4-4.93,4.43-5.36.74-.1,1.82.43,2.15-.39.27-.68-.47-1.48-.85-2.19-2.56-4.84-6.15-8.46-11.76-9.51-3.67-.68-7.14-.24-9.83,2.64-2.85,3.05-3.62,6.94-4.1,10.91-.07.62.3.56.69.33.86-.51,1.79-.85,2.75-1.09,2.75-.68,4.85.23,5.82,2.58.3.73.38,1.56.55,2.34.93,4.4.59,8.66-1.27,12.78-.33.73-.5,1.53-.74,2.29-.12.39-.2.73.39.75,1.85.07,3.04,2.17,3.03,3.87,0,2.05.04,4.1.06,6.15ZM3.32,17.27c.03.44.05,1.28.17,2.12.88,6.26,2.36,12.37,4.56,18.29.76,2.06,1.61,4.1,3.02,5.83,1.47,1.8,2.64,1.78,4.08-.03,1.27-1.61,2.53-3.23,3.81-4.82.35-.44.43-.79,0-1.24-2.09-2.25-2.7-4.98-2.41-7.94.22-2.31.19-4.61.1-6.92-.21-5.61.55-10.97,4-15.64.31-.42.24-.64-.25-.79-2.9-.83-5.83-1.48-8.87-1.09-3.88.5-6.43,2.58-7.53,6.38-.52,1.78-.65,3.6-.66,5.84ZM46.2,36.48c.55-1.44,1.52-2.66,2.16-4.07,1.58-3.48,2.85-7.07,3.77-10.76.77-3.1,1.33-6.23,1.14-9.46-.08-1.41-.52-2.6-1.47-3.68-2.39-2.73-5.38-4.23-8.95-4.6-1.92-.2-3.84-.11-5.71.32,0,.48.31.54.51.65,2.91,1.65,5.12,4.01,6.87,6.81,1.78,2.84,3.09,5.8,2.43,9.32-.5,2.69-.26,5.4.04,8.1.2,1.75.16,3.49-.33,5.22-.19.69-.7,1.29-.47,2.16ZM18.16,30.52c.04.57.05,1.16.12,1.74.36,2.69,2.45,5.14,4.82,5.7.76.18,1.26.07,1.44-.81.16-.75.36-1.51.69-2.19,2.06-4.34,2.08-8.82,1.03-13.4-.3-1.33-1.05-2.09-2.39-2.19-2-.15-3.7.68-5.28,1.81-.31.22-.32.55-.3.89.18,2.82.13,5.63-.14,8.45ZM40,22.11c.06,1.11.28,2.33.68,3.52.95,2.86,2.44,5.48,3.72,8.18.08.16.11.38.33.39.29,0,.32-.24.38-.45.35-1.25.37-2.54.24-3.82-.34-3.43-.6-6.86.07-10.28.07-.34.05-.63-.35-.81-2.29-.98-5,.68-5.07,3.26ZM22.23,45.68c2.41-.02,4.06-.88,5.23-2.61.61-.9.43-2-.37-2.52-1.01-.65-1.44.23-1.79.83-1.06,1.76-2.6,2.71-4.57,3.06-.21.04-.43.1-.63.18-.12.05-.28.15-.32.26-.07.22.15.31.31.37.8.29,1.61.46,2.15.43ZM53.01,40.39c-.2-.02-.3-.06-.4-.04-2.17.43-4.31.75-6.41-.4-.66-.36-1.58.42-1.77,1.34-.22,1.05.02,1.4,1.12,1.5,1.7.15,3.37-.08,4.96-.68.93-.35,1.85-.8,2.51-1.73Z"/><path class="cls-3" d="M29.63,48.45c-.02-2.05-.07-4.1-.06-6.15,0-1.7-1.17-3.79-3.03-3.87-.59-.02-.52-.37-.39-.75.25-.77.41-1.57.74-2.29,1.87-4.12,2.21-8.39,1.27-12.78-.17-.79-.25-1.61-.55-2.34-.97-2.35-3.07-3.26-5.82-2.58-.96.24-1.89.58-2.75,1.09-.39.23-.76.28-.69-.33.47-3.97,1.25-7.86,4.1-10.91,2.7-2.88,6.16-3.33,9.83-2.64,5.61,1.04,9.2,4.66,11.76,9.51.37.7,1.12,1.51.85,2.19-.33.82-1.41.29-2.15.39-3.03.43-4.57,2.24-4.43,5.36.12,2.77,1.12,5.3,2.33,7.73,1.25,2.52,2.29,5.15,3.93,7.47.27.38.4.68-.13.96-1.34.7-1.67,1.96-1.75,3.33-.24,4.46-.73,8.9-1.3,13.33-.48,3.76-2.49,5.74-6.18,6.1-2.15.21-3.45-.54-4.42-2.5-.6-1.21-.8-2.51-.89-3.83-.14-2.16-.25-4.31-.36-6.47.02,0,.05,0,.07,0Z"/><path class="cls-3" d="M3.32,17.27c0-2.24.15-4.05.66-5.84,1.1-3.8,3.65-5.88,7.53-6.38,3.04-.39,5.97.25,8.87,1.09.49.14.56.37.25.79-3.45,4.67-4.21,10.03-4,15.64.09,2.31.12,4.61-.1,6.92-.29,2.96.32,5.69,2.41,7.94.42.45.34.8,0,1.24-1.28,1.6-2.54,3.22-3.81,4.82-1.44,1.81-2.61,1.83-4.08.03-1.41-1.73-2.25-3.77-3.02-5.83-2.2-5.93-3.68-12.04-4.56-18.29-.12-.83-.13-1.68-.17-2.12Z"/><path class="cls-3" d="M46.2,36.48c-.23-.86.27-1.47.47-2.16.49-1.73.52-3.47.33-5.22-.3-2.7-.55-5.42-.04-8.1.66-3.52-.65-6.48-2.43-9.32-1.75-2.8-3.96-5.16-6.87-6.81-.19-.11-.5-.17-.51-.65,1.87-.43,3.79-.52,5.71-.32,3.57.37,6.56,1.88,8.95,4.6.95,1.08,1.39,2.28,1.47,3.68.18,3.22-.37,6.36-1.14,9.46-.92,3.7-2.19,7.29-3.77,10.76-.64,1.4-1.6,2.63-2.16,4.07Z"/><path class="cls-3" d="M18.16,30.52c.27-2.83.32-5.64.14-8.45-.02-.34,0-.67.3-.89,1.58-1.13,3.28-1.96,5.28-1.81,1.33.1,2.08.86,2.39,2.19,1.04,4.57,1.03,9.06-1.03,13.4-.33.69-.53,1.45-.69,2.19-.19.88-.68.99-1.44.81-2.37-.56-4.46-3.01-4.82-5.7-.08-.58-.09-1.17-.12-1.74ZM25.51,21.35c-.03-.6-.96-1.12-1.86-1.07-.53.03-1.06.13-1.1.81-.04.61.93,1.47,1.6,1.39.7-.07,1.23-.43,1.37-1.12Z"/><path class="cls-3" d="M40,22.11c.07-2.58,2.78-4.24,5.07-3.26.4.17.42.47.35.81-.68,3.42-.41,6.85-.07,10.28.12,1.27.1,2.56-.24,3.82-.06.21-.09.46-.38.45-.23,0-.26-.23-.33-.39-1.29-2.71-2.77-5.32-3.72-8.18-.4-1.19-.61-2.41-.68-3.52ZM42.76,19.73c-.56.14-1.45-.15-1.52.78-.05.7.59.97,1.2.97.74,0,1.29-.44,1.36-1.15.08-.74-.61-.51-1.05-.59Z"/><path class="cls-3" d="M22.23,45.68c-.54.03-1.35-.14-2.15-.43-.16-.06-.37-.15-.31-.37.03-.11.19-.2.32-.26.2-.08.42-.15.63-.18,1.97-.35,3.52-1.3,4.57-3.06.36-.6.78-1.48,1.79-.83.8.52.99,1.62.37,2.52-1.17,1.73-2.82,2.59-5.23,2.61Z"/><path class="cls-3" d="M53.01,40.39c-.65.93-1.57,1.38-2.51,1.73-1.59.6-3.26.83-4.96.68-1.1-.1-1.34-.45-1.12-1.5.19-.92,1.11-1.7,1.77-1.34,2.1,1.14,4.24.83,6.41.4.1-.02.2.02.4.04Z"/><path class="cls-1" d="M25.51,21.35c-.14.7-.67,1.05-1.37,1.12-.67.07-1.64-.79-1.6-1.39.04-.67.57-.78,1.1-.81.9-.05,1.83.47,1.86,1.07Z"/><path class="cls-1" d="M42.76,19.73c.44.09,1.13-.15,1.05.59-.08.71-.63,1.16-1.36,1.15-.61,0-1.26-.27-1.2-.97.07-.93.96-.63,1.52-.78Z"/></g></svg>