<?xml version="1.0" encoding="UTF-8"?><svg id="Capa_2" xmlns="http://www.w3.org/2000/svg" viewBox="0 0 58 58.12"><defs><style>.cls-1{fill:#a42938;}.cls-1,.cls-2,.cls-3,.cls-4,.cls-5{stroke-width:0px;}.cls-2{fill:#b01f2c;}.cls-3{fill:#ce6671;}.cls-4{fill:#bb4350;}.cls-5{fill:#991c27;}</style></defs><g id="RUBY"><path class="cls-2" d="M13.1,58.12h-1.66c-.46-.31-1-.2-1.5-.27-4.81-.62-8.23-3.61-9.4-8.27-.24-.95-.36-1.92-.42-2.89,2.12-2.61,4.23-5.22,6.35-7.84.05,0,.1,0,.15,0,.05.14.12.28.16.42,1.96,5.87,3.91,11.73,5.87,17.6.09.28.11.62.4.87.15-.46.29-.86.43-1.26,2.49-7.48,4.98-14.97,7.46-22.45.1-.01.21-.02.31-.03.1.02.2.03.29.06,3.4,1.34,6.8,2.69,10.2,4.02,3.47,1.36,6.94,2.71,10.41,4.07,0,.19-.1.33-.23.46-1.21,1.16-2.37,2.39-3.65,3.46-2.7,2.26-5.51,4.38-8.55,6.18-3.2,1.89-6.5,3.53-10.09,4.56-1.03.29-2.06.57-3.09.85-.47.05-.94.07-1.39.17-.68.15-1.41-.01-2.07.29Z"/><path class="cls-3" d="M46.52,0c.52.39,1.16-.06,1.69.26-2.62,2.08-5.23,4.15-7.85,6.23-.32-.04-.53-.27-.78-.43-1.85-1.18-3.63-2.46-5.52-3.6-1.12-.67-2.28-1.32-3.21-2.27,1.17-.02,2.34-.05,3.51-.05,3.27,0,6.54,0,9.81,0,.28,0,.6.13.84-.14h1.51Z"/><path class="cls-3" d="M0,44.87c.28-.24.14-.56.14-.84,0-4.6,0-9.19,0-13.79,0-.3.03-.6.04-.89.41.03.49.41.65.66,1.55,2.36,3.09,4.72,4.61,7.1.36.56.87,1.04,1.01,1.73-2.12,2.61-4.23,5.22-6.35,7.84-.04.03-.08.03-.12,0v-1.81Z"/><path class="cls-4" d="M6.47,38.84c-.15-.69-.65-1.17-1.01-1.73-1.53-2.37-3.06-4.74-4.61-7.1-.17-.25-.24-.63-.65-.66-.08-.33.12-.57.27-.83,1.94-3.39,3.88-6.78,5.81-10.18.21-.38.47-.7.78-1.01,3.43-3.42,6.85-6.84,10.27-10.27.32-.32.68-.57,1.09-.78,3.88-1.93,7.74-3.87,11.62-5.81.26-.13.5-.36.83-.28.93.95,2.1,1.59,3.21,2.27,1.89,1.13,3.67,2.42,5.52,3.6.25.16.46.39.78.43,0,.04-.01.07-.01.11-.05.14-.11.28-.16.42-1.55,4.64-3.11,9.28-4.66,13.92,0,.04,0,.09,0,.13-.98.85-1.96,1.7-2.93,2.56-1.49,1.32-2.98,2.66-4.47,3.99-2.18,1.94-4.36,3.88-6.54,5.82-.16.14-.37.28-.34.55-.1.01-.21.02-.31.03-.19.04-.39.06-.58.12-4.39,1.46-8.78,2.92-13.17,4.38-.21.07-.43.12-.58.32-.05,0-.1,0-.15,0Z"/><path class="cls-1" d="M54.62,54.65c-.6.31-1.26.21-1.88.26-7.51.59-15.03,1.15-22.55,1.72-4.22.32-8.44.67-12.66.99-.32.03-.65.02-.97.02,1.03-.28,2.06-.55,3.09-.85,3.58-1.03,6.89-2.66,10.09-4.56,3.04-1.8,5.85-3.91,8.55-6.18,1.28-1.08,2.44-2.3,3.65-3.46.13-.13.23-.26.23-.46,0,0,0,0,0,0,.1,0,.2,0,.3,0,.02.38.33.55.55.77,3.64,3.65,7.28,7.29,10.92,10.93.25.25.46.52.69.79Z"/><path class="cls-3" d="M21.25,34c-.03-.27.17-.41.34-.55,2.18-1.94,4.36-3.88,6.54-5.82,1.49-1.33,2.97-2.66,4.47-3.99.97-.86,1.95-1.7,2.93-2.56,1.18,3.76,2.37,7.53,3.55,11.29,1.03,3.26,2.05,6.52,3.08,9.79,0,0,0,0,0,0-3.47-1.36-6.95-2.71-10.41-4.07-3.4-1.34-6.8-2.68-10.2-4.02-.09-.04-.2-.04-.29-.06Z"/><path class="cls-3" d="M6.62,38.85c.14-.2.36-.25.58-.32,4.39-1.46,8.78-2.92,13.17-4.38.19-.06.39-.08.58-.12-2.49,7.48-4.97,14.97-7.46,22.45-.13.4-.27.8-.43,1.26-.29-.25-.3-.59-.4-.87-1.96-5.86-3.92-11.73-5.87-17.6-.05-.14-.11-.28-.16-.42Z"/><path class="cls-2" d="M42.15,42.16c-1.03-3.26-2.05-6.52-3.08-9.79-1.18-3.76-2.37-7.53-3.55-11.29,0-.04,0-.09,0-.13.29-.06.59-.1.88-.19,5.12-1.45,10.24-2.9,15.34-4.38,2.04-.59,4.1-1.08,6.1-1.81-.03.42-.06.83-.09,1.25-.03.13-.06.26-.09.38,0,0,.02.04.02.04-.15.09-.17.23-.19.38-.2,1.31-.56,2.59-.99,3.83-1.08,3.18-2.5,6.21-4.23,9.1-2.06,3.43-4.42,6.64-7.07,9.64-.89,1.01-1.92,1.9-2.76,2.96-.1,0-.2,0-.3,0Z"/><path class="cls-5" d="M42.46,42.16c.85-1.06,1.87-1.94,2.76-2.96,2.65-3,5.01-6.21,7.07-9.64,1.73-2.88,3.15-5.91,4.23-9.1.42-1.25.79-2.52.99-3.83.02-.15.04-.3.19-.38-.25,3.4-.51,6.79-.76,10.19-.27,3.57-.52,7.14-.79,10.72-.28,3.6-.58,7.19-.86,10.79-.16,2.07-.32,4.15-.48,6.22-.01.17.12.42-.18.5-.23-.26-.44-.54-.69-.79-3.64-3.65-7.29-7.29-10.92-10.93-.22-.22-.53-.39-.55-.77Z"/><path class="cls-3" d="M57.85,14.57c-2,.73-4.06,1.22-6.1,1.81-5.11,1.49-10.23,2.93-15.34,4.38-.29.08-.58.12-.88.19,1.55-4.64,3.11-9.28,4.66-13.92.05-.14.11-.28.16-.42,3.28,1.49,6.56,2.99,9.84,4.48,2.55,1.15,5.12,2.29,7.67,3.43v.06Z"/><path class="cls-2" d="M57.87,14.51c-2.56-1.14-5.12-2.28-7.67-3.43-3.28-1.48-6.56-2.98-9.84-4.48,0-.04,0-.07.01-.11,2.62-2.08,5.23-4.15,7.85-6.23,2.91.47,5.46,1.61,7.32,3.99,1.59,2.02,2.25,4.38,2.4,6.9.07,1.12.13,2.25-.07,3.36Z"/><path class="cls-5" d="M57.68,16.2c.03-.13.06-.26.09-.38.02.14.04.28-.09.38Z"/></g></svg>