<?xml version="1.0" encoding="UTF-8"?><svg id="Capa_2" xmlns="http://www.w3.org/2000/svg" viewBox="0 0 57 20.04"><defs><style>.cls-1{fill:#b30006;}.cls-1,.cls-2{stroke-width:0px;}.cls-2{fill:#b30107;}</style></defs><g id="rubyonrails"><path class="cls-2" d="M17.86,0c.09.29.18.58.28.9-.24,0-.47,0-.69,0-.21,0-.41.02-.62.04-.05,0-.08,0-.1-.06-.08-.26-.17-.52-.25-.78.27-.04.53-.06.8-.08.03,0,.08.02.1-.02.16,0,.32,0,.49,0Z"/><path class="cls-1" d="M6.67,20.03c-1.84,0-3.68,0-5.51,0-.18,0-.18,0-.15-.17.14-.94.35-1.87.63-2.79.82-2.73,2-5.28,3.64-7.62,1.66-2.37,3.69-4.36,6.13-5.91,1.18-.75,2.43-1.35,3.78-1.72.72-.2,1.44-.3,2.18-.34,2.26-.13,4.43.31,6.53,1.1,2.37.89,4.53,2.18,6.54,3.7.73.56,1.44,1.15,2.11,1.78.07.07.09.1,0,.16-.11.07-.22.16-.32.25-.06.05-.1.06-.17,0-1.01-.74-2.07-1.42-3.18-2-1.3-.67-2.66-1.19-4.09-1.48-2.4-.48-4.7-.21-6.91.87-2.47,1.21-4.08,3.14-5,5.7-.36,1.01-.58,2.06-.7,3.13-.12,1.1-.14,2.2-.06,3.31.04.64.12,1.29.24,1.92.02.11-.04.1-.1.1-1.86,0-3.71,0-5.57,0Z"/><path class="cls-2" d="M27.58,20.03h-.45c-1.18,0-2.36,0-3.54,0-.08,0-.13-.02-.18-.08-.74-.77-1.48-1.53-2.21-2.29-.03-.03-.05-.05-.08-.08-.03.05-.02.09-.02.13,0,.73,0,1.46,0,2.19,0,.1-.02.13-.12.13-.84,0-1.69,0-2.53,0-.09,0-.12-.02-.12-.11,0-3.35,0-6.69,0-10.04,0-.09.02-.12.11-.11,1.77,0,3.54,0,5.32,0,.4,0,.77.14,1.13.3,1.22.56,1.86,1.51,1.98,2.84.06.7,0,1.38-.26,2.04-.39,1-1.12,1.61-2.18,1.83-.01,0-.03,0-.06.01,1.07,1.08,2.13,2.14,3.2,3.23ZM21.11,13.51c0,.35,0,.71,0,1.06,0,.09.02.12.12.12.64,0,1.27,0,1.91,0,.18,0,.32-.06.44-.18.07-.07.14-.15.19-.25.2-.37.22-.75.14-1.15-.06-.28-.2-.51-.43-.69-.07-.05-.13-.08-.22-.08-.68,0-1.36,0-2.03,0-.08,0-.1.02-.1.1,0,.35,0,.71,0,1.06Z"/><path class="cls-2" d="M36.4,16.13c0,1.26,0,2.52,0,3.78,0,.1-.02.13-.12.13-.82,0-1.65,0-2.47,0-.11,0-.13-.03-.13-.13,0-.52,0-1.03,0-1.55,0-.08-.01-.12-.11-.12-.81,0-1.61,0-2.42,0-.09,0-.11.03-.11.12,0,.52,0,1.04,0,1.56,0,.09-.01.12-.12.12-.86,0-1.72,0-2.58,0-.1,0-.12-.03-.12-.12,0-2.46-.02-4.91.01-7.37.01-1.08.52-1.93,1.5-2.45.38-.2.8-.25,1.22-.25.9,0,1.8-.02,2.7,0,.94.03,1.75.38,2.31,1.17.29.41.42.88.42,1.38,0,1.24,0,2.49,0,3.73h0ZM32.34,15.33c.41,0,.82,0,1.22,0,.07,0,.1-.02.1-.09,0-.78,0-1.57,0-2.35,0-.23-.12-.39-.31-.5-.12-.06-.24-.1-.38-.1-.4,0-.8,0-1.2,0-.12,0-.23.03-.34.07-.27.1-.4.29-.4.58,0,.77,0,1.53,0,2.3,0,.08.02.1.1.1.4,0,.81,0,1.21,0Z"/><path class="cls-2" d="M52.1,20.03c-.79,0-1.59,0-2.38,0-.09,0-.12-.02-.12-.12,0-.79,0-1.59,0-2.38,0-.09.02-.11.11-.11,1.51,0,3.02,0,4.53-.01.1,0,.14-.02.13-.13,0-.34,0-.69,0-1.03,0-.09-.02-.12-.11-.12-.73,0-1.46.03-2.18,0-1.1-.06-1.91-.59-2.4-1.59-.13-.27-.2-.56-.21-.86-.02-.47-.04-.93,0-1.4.11-1.08.71-1.8,1.68-2.23.34-.15.7-.22,1.08-.22,1.42,0,2.84,0,4.25,0,.1,0,.13.02.13.12,0,.79,0,1.59,0,2.38,0,.1-.03.13-.13.13-1.46,0-2.93,0-4.39,0-.11,0-.14.03-.14.14,0,.32,0,.64,0,.96,0,.09.02.12.11.11.77,0,1.53-.02,2.3,0,1.02.04,1.8.5,2.31,1.4.2.35.29.73.3,1.12.01.44.03.89,0,1.33-.1,1.2-.82,2.06-1.97,2.4-.23.07-.47.1-.72.1-.73,0-1.46,0-2.18,0Z"/><path class="cls-2" d="M41.8,14.93c0-1.65,0-3.3,0-4.95,0-.1.02-.14.13-.14.88,0,1.76,0,2.63,0,.11,0,.15.02.15.14,0,2.42,0,4.83,0,7.25q0,.16.17.16c1.21,0,2.43,0,3.64,0,.1,0,.13.03.13.13,0,.8,0,1.59,0,2.39,0,.1-.03.12-.12.12-2.2,0-4.4,0-6.6,0-.1,0-.12-.03-.12-.13,0-1.66,0-3.32,0-4.98Z"/><path class="cls-1" d="M40.6,14.94c0,1.65,0,3.31,0,4.96,0,.1-.02.13-.12.13-.89,0-1.79,0-2.68,0-.11,0-.12-.03-.12-.13,0-3.31,0-6.62,0-9.93,0-.1.02-.13.13-.13.89,0,1.78,0,2.67,0,.1,0,.13.02.13.13,0,1.66,0,3.32,0,4.98Z"/><path class="cls-2" d="M2.35,13.12s-.02.06-.03.08c-.22.51-.44,1.02-.64,1.54-.03.07-.06.08-.13.05-.49-.18-.98-.36-1.47-.54-.07-.03-.1-.04-.06-.12.21-.52.43-1.04.65-1.56.03-.06.05-.08.12-.05.49.18.99.36,1.48.54.03.01.08.01.08.05Z"/><path class="cls-2" d="M14.69,19.58c-.27-.1-.54-.19-.8-.29-.28-.1-.56-.2-.84-.3-.04-.01-.08-.03-.09-.08-.09-.58-.14-1.16-.16-1.76.26.1.52.19.77.28.23.08.47.17.7.25.05.02.08.03.09.09.07.59.19,1.17.32,1.75,0,.01,0,.03,0,.06Z"/><path class="cls-2" d="M14.18,14.42c-.38-.3-.75-.59-1.12-.88-.03-.02-.04-.05-.03-.09.12-.51.23-1.02.42-1.51,0,0,0,0,.01-.01.3.24.59.48.9.7.11.08.12.15.09.27-.13.49-.21.99-.26,1.52Z"/><path class="cls-2" d="M6.71,6.66s-.03.05-.05.06c-.31.33-.6.67-.88,1.02-.04.05-.06.05-.11.01-.33-.29-.67-.57-1-.86-.04-.04-.04-.06,0-.1.31-.34.64-.66.97-.98.04-.03.06-.04.1,0,.31.27.61.54.92.81.01.01.03.02.05.04Z"/><path class="cls-2" d="M16,7.92c.2.31.41.61.61.92.02.04.02.06,0,.09-.29.3-.56.62-.81.98-.15-.22-.29-.44-.43-.65-.07-.11-.14-.22-.22-.33-.02-.03-.04-.06,0-.1.26-.32.54-.63.85-.91,0,0,0,0,.02,0Z"/><path class="cls-2" d="M12.15,2.39s-.04.03-.06.04c-.34.17-.67.37-.99.57-.05.03-.07.02-.1-.02-.19-.3-.39-.6-.59-.89-.03-.05-.02-.07.03-.09.33-.19.66-.37,1-.55.05-.02.07-.02.1.02.19.29.38.59.57.88.01.02.02.03.03.05Z"/><path class="cls-2" d="M23.32,1.35c0-.14.02-.28.02-.41,0-.06.02-.08.08-.06.41.13.83.25,1.22.43.07.03.1.06.09.15-.02.26-.03.53-.05.79,0,.06-.02.07-.08.05-.42-.17-.84-.33-1.27-.47-.05-.02-.06-.04-.05-.08.01-.13.02-.26.03-.39h0Z"/><path class="cls-2" d="M19.05,7.16s-.04-.03-.05-.05c-.1-.29-.19-.58-.29-.87-.02-.05,0-.07.04-.08.37-.16.76-.3,1.15-.42.05-.02.07,0,.08.04.09.28.18.55.28.83.01.04.01.06-.03.08-.39.12-.77.28-1.14.46-.01,0-.02,0-.03.01Z"/><path class="cls-2" d="M23.29,5.88c0-.17.02-.3.02-.43,0-.06.02-.08.08-.08.43.03.87.09,1.29.17.05,0,.06.04.06.08-.02.25-.03.51-.05.76,0,.06-.03.06-.07.05-.43-.09-.86-.14-1.29-.16-.06,0-.07-.03-.06-.08,0-.12.02-.24.02-.32Z"/></g></svg>