<?xml version="1.0" encoding="UTF-8"?><svg id="Capa_2" xmlns="http://www.w3.org/2000/svg" viewBox="0 0 57 56.59"><defs><style>.cls-1{fill:#4b5a70;}.cls-1,.cls-2,.cls-3{stroke-width:0px;}.cls-2{fill:#feffff;}.cls-3{fill:#5b9ab4;}</style></defs><g id="scrum"><path class="cls-3" d="M13.24,34.76c-1.15-.31-2.28-.71-3.36-1.22-1.36-.64-2.63-1.43-3.8-2.36-1.57-1.25-2.92-2.72-4.02-4.41-.39-.6-.67-1.25-.91-1.92-.37-1.07-.61-2.16-.77-3.29-.12-.84-.25-1.68-.31-2.53,0-.06.02-.14-.08-.16v-2.06c.11-.04.07-.14.08-.21.06-.65.12-1.3.22-1.94.17-1.03.38-2.05.74-3.03.36-.98.81-1.92,1.34-2.82,1.01-1.7,2.27-3.2,3.81-4.45,1.76-1.43,3.71-2.55,5.86-3.3,1.18-.41,2.39-.73,3.64-.9.34-.05.68-.1,1.01-.15.23,0,.47,0,.7,0,.13.08.29.06.43.1.15.04.29.07.42.15.14.09.13.18,0,.26-.08.05-.17.07-.26.09-.56.15-1.15.23-1.72.34-1.6.31-3.15.81-4.64,1.49-.02.01-.04.03-.08.05.12,0,.19-.05.27-.08.27-.1.55-.21.82-.31.43-.15.88-.2,1.32-.29,1.21-.27,2.43-.41,3.68-.42,1.15-.02,2.29.06,3.42.23.16.02.32.07.49.1-1.04-.1-2.09-.11-3.13-.06-1.35.06-2.67.28-3.98.62-2.43.63-4.62,1.74-6.58,3.31-1.93,1.55-3.46,3.43-4.55,5.66-.5,1.04-1.02,2.49-1.24,3.71.15-.32.23-.62.34-.91.32-.9.65-1.81,1.05-2.68.35-.75.76-1.47,1.28-2.12.07-.09.14-.19.24-.25l.04.03c0,.13-.1.21-.17.3-.96,1.37-1.7,2.86-2.22,4.45-.36,1.11-.61,2.24-.74,3.39-.06.55-.1,1.11-.1,1.68-.09-.11-.07-.23-.1-.35-.26,1.21.15,4.26.75,5.43-.11-.5-.24-.99-.34-1.48-.1-.52-.18-1.04-.24-1.56-.06-.51-.08-1.01-.09-1.53.09.28.09.57.13.85.08.62.15,1.24.29,1.85-.05-1.56-.17-3.12,0-4.67-.03,1.34.09,2.66.45,3.95-.22-2.27-.11-4.5.58-6.69-.07.33-.14.67-.2,1-.06.35-.13.71-.16,1.06-.03.35-.06.7-.07,1.11.3-2.89,1.25-5.49,2.91-7.82-.29.26-.5.58-.72.89-.23.33-.45.67-.64,1.02-.19.34-.37.69-.55,1.04.48-1.38,1.19-2.65,2.07-3.82.89-1.18,1.93-2.22,3.13-3.09,1.19-.86,2.48-1.53,3.9-1.94-.31.24-.63.47-.94.72-.31.25-.62.5-.85.89.33,0,.57-.17.89-.19-.2.19-.4.3-.59.44-.83.59-1.64,1.21-2.37,1.92-.37.36-.72.74-1,1.18-.21.33-.37.67-.4,1.07-.02.22.02.25.22.16.34-.15.68-.32,1.02-.48.21-.1.43-.19.66-.23.1-.02.22-.11.3.01.06.1-.05.18-.11.25-.17.22-.35.43-.52.64-.53.69-1,1.42-1.41,2.19-.2.37-.42.72-.59,1.1-.06.14-.12.27-.11.43,0,.09-.04.18-.07.26-.25.73-.44,1.47-.58,2.23.1,0,.09-.12.19-.13-.02.22-.06.43-.12.66-.08-.11-.02-.23-.08-.32-.1.29-.22,1.23-.18,1.56.09-.22.07-.44.17-.64-.02.88-.05,1.77.04,2.65-.02-.13-.05-.26-.06-.39-.01-.15-.01-.3-.08-.44-.06-.13-.12-.25-.2-.37-.1.12-.11.23-.06.36.12.28.14.58.17.88.05.55.13,1.09.28,1.63.13.49.17,1,.31,1.49.01.05.02.1.04.14,0,.02.04.06.04.06.24-.08.22.14.26.24.34.76.76,1.49,1.26,2.16.25.34.43.71.61,1.09.02.05.04.09.06.14.03.11.12.16.21.19.14.05.11-.12.19-.15.03-.01.05,0,.06.03.43.55.96.97,1.52,1.37.51.36,1.02.73,1.59,1,.07.04.14.1.23.08.07.1.17.14.29.15.03.05.08.06.12.08.6.25,1.22.46,1.84.65.12.03.16.01.17-.12.09-.86.24-1.7.48-2.53.15-.52.32-1.04.52-1.54.03-.08.05-.16.13-.24.02.09-.03.15-.05.21-.47,1.23-.79,2.49-.98,3.79-.01.09-.02.18-.03.27-.03.2-.03.2.16.25.16.04.33.07.49.1.06.03.12.03.19.02.25.07.5.13.72.27.06.04.13.03.19.02.36-.08.71-.02,1.07.03.42.06.84.12,1.27.14.08,0,.17.01.24-.04.24-.17.52-.22.8-.27,1.97-.33,3.81-.98,5.5-2.05.66-.42,1.28-.88,1.86-1.4.05-.05.11-.14.19-.1.17.08.21-.03.29-.13.16-.19.27-.42.51-.54.01,0,.03-.02.03-.04.24-.42.59-.74.91-1.1.15-.17.26-.37.32-.59.04-.16.11-.3.23-.41.45-.42.74-.95.92-1.53.33-1.04.73-2.06.92-3.14.08-.44.14-.89.23-1.33.07-.37.21-.71.33-1.12.08.74.06,1.42,0,2.1-.15,1.49-.6,2.91-1.05,4.32-.08.25-.16.51-.22.77.11-.05.15-.16.2-.25.43-.77.76-1.58,1.05-2.41.32-.93.52-1.9.75-2.86.07-.28.15-.57.25-.84.05-.13.11-.24.21-.34.1-.09.18-.08.24.04.07.13.09.27.1.41.03.51,0,1.02-.07,1.52-.19,1.39-.62,2.71-1.15,4.01-.07.18-.11.36-.14.6.46-.56.67-1.23,1.13-1.77.06.17,0,.32.04.5.12-.13.18-.25.25-.37.41-.75.68-1.56.89-2.39.23-.92.37-1.87.51-2.81.04-.25.08-.49.13-.73-.03.59-.11,1.16-.2,1.74-.17,1.01-.4,2-.69,2.97-.87,2.9-2.27,5.5-4.32,7.75-1.75,1.92-3.82,3.38-6.22,4.38-1.32.55-2.68.93-4.09,1.12-.89.12-1.78.19-2.67.15-1.42-.06-2.82-.26-4.21-.58-.06-.03-.13-.06-.2-.05ZM6.52,28.99s-.02-.05-.05-.05c-.03-.09-.11-.15-.16-.22-.3-.36-.59-.72-.87-1.1-.04-.05-.12-.13-.08-.17.12-.1.02-.17-.02-.24-.65-1.03-1.19-2.11-1.6-3.25-.47-1.29-.77-2.62-.9-3.99-.04-.44-.02-.88-.11-1.31-.03.91.02,1.82.15,2.72.2,1.4.57,2.74,1.16,4.03.41.91.88,1.78,1.49,2.58.27.36.56.71.92.98.02.02.04.03.06.05.01.03.03.05.07.03,0,.04.01.06.05.05,0,.04.01.05.05.05,0,.04.02.05.05.05,0,.03.02.04.05.05.02.02.03.03.05.05h0s0,0,0,0c-.02-.02-.03-.03-.05-.05-.02-.02-.03-.03-.05-.05-.02-.02-.03-.03-.05-.05,0-.03-.02-.04-.05-.05,0-.03-.02-.05-.05-.05,0-.03-.02-.05-.05-.05ZM5.77,9.88s-.01,0-.02.01c0,0,0,.01,0,.02,0-.01.01-.02.02-.03,0,0,.02,0,.02,0,0,0,0,0,0-.01,0,0-.02.02-.02.02ZM13.25,33.61s-.05-.04-.08-.05c-.28-.12-.55-.23-.83-.35-1.69-.74-3.21-1.74-4.57-2.98-.09-.08-.19-.15-.23-.29-.03-.1-.15-.15-.25-.2-.04-.02-.09,0-.11.03-.04.04-.01.08.01.11.04.05.08.11.13.16.61.69,1.31,1.29,2.08,1.79,1.19.77,2.48,1.38,3.77,1.98.03,0,.07,0,.1,0,.05.09.15.11.23.14.32.12.65.22.98.31.47.12.95.16,1.43.25.22.04.45.01.68-.12-1.08-.14-2.1-.39-3.09-.73-.08-.03-.15-.07-.24-.04ZM10.34,2.83c-1.96.83-3.66,2.04-5.11,3.61-1.44,1.56-2.54,3.33-3.3,5.31.16-.27.3-.55.45-.83.76-1.4,1.68-2.67,2.76-3.84,1-1.09,2.12-2.06,3.35-2.89.06-.04.14-.08.18-.14.22-.31.55-.49.86-.68.28-.17.56-.33.81-.55ZM1.62,12.42s-.03.04-.05.06c-.19.36-.38.72-.57,1.08-.2.38-.33.78-.42,1.2-.09.42-.11.97-.04,1.28.25-1.26.63-2.45,1.08-3.62ZM1.73,12.21v-.02s0,0,0,0v.02ZM1.83,12.04h0s0-.02,0-.02v.02ZM1.88,11.86s0,.01,0,.02c0,0,0,.01,0,.02,0,0,0-.01,0-.02,0,0,0-.01,0-.02ZM31.41,25.05h.01s0,0,0,0h-.02Z"/><path class="cls-1" d="M56.98,32.46c0,.64,0,1.27.02,1.91-.08,4.64-1.43,8.89-3.92,12.79-1.03,1.61-2.24,3.08-3.62,4.4-.4.39-.87.7-1.34,1.01-1.42.92-2.95,1.63-4.55,2.18-.77.26-1.54.56-2.32.79-1.33.39-2.67.66-4.04.84-1.58.2-3.17.24-4.75.19-1.73-.06-3.41-.43-5.05-.97-2.68-.89-5.1-2.25-7.26-4.06-3.36-2.81-5.75-6.3-7.33-10.36-.19-.5-.36-1-.53-1.51-.2-.61-.27-1.24-.24-1.88,0-.15.03-.3.1-.44.07-.16.17-.17.29-.05.11.12.18.26.25.4.19.43.36.86.52,1.3.87,2.29,2.01,4.44,3.45,6.43.05.07.09.16.22.22-.44-.65-.85-1.27-1.2-1.92.04-.01.08-.04.05-.09-.11-.16-.13-.36-.26-.51-.45-1.01-.86-2.05-1.19-3.11-.44-1.41-.76-2.84-.93-4.3-.04-.32-.07-.65-.1-.97.07,0,.14.02.2.05.06.53.18,1.05.3,1.57.63,2.68,1.63,5.21,3.1,7.54,1.88,3,4.3,5.47,7.33,7.32,2.18,1.33,4.53,2.25,7.04,2.71.99.18,1.98.3,2.99.32.16,0,.32,0,.46-.02-.26-.07-.53-.09-.8-.14-1.39-.22-2.79-.4-4.16-.75-1.1-.28-2.16-.65-3.14-1.22-.15-.09-.3-.17-.44-.29.02-.02.04-.04.06-.06.73.34,1.46.66,2.22.92,1.43.51,2.89.87,4.39,1.08,1.32.18,2.66.26,4,.19.85-.05,1.7-.12,2.54-.26-.02.11-.15.1-.23.17.1.02.18.04.26-.01,2.05-.21,3.95-.87,5.76-1.83.06-.03.14-.05.19-.14-.09-.06-.15,0-.22.04-.72.33-1.46.62-2.21.88-.53.18-1.06.34-1.61.47,0-.03,0-.06,0-.1.77-.26,1.54-.51,2.29-.8.09-.04.19-.06.32-.16-.35.09-.65.16-.95.24-1.27.32-2.55.62-3.83.86-.14.03-.28.04-.42.06,0-.03,0-.06,0-.09.78-.17,1.55-.37,2.31-.65.5-.18.99-.38,1.47-.61.08,0,.14-.04.2-.09.02-.01.07,0,.05-.05-.02-.03-.05,0-.07.02-.06,0-.13-.01-.18.05-.54.16-1.09.31-1.64.44-1.24.28-2.49.46-3.75.54-.85.05-1.7.05-2.55-.02,0-.02,0-.04,0-.05.78.01,1.56-.03,2.33-.08.42,0,1.22-.11,1.4-.21-.49.04-.96.08-1.42.11-.71.07-1.42.03-2.13-.02-1.04-.07-2.07-.22-3.09-.46-1.39-.32-2.75-.77-4.04-1.38-.08-.04-.16-.07-.28-.11.1.12.2.16.3.21,1.09.6,2.24,1.08,3.44,1.41.05.01.1.03.14.05,0,.03,0,.06,0,.1-1.34-.25-2.64-.66-3.89-1.2-2.44-1.05-4.59-2.53-6.41-4.47-.91-.97-1.7-2.02-2.38-3.16-.07-.11-.16-.22-.2-.35.03,0,.06-.01.09-.02.41.36.8.75,1.22,1.09.07.05.12.14.22.13,0,0,0,0,0,0-.01.05.02.06.05.08.06.08.13.16.24.17.2.14.4.27.65.33,0-.21-.12-.37-.2-.53-.08-.16-.18-.31-.25-.51.11,0,.15.07.19.12.87.84,1.75,1.65,2.69,2.4.68.54,1.38,1.05,2.17,1.43.59.28,1.2.47,1.86.43.05,0,.1,0,.15-.01.09-.01.13-.06.09-.16-.06-.14-.15-.26-.24-.38-.28-.37-.56-.73-.81-1.11-.14-.21-.27-.42-.37-.65-.03-.07-.06-.14-.07-.21-.03-.13.03-.18.17-.15.08.02.15.06.23.1,1.32.75,2.71,1.33,4.16,1.78.5.15.99.34,1.51.46.16.04.32.06.49.03.23-.05.45.03.67.06.89.11,1.78.15,2.67.13.9-.02,1.8-.09,2.7-.2.02,0,.04-.02.1-.04-.6-.02-1.17.02-1.74-.01,0-.01,0-.02,0-.03.91-.08,1.82-.23,2.72-.42-.21.28-.46.49-.88.44.23-.04.39.06.56.09.1.02.18.02.26-.03.34-.22.72-.35,1.11-.45.42-.11.83-.25,1.23-.42.87-.37,1.73-.73,2.6-1.1.09-.04.18-.09.27-.13-.11-.2-.11-.2.07-.33,1.01-.69,1.92-1.5,2.74-2.41.3-.34.68-.6,1.05-.84.2-.13.36-.28.4-.53.06-.1.1-.2.11-.35-.13.11-.14.21-.19.31-.08.03-.14-.04-.21-.06-.02-.06.02-.09.06-.13.62-.71,1.03-1.53,1.41-2.38.43-.98.82-1.97,1.07-3.02.14-.59.19-1.2.27-1.8.11-.8.13-1.6.11-2.4,0-.21.07-.39.13-.58.02-.08.06-.15.02-.24-.21-.49-.24-1.02-.25-1.55-.02-.52-.07-1.03-.11-1.55-.01-.14-.06-.25-.17-.35-.21-.19-.32-.44-.42-.7-.86-2.36-2.09-4.51-3.78-6.38-.75-.83-1.57-1.57-2.46-2.24-.13-.1-.24-.19-.18-.37.03-.08-.03-.1-.09-.12-.28-.11-.53-.28-.8-.41-.05-.03-.13-.03-.12-.13,0-.07-.08-.07-.13-.08-.43-.16-.82-.37-1.19-.63-.1-.07-.21-.13-.32-.2-.28-.19-.58-.28-.92-.29-.21,0-.4-.07-.56-.19-.64-.47-1.37-.69-2.14-.79-.93-.12-1.86-.22-2.79-.32-.68-.07-1.37-.09-2.05-.06-.74.03-1.47.04-2.2-.07-.13-.02-.26-.02-.41-.02.05-.07.11-.08.18-.09.67-.19,1.35-.32,2.04-.4,1.13-.13,2.25-.12,3.38-.04,1.04.08,2.08.19,3.12.32.28.03.56.08.87.08-.05-.08-.12-.09-.19-.11-1.07-.38-2.18-.63-3.3-.8-1.15-.18-2.31-.23-3.47-.27-.59-.02-1.19-.02-1.77-.12-.17-.03-.34-.07-.49-.17-.19-.12-.19-.26,0-.39.11-.08.24-.12.37-.16.56-.18,1.14-.25,1.72-.29,1.69-.13,3.35.03,5.01.32.3.05.59.12.89.16.2.03.41.01.61.02,0,.04.02.04.04.04,0,0,.01,0,.02-.01l-.07-.02c-.03-.08-.1-.08-.16-.1-.54-.24-1.11-.41-1.67-.6-.26-.09-.52-.18-.78-.33.21-.12.44-.09.69-.19-.85-.35-1.7-.51-2.55-.64,0-.03,0-.06,0-.09,4.52.37,8.66,1.8,12.39,4.38,2.55,1.77,4.64,3.99,6.27,6.64,1.34,2.18,2.25,4.52,2.74,7.03.23,1.16.37,2.32.38,3.51ZM18.9,48.15s.02.04.05.05c0,.12.16.17.16.29-.26-.14-.46-.36-.66-.57-.33-.34-.65-.69-.98-1.04-.04-.04-.08-.09-.16-.11,0,.04.01.06.02.07.02.03.04.06.06.08,1.21,1.73,2.67,3.24,4.38,4.48,2.07,1.5,4.32,2.62,6.78,3.32.46.13.93.28,1.4.37.41.08.82.14,1.23.24.57.14,1.12.34,1.68.5.82.25,1.66.38,2.52.31.38-.03.75-.09,1.11-.23-.85-.02-1.69-.07-2.52-.16-1.43-.16-2.83-.43-4.2-.86-3.81-1.17-7.13-3.16-10.01-5.91-.16-.15-.32-.29-.45-.47-.09-.15-.21-.25-.34-.35,0-.03-.02-.04-.05-.05,0-.03-.02-.04-.05-.05,0-.06-.04-.09-.1-.1,0-.03-.02-.04-.05-.05,0-.03-.02-.04-.05-.05,0-.03-.02-.04-.05-.05,0-.03-.02-.04-.05-.05,0-.04-.01-.08-.05-.1-.02-.02-.03-.03-.05-.05,0-.03-.02-.04-.05-.05-.02-.02-.03-.03-.05-.05,0-.03-.02-.04-.05-.05,0-.03-.02-.04-.05-.05,0-.03-.02-.04-.05-.05,0,0-.02-.02-.03-.02,0,0,.01.02.02.03,0,.03.02.04.05.05.02.02.03.03.05.05,0,.03.02.04.05.05,0,.03.02.04.05.05,0,.03.02.04.05.05,0,.03.02.04.05.05,0,.04.01.08.05.1.02.02.03.03.05.05.02.02.03.03.05.05,0,.03.02.04.05.05,0,.03.02.04.05.05,0,.06.04.09.1.1,0,.03.02.04.05.05ZM18.1,47.25s.02.01.03.02l-.02-.03s-.02-.04-.05-.05c0-.03-.02-.04-.05-.05,0-.03-.02-.04-.05-.05,0-.03-.02-.04-.05-.05,0-.02-.01-.03-.03-.02,0,.01.01.02.02.03,0,.03.02.04.05.05,0,.03.02.04.05.05,0,.03.02.04.05.05.02.02.03.03.05.05ZM49.6,46.89h.02s-.01,0-.01,0c-.03,0-.05.02-.05.05-.09.03-.14.11-.21.17-2.16,2.02-4.61,3.56-7.4,4.56-.78.28-1.57.52-2.37.69-.26.03-.5.1-.74.18.25,0,.49-.04.73-.1.16-.03.33-.06.49-.1,2.73-.58,5.24-1.64,7.52-3.26.65-.46,1.26-.96,1.85-1.49.93-.83,1.68-1.8,2.3-2.88,0,0,0-.02,0-.02-.16.1-.24.27-.35.42-.5.65-1.03,1.28-1.6,1.88-.06.06-.1.15-.2.13-.04-.07.03-.12,0-.18.05.01.05-.02.05-.05ZM17.26,46.69s-.02.05.02.04c0-.01-.02-.02-.03-.03,0,0,0,0-.01,0,0,0,0,0,.01,0ZM17.65,46.75s.03.03.05.05c.01.06.04.09.1.1,0,0,.02.03.03.03.03-.02,0-.03-.01-.04,0-.06-.04-.09-.1-.1-.02-.02-.03-.03-.05-.05,0-.04-.02-.07-.05-.1-.01-.06-.04-.09-.1-.11-.01-.01-.03-.03-.03-.03-.03.02,0,.04,0,.05.01.05.04.09.1.1.01.04.02.07.06.09ZM47.3,50.81s-.08,0-.1.05c0,0-.01,0-.02,0,0,0,0,0,0,.01,0,0,.02-.01.02-.02.04,0,.08,0,.1-.05,0,0,.01,0,.02,0,0,0,0,0,0-.01,0,0-.01.01-.02.02ZM46.95,51.01s.08-.01.1-.05c0,0,.02-.02.02-.02,0,0-.02.01-.03.02-.04,0-.08,0-.1.05,0,0-.02.02-.02.03.02,0,.03,0,.03-.02ZM17.32,46.28s-.02-.07-.06-.1c-.01-.05-.04-.09-.09-.1,0-.03,0-.06-.05-.08-.05-.03-.05-.11-.13-.1.02-.05,0-.08-.04-.11-.02-.04-.04-.07-.08-.09,0,.05.02.1.09.08-.02.05,0,.08.04.11.02.03.04.06.06.1,0,.05.04.08.08.11.01.05.04.09.09.1,0,.04.02.07.06.1.01.05.04.09.1.1.01,0,.03.03.03.03.03-.02,0-.04,0-.05-.01-.05-.04-.09-.09-.1ZM46.7,51.17s.05,0,.07-.01c.03-.01.07-.03.04-.07-.02-.04-.06,0-.08.01-.02.01-.03.03-.05.05-.01.01-.03.03-.03.03.02.03.04,0,.05-.01ZM46.46,51.27c-.35.2-.7.39-1.07.54-.05.02-.08.05-.05.12.4-.18.77-.4,1.13-.62.05.01.08,0,.1-.05,0,0,0-.04-.01-.04-.05-.01-.08,0-.1.05ZM52.31,43.59c-.14.18-.24.36-.14.61.12-.06.19-.17.27-.26.71-.91,1.28-1.9,1.72-2.96.5-1.2.87-2.45,1.21-3.71.18-.66.35-1.32.5-1.99.18-.79.2-1.59.17-2.39,0-.23-.05-.47-.02-.7.06-.44-.1-.8-.32-1.15,0,.07.01.14.02.22.03,1.04.03,2.07-.08,3.1-.14,1.43-.43,2.82-.87,4.19-.55,1.71-1.29,3.33-2.24,4.86-.04.07-.05.18-.17.19-.04-.02,0-.06-.03-.08l-.02.08ZM55.54,29.1c.05.39.1.77.22,1.15-.02-.39-.08-.78-.22-1.15ZM51.8,44.56s-.01-.04-.02-.04c-.04,0-.06.03-.06.06,0,.01.01.04.02.04.04,0,.06-.03.06-.06ZM55.51,28.94s0-.01,0-.02c0,0-.01,0-.01.02,0,0,0,.01,0,.02,0,0,0-.01.01-.02ZM43.99,52.23h0s-.02,0-.02,0h.02ZM27.21,50.72h-.01s.02.02.02.02v-.02ZM49.19,41.5h-.01s0,0,0,0h.01Z"/><path class="cls-1" d="M22.57,14.59c-.26.27-.54.5-.83.73-.23.19-.49.37-.66.61-.49.7-1.15,1.22-1.73,1.84-2.37,2.53-4.14,5.42-5.27,8.7-.02.06-.04.11-.06.17-.03,0-.06,0-.09,0,.31-1.29.75-2.53,1.31-3.72.89-1.92,2.04-3.68,3.47-5.24,1.13-1.23,2.4-2.29,3.84-3.16,0,.02,0,.05,0,.07Z"/><path class="cls-3" d="M35.21,10.9s0,.06,0,.09c-.33-.03-.67-.06-1-.08-.11,0-.22-.03-.34,0,.06.28.23.51.25.8-.11-.19-.24-.36-.32-.56-.09-.22-.24-.28-.46-.28-.76,0-1.52.02-2.28.04-.65.02-1.29.08-1.97.07.51-.1.99-.11,1.48-.15.49-.04.98-.04,1.48-.05.5-.01,1,0,1.54,0-.15-.28-.3-.53-.52-.74-.07-.06-.13-.13-.18-.21-.75-1.22-1.63-2.35-2.63-3.37-1.19-1.2-2.5-2.24-3.96-3.08-.07-.04-.16-.05-.19-.15.09-.03.15.03.21.06,2.37,1.14,4.36,2.74,5.94,4.84.57.75,1.05,1.57,1.44,2.43.08.17.17.23.35.24.39.02.78.03,1.17.09Z"/><path class="cls-1" d="M16.21,31.1c-.06,0-.13.01-.19-.02.04-.51.07-1.02.16-1.52.27-1.53.78-2.98,1.51-4.36.13-.25.24-.51.41-.73.02.02.04.04.06.06-.39.78-.72,1.59-1.01,2.41-.45,1.3-.76,2.62-.92,3.98,0,.06-.02.11-.03.17Z"/><path class="cls-1" d="M16.51,41.53c-.97-1.96-1.63-4.02-1.7-6.27.15.42.26.82.32,1.22.26,1.65.72,3.24,1.36,4.78.03.07.05.14.08.21-.02.02-.04.04-.06.06Z"/><path class="cls-3" d="M27.29,6.82c-.08.03-.12-.03-.18-.07-1.24-.96-2.6-1.69-4.07-2.23-.8-.29-1.62-.51-2.46-.66-.21-.04-.43-.05-.57-.11.53.03,1.12.12,1.71.24.6.12,1.19.28,1.76.47.56.19,1.08.45,1.59.74.73.41,1.41.89,2.04,1.45.06.05.14.1.17.18h0Z"/><path class="cls-3" d="M19.43,2.63c-.48.07-.96.07-1.45.06-1.29-.02-2.56.15-3.82.44-.06.01-.11.03-.23,0,1.83-.55,3.64-.81,5.5-.51Z"/><path class="cls-3" d="M21.81,1.56c1.28-.1,2.31.48,3.3,1.18-1.07-.48-2.17-.87-3.3-1.18Z"/><path class="cls-1" d="M27.14,45.68c-.43-.2-.84-.44-1.3-.56-.07-.02-.11-.07-.15-.13-.14-.24-.29-.47-.43-.7.02-.02.04-.04.07-.07.5.44,1.05.83,1.57,1.24.07.05.15.09.23.13,0,.03,0,.05,0,.08Z"/><path class="cls-1" d="M13.18,30.14c-.12,0-.22-.04-.29-.15.15-.62.38-1.22.61-1.81.02.02.04.04.06.06-.14.63-.28,1.26-.39,1.89Z"/><path class="cls-3" d="M9.78,10.43c.18-.3.42-.56.57-.88.02-.04.05-.06.09-.08.28-.11.56-.22.85-.31-.11.08-.22.17-.33.25-.35.27-.68.57-1,.88-.06.05-.09.15-.2.13,0,0,0,0,0,0Z"/><path class="cls-1" d="M21.85,39.58c.21.39.41.78.63,1.16.09.15-.1.13-.13.26-.22-.49-.39-.95-.51-1.42Z"/><path class="cls-3" d="M21.31,27.6c-.13.54-.29,1.06-.41,1.63-.08-.12-.09-.22-.06-.32.12-.45.26-.89.46-1.31Z"/><path class="cls-3" d="M13.56,28.25s-.04-.04-.06-.06c.17-.51.3-1.03.45-1.55.03,0,.06,0,.09,0-.16.54-.31,1.07-.47,1.61Z"/><path class="cls-3" d="M31.15,52.51s0-.06,0-.1c.49.11.98.21,1.47.32-.5-.04-.99-.09-1.48-.22Z"/><path class="cls-3" d="M38.66,53.32s0,.06,0,.09c-.48.1-.97.14-1.47.12.49-.07.97-.14,1.46-.21Z"/><path class="cls-3" d="M15.17,7.35c-.32.1-.63.2-.95.29-.02,0-.03.01-.05.02-.06.02-.09-.02-.11-.07-.03-.07.02-.09.07-.1.12-.03.24-.05.37-.07.22-.03.44-.06.67-.09,0,0,0,.01,0,.02Z"/><path class="cls-1" d="M36.65,48.08s-.05.06-.09.07c-.11.02-.22.03-.31.08-.26.14-.47,0-.68-.12.36,0,.72-.02,1.09-.03,0,0,0,0,0,0Z"/><path class="cls-1" d="M20.77,36.26c-.12-.11-.15-.27-.24-.4-.03-.05-.03-.11,0-.17.04-.12.07-.24.13-.4.03.35.12.66.11.97h0Z"/><path class="cls-3" d="M40.98,47.2c-.41.22-.85.35-1.3.43.2-.13.43-.16.64-.23.22-.07.44-.14.66-.2Z"/><path class="cls-3" d="M30.23,47.17c.5.16,1.01.29,1.52.46-.53-.07-1.02-.26-1.52-.46Z"/><path class="cls-3" d="M16.51,41.53s.04-.04.06-.06c.18.38.36.76.54,1.14-.02,0-.04.02-.06.03-.19-.36-.4-.72-.54-1.1Z"/><path class="cls-3" d="M36.81,52.72c.46-.04.93-.07,1.42-.11-.18.1-.98.21-1.4.21.02-.04,0-.07-.02-.1Z"/><path class="cls-3" d="M41.27,53.22s0,.06,0,.1c-.33.13-.67.17-1.02.23.33-.13.67-.24,1.02-.33Z"/><path class="cls-3" d="M17.82,7.04c.24-.12.48-.23.71,0h-.71Z"/><path class="cls-3" d="M34.5,52.9s0,.04,0,.05c-.39,0-.77-.06-1.16-.13.39.02.77,0,1.16.07Z"/><path class="cls-3" d="M23.22,8.17c.34.01.6.22.86.41-.29-.14-.57-.27-.86-.41Z"/><path class="cls-3" d="M18.17,24.53s-.04-.04-.06-.06c.13-.24.26-.49.45-.69h0c-.1.27-.24.51-.39.75Z"/><path class="cls-3" d="M39.36,53.89c-.08.05-.16.03-.26.01.08-.07.21-.06.23-.17.18-.06.38-.07.62-.11-.17.09-.31.12-.44.17-.05.02-.14,0-.15.1Z"/><path class="cls-3" d="M4.98,9c.05-.18.22-.24.34-.35-.06.16-.15.29-.3.38-.01-.01-.03-.02-.04-.03Z"/><path class="cls-3" d="M26.19,51.8s-.04.04-.06.06c-.14-.05-.24-.15-.34-.25h0c.15.03.28.09.41.19Z"/><path class="cls-3" d="M24.26,4.24c.14.02.25.1.37.16-.14-.01-.25-.09-.37-.16Z"/><path class="cls-3" d="M20.1,44.79c-.11-.01-.18-.09-.24-.17.01-.05,0-.08-.05-.08,0,0,0,0,0,0,.03-.03,0-.07,0-.11,0,0,0,0,0,0,.12.09.22.21.29.35Z"/><path class="cls-3" d="M27.14,45.68s0-.05,0-.08c.12.05.23.13.37.24-.17-.03-.27-.09-.37-.17Z"/><path class="cls-3" d="M48.96,41.87c.05-.09.07-.2.19-.31,0,.16-.04.26-.11.35-.03-.02-.06-.03-.09-.05Z"/><path class="cls-3" d="M25.33,44.23s-.04.04-.07.07c-.08-.06-.12-.15-.17-.24.11.02.17.09.23.18Z"/><path class="cls-3" d="M16.46,26.34c.03-.07.07-.15.1-.22,0,0,.02,0,.03,0l-.09.23s-.02-.01-.03-.02Z"/><path class="cls-3" d="M24.17,4.19c-.12,0-.18-.05-.25-.09.09-.01.15.03.25.09Z"/><path class="cls-3" d="M25.03,4.61c-.1,0-.18-.06-.26-.12.1,0,.18.06.26.12h0Z"/><path class="cls-3" d="M23.38,3.89c.07-.02.12,0,.16.05-.07.03-.1-.05-.16-.05Z"/><path class="cls-3" d="M18.36,43.32s-.06.01-.09.02c-.04-.03-.07-.07-.06-.14.08.01.12.06.15.13Z"/><path class="cls-3" d="M19.66,44.24c-.08,0-.1-.06-.14-.12.1-.02.11.07.13.12h0Z"/><path class="cls-3" d="M42.44,51.99c.05-.06.12-.04.18-.05,0,0,.01.02.02.02-.06.05-.12.09-.2.09,0-.02,0-.05,0-.07Z"/><path class="cls-3" d="M26.02,3.18s-.03.02-.04.02c-.04,0-.08-.02-.08-.07,0,0,.03-.01.04,0,.03,0,.06.02.08.06Z"/><path class="cls-3" d="M23.8,4.04c-.08.02-.11-.02-.16-.05.07-.03.11.01.16.05Z"/><path class="cls-3" d="M41.08,47.17c.06-.02.1-.04.13-.05,0,.04-.03.04-.05.05-.01,0-.03,0-.08,0Z"/><path class="cls-3" d="M22.57,14.59s0-.05,0-.07c.04-.05.09-.08.15-.07h0c-.03.06-.08.11-.15.14Z"/><path class="cls-3" d="M25.28,4.77c.08,0,.15.04.2.1h0c-.08,0-.15-.04-.2-.1h0Z"/><path class="cls-3" d="M17.2,42.83s.03.02.04.03c.01.02.04.06.01.08-.04.01-.04-.03-.04-.06,0-.01,0-.03,0-.05h0Z"/><path class="cls-3" d="M36.65,48.08s0,0,0,0c.08-.04.17-.04.26-.02,0,.01,0,.02,0,.03-.09.02-.17.02-.26-.01Z"/><path class="cls-3" d="M27.28,6.82s.07.03.08.07c0,0-.01.01-.02.01-.04-.01-.07-.04-.05-.09,0,0,0,0,0,0Z"/><path class="cls-3" d="M19.36,43.88c.07,0,.09.05.1.1h0c-.07,0-.09-.04-.1-.1h0Z"/><path class="cls-3" d="M19.21,43.69c.07,0,.09.04.1.1h0c-.07,0-.09-.04-.1-.1h0Z"/><path class="cls-3" d="M25.73,3.06s-.03-.02-.05-.02c0,0,.01,0,.02,0,.01,0,.02.02.03.03h0Z"/><path class="cls-3" d="M25.73,3.06s.05,0,.07,0c-.03.05-.04,0-.07-.01,0,0,0,0,0,0Z"/><path class="cls-3" d="M19.21,43.68s-.05-.06-.05-.1h0s.06.06.05.1c0,0,0,0,0,0Z"/><path class="cls-3" d="M20.76,36.26s.04.02.04.04c0,0-.01.01-.02.02,0-.02,0-.04-.01-.07,0,0,0,0,0,0Z"/><path class="cls-3" d="M19.36,43.89s-.06-.05-.05-.1h0s.06.05.05.1c0,0,0,0,0,0Z"/><path class="cls-3" d="M16.63,26.01s0-.01,0-.02c0-.02,0-.03.02-.01,0,0,0,.01,0,.02,0,0,0,0-.01.01Z"/><path class="cls-3" d="M30.12,47.13s-.01,0-.02,0c-.02,0-.02-.01,0-.02,0,0,.01,0,.02,0,0,0,0,0,0,.01Z"/><polygon class="cls-3" points="41.37 47.08 41.39 47.07 41.37 47.07 41.37 47.08"/><path class="cls-3" d="M9.73,10.53s0-.08.05-.1c0,0,0,0,0,0,.02.05,0,.08-.05.1h0Z"/><path class="cls-3" d="M19.76,44.39s.05.02.05.05c0,0,0,0,0,0-.03,0-.04-.02-.05-.05h0Z"/><path class="cls-3" d="M19.76,44.39s-.02-.02-.03-.03c.04-.02.02.01.03.03,0,0,0,0,0,0Z"/><path class="cls-3" d="M25.03,4.61s.02.01.02.02c0,0-.01,0-.01,0,0,0,0-.01,0-.02,0,0,0,0,0,0Z"/><path class="cls-3" d="M19.66,44.24s.02.02.03.03c-.04.02-.03,0-.03-.03,0,0,0,0,0,0Z"/><path class="cls-3" d="M17.13,42.72s-.01-.01-.01-.02c0,0,0-.01.01-.02,0,0,.01.01.01.02,0,0,0,.01-.01.02Z"/><path class="cls-3" d="M9.73,10.53s-.03.03-.05.05h0s.02-.05.05-.05c0,0,0,0,0,0Z"/><path class="cls-3" d="M9.68,10.58s-.02.01-.02.02c0,0,0,0,0-.01,0,0,.01,0,.02,0,0,0,0,0,0,0Z"/><path class="cls-3" d="M19.46,43.99s.02.02.03.03c-.04.03-.03,0-.03-.03,0,0,0,0,0,0Z"/><path class="cls-3" d="M25.03,43.94s.01.02.02.02c0,0,0,0,0,0,0,0,0-.01,0-.02h0Z"/><polygon class="cls-3" points="25.03 43.93 25.02 43.93 25.03 43.94 25.03 43.93"/><path class="cls-3" d="M25.48,4.87s.01.01.02.02c0,0,0,0-.01,0,0,0,0-.01,0-.02,0,0,0,0,0,0Z"/><path class="cls-3" d="M19.16,43.58s-.02,0-.04-.01c.03-.04.02,0,.03.02,0,0,0,0,0,0Z"/><path class="cls-3" d="M25.28,4.76s-.02-.01-.02-.02c0,0,.01,0,.01,0,0,0,0,.01,0,.02,0,0,0,0,0,0Z"/><polygon class="cls-3" points="25.78 51.61 25.77 51.6 25.78 51.61 25.78 51.61"/><path class="cls-3" d="M18.56,23.78s0,0,0-.01c0,0,0,0-.01.01,0,0,0,0,0,0Z"/><path class="cls-3" d="M17.2,42.83s-.02,0-.03-.01c0,0,.01-.01.02-.02,0,.01,0,.03.01.04,0,0,0,0,0,0Z"/><polygon class="cls-3" points="25.2 2.79 25.19 2.78 25.21 2.78 25.2 2.79"/><path class="cls-3" d="M22.72,14.45s0-.01,0-.02c0,0,0,.01,0,.02,0,0,0,0,0,0Z"/><path class="cls-3" d="M15.46,43.14c.13.15.16.35.26.51.03.04,0,.07-.05.09-.14-.2-.26-.41-.33-.64,0,0,.02-.02.03-.02.03.02.06.05.09.07Z"/><path class="cls-3" d="M15.1,42.58s.03.04.04.06c0,.02-.02.02-.02,0,0-.02,0-.05,0-.07h0Z"/><path class="cls-3" d="M15.2,42.78s.05.06.05.1h0c-.05-.01-.05-.05-.04-.1h0Z"/><path class="cls-3" d="M15.25,42.88s.05.05.05.1l-.02.02s-.05-.06-.05-.1c0,0,0,0,0,0Z"/><path class="cls-3" d="M15.3,42.98s.05.06.06.09c0,0-.02.01-.03.02-.04-.02-.05-.06-.05-.1,0,0,.02-.02.02-.02Z"/><path class="cls-3" d="M15.1,42.58s-.02-.01-.04-.02c.04-.04.02.01.03.02,0,0,0,0,0,0Z"/><path class="cls-3" d="M15.2,42.78l-.04-.02.02-.02s.01.03.02.04h0Z"/><path class="cls-1" d="M13.25,33.61c0,.06.01.13.02.19-.03,0-.07,0-.1,0,0-.08,0-.16,0-.24.03.02.05.04.08.05Z"/><polygon class="cls-2" points="1.73 12.21 1.73 12.19 1.74 12.19 1.73 12.21"/><polygon class="cls-2" points="1.83 12.04 1.83 12.02 1.83 12.04 1.83 12.04"/><path class="cls-2" d="M1.88,11.86s0,.01,0,.02c0,0,0,.01,0,.02,0,0,0-.01,0-.02,0,0,0-.01,0-.02Z"/><polygon class="cls-2" points="6.82 29.29 6.83 29.3 6.82 29.29 6.82 29.29"/><path class="cls-2" d="M5.77,9.88s-.01.02-.02.03c0,0,0-.01,0-.02,0,0,.01,0,.02-.01h0Z"/><path class="cls-2" d="M5.77,9.88s.02-.02.02-.02c0,0,0,.01,0,.01,0,0-.01,0-.02,0,0,0,0,0,0,0Z"/><polygon class="cls-2" points="31.41 25.05 31.43 25.04 31.43 25.06 31.41 25.05"/><path class="cls-3" d="M55.54,29.1c.15.37.2.75.22,1.15-.13-.37-.17-.76-.22-1.15Z"/><path class="cls-3" d="M39.57,52.37s-.01.05-.02.07c-.24.06-.48.1-.73.1.24-.08.49-.15.74-.18Z"/><path class="cls-3" d="M19.3,48.55c-.07.02-.14,0-.19-.05,0-.13-.15-.17-.16-.29,0,0,0,0,0,0,.13.1.26.21.34.35Z"/><path class="cls-3" d="M46.46,51.27s.06-.06.1-.05c0,0,.02.03.01.04-.02.04-.06.06-.1.05,0,0-.02-.01-.02-.02,0,0,0-.01,0-.02Z"/><path class="cls-3" d="M46.68,51.15s.03-.04.05-.05c.03-.02.06-.05.08-.01.02.04-.01.06-.04.07-.02,0-.05,0-.07.01,0,0-.01-.01-.02-.02Z"/><path class="cls-3" d="M51.8,44.56s-.02.06-.06.06c0,0-.02-.03-.02-.04,0-.03.02-.06.06-.06,0,0,.01.03.02.04Z"/><path class="cls-2" d="M16.96,45.78c-.07.01-.08-.03-.09-.08.05.01.07.05.08.09h0Z"/><path class="cls-2" d="M16.99,45.9c.08-.01.09.07.13.1-.02,0-.04,0-.07,0-.02-.03-.04-.06-.06-.1,0,0,0,0,0,0Z"/><path class="cls-3" d="M17.23,46.21c-.05-.01-.08-.05-.09-.1,0,0,.02-.02.03-.02.05.02.08.05.09.1,0,0-.02.02-.03.02Z"/><path class="cls-3" d="M17.39,46.41c-.06-.01-.09-.05-.1-.1,0,0,.02-.01.03-.02.05.02.08.05.09.1,0,0-.02.01-.02.02Z"/><path class="cls-3" d="M17.52,46.53c.06.01.09.05.1.11,0,0-.02.01-.02.02-.05-.01-.08-.05-.1-.1,0,0,.02-.01.02-.02Z"/><path class="cls-3" d="M17.8,46.9c-.06-.01-.09-.05-.1-.1l.02-.02c.06.01.09.05.1.1l-.02.02Z"/><path class="cls-3" d="M18.76,47.99c.06,0,.09.04.1.1h-.01c-.06,0-.09-.03-.1-.09,0,0,0,0,0,0Z"/><path class="cls-2" d="M52.31,43.59l.02-.08s0,.06.03.08c0,0,0,0,0,0-.02,0-.04,0-.05,0h0Z"/><path class="cls-3" d="M17.06,45.99s.04,0,.07,0c.04.01.04.05.05.08-.01,0-.02.02-.03.02-.04-.03-.08-.06-.08-.11Z"/><path class="cls-3" d="M55.51,28.94s0,.01-.01.02c0,0,0-.01,0-.02,0,0,0-.01.01-.02,0,0,0,.01,0,.02Z"/><path class="cls-2" d="M39.67,12.84l.07.02s-.01.01-.02.01c-.02,0-.05,0-.04-.04,0,0,0,0,0,0Z"/><polygon class="cls-2" points="43.99 52.23 43.97 52.23 43.99 52.24 43.99 52.23"/><path class="cls-3" d="M42.62,51.95s.06-.05.07-.02c.02.04-.03.03-.05.05,0,0-.01-.02-.02-.02Z"/><path class="cls-3" d="M47.05,50.96s-.06.05-.1.05h0s.06-.06.1-.06h0Z"/><path class="cls-3" d="M47.2,50.86s.06-.05.1-.05h0s-.06.05-.1.05h0Z"/><path class="cls-3" d="M18.56,47.8s-.05-.06-.05-.1c0,0,0,0,0,0,.04.02.05.06.05.1h0Z"/><path class="cls-3" d="M17.65,46.75s-.05-.06-.06-.09c0,0,.02-.01.02-.02.04.02.05.06.05.1,0,0-.02.02-.02.02Z"/><path class="cls-3" d="M17.26,46.18s.05.06.06.1c0,0-.02.01-.03.02-.04-.02-.05-.06-.06-.1.01,0,.02-.01.03-.02Z"/><path class="cls-2" d="M16.96,45.79s.05.07.04.11c0,0,0,0,0,0-.03-.03-.05-.07-.04-.11,0,0,0,0,0,0Z"/><path class="cls-2" d="M19.81,44.54c.06,0,.07.03.05.08-.03-.02-.07-.03-.05-.08Z"/><path class="cls-3" d="M51.71,44.69s0,.02,0,.02c0,0-.01,0-.02-.01,0,0,0,0,.01-.01Z"/><path class="cls-3" d="M17.41,46.38s.04.03,0,.05c0,0-.02-.02-.03-.03,0,0,.02-.01.02-.02Z"/><path class="cls-3" d="M17.49,46.55s-.04-.03,0-.05c0,0,.02.02.03.03,0,0-.02.01-.02.02Z"/><path class="cls-2" d="M17.26,46.69s0,0-.01,0c0,0,0,0,.01,0h0Z"/><path class="cls-2" d="M17.26,46.69s.02.02.03.03c-.05.01-.02-.02-.02-.04,0,0,0,0,0,0Z"/><path class="cls-3" d="M17.7,46.8s-.03-.03-.05-.05c0,0,.02-.02.02-.02.02.02.03.03.05.05,0,0-.02.02-.02.02Z"/><polygon class="cls-2" points="49.61 46.9 49.62 46.88 49.6 46.89 49.61 46.9"/><path class="cls-3" d="M17.81,46.89s.04.02.01.04c0,0-.02-.02-.03-.03,0,0,.02-.02.02-.02Z"/><path class="cls-2" d="M49.6,46.89s0,.06-.05.05c0,0,0,0,0,0,0-.03.02-.05.05-.05,0,0,0,0,0,0Z"/><path class="cls-3" d="M17.9,47.05s-.01-.02-.02-.03c.02,0,.03,0,.03.02,0,0,0,.01,0,.01Z"/><path class="cls-3" d="M17.95,47.1s-.04-.02-.05-.05c0,0,0,0,0-.01.03,0,.04.03.05.05,0,0,0,0,0,0Z"/><path class="cls-3" d="M18,47.15s-.04-.02-.05-.05c0,0,0,0,0,0,.03,0,.04.02.05.05,0,0,0,0,0,0Z"/><path class="cls-3" d="M18.05,47.2s-.04-.02-.05-.05c0,0,0,0,0,0,.03,0,.04.02.05.05h0Z"/><path class="cls-3" d="M18.06,47.19s.04.02.05.05h0s-.03-.03-.05-.04c0,0,0,0,0,0Z"/><path class="cls-3" d="M18.11,47.24l.02.03s-.02-.01-.03-.02c0,0,0,0,0,0Z"/><path class="cls-3" d="M18.2,47.4s-.01-.02-.02-.03c0,0,.02.02.03.02h0Z"/><path class="cls-3" d="M18.21,47.39s.04.02.05.05c0,0,0,0,0,0-.03,0-.04-.02-.05-.05,0,0,0,0,0,0Z"/><path class="cls-3" d="M18.3,47.5s-.03-.03-.05-.05c0,0,0,0,0,0,.03,0,.04.02.05.05h0Z"/><path class="cls-3" d="M18.31,47.49s.04.02.05.05c0,0,0,0,0,0-.03,0-.04-.02-.05-.05,0,0,0,0,0,0Z"/><path class="cls-3" d="M18.4,47.6s-.04-.02-.05-.05c0,0,0,0,0,0,.02.02.03.03.05.05,0,0,0,0,0,0Z"/><path class="cls-3" d="M18.45,47.65s-.04-.02-.05-.05c0,0,0,0,0,0,.03,0,.04.02.05.05h0Z"/><path class="cls-3" d="M18.46,47.65s.03.03.05.05c0,0,0,0,0,0-.03,0-.04-.02-.05-.05,0,0,0,0,0,0Z"/><path class="cls-3" d="M18.56,47.79s.04.02.05.05h0s-.03-.03-.05-.05c0,0,0,0,0,0Z"/><path class="cls-3" d="M18.61,47.85s.04.02.05.05c0,0,0,0,0,0-.02-.02-.03-.03-.05-.05h0Z"/><path class="cls-3" d="M18.71,47.95s-.04-.02-.05-.05c0,0,0,0,0,0,.03,0,.04.02.05.05h0Z"/><path class="cls-3" d="M18.71,47.95s.04.02.05.05c0,0,0,0,0,0-.03,0-.04-.02-.05-.05,0,0,0,0,0,0Z"/><path class="cls-3" d="M18.86,48.09s.04.02.05.05h0s-.04-.02-.05-.04c0,0,.01-.01.01-.01Z"/><path class="cls-3" d="M18.91,48.15s.04.02.05.05c0,0,0,0,0,0-.03,0-.04-.02-.05-.05,0,0,0,0,0,0Z"/><polygon class="cls-2" points="27.21 50.72 27.22 50.74 27.2 50.73 27.21 50.72"/><path class="cls-3" d="M47.3,50.81s.01-.01.02-.02c0,0,0,0,0,.01,0,0-.01,0-.02,0,0,0,0,0,0,0Z"/><path class="cls-3" d="M47.2,50.86s-.02.01-.02.02c0,0,0-.01,0-.01,0,0,.01,0,.02,0h0Z"/><path class="cls-3" d="M47.04,50.96s.02-.01.03-.02c0,0-.02.02-.02.02,0,0,0,0,0,0Z"/><path class="cls-3" d="M46.95,51.01s-.02.03-.03.02c0,0,.02-.02.02-.03,0,0,0,0,0,0Z"/><path class="cls-3" d="M46.7,51.17s-.03.04-.05.01c0,0,.02-.02.03-.03,0,0,.01.01.02.02Z"/><polygon class="cls-3" points="49.19 41.5 49.17 41.51 49.17 41.5 49.19 41.5"/><path class="cls-3" d="M5.27,27.28s.05.03.02.06c0,0-.03-.02-.05-.03,0,0,.02-.02.03-.03Z"/><path class="cls-3" d="M5.25,27.3s-.04-.03-.02-.05c.02-.02.04,0,.05.02,0,0-.02.02-.03.03Z"/><path class="cls-1" d="M52.31,43.58s.04,0,.05,0c.02.04.02.09-.03.08-.04,0-.02-.05-.02-.08Z"/><path class="cls-3" d="M49.34,47.34c.02-.06.05-.11.1-.14.02.02.04.04.05.06-.02.06-.07.09-.12.12-.01-.01-.02-.02-.04-.03Z"/><path class="cls-3" d="M49.38,47.37s-.04.06-.08.07h0c-.02-.05,0-.08.04-.11.01.01.02.02.04.03Z"/><path class="cls-1" d="M49.5,47.25s-.04-.04-.05-.06c.02,0,.03-.03.06,0,.03.03,0,.04,0,.06Z"/><path class="cls-3" d="M49.3,47.45s-.02.04-.05.05h0s0-.05.04-.05c0,0,0,0,0,0Z"/><path class="cls-3" d="M49.25,47.5s0,.02-.01.02c0,0-.02,0-.02,0,0-.02,0-.02.03-.02,0,0,0,0,0,0Z"/></g></svg>