<?xml version="1.0" encoding="UTF-8"?><svg id="Capa_2" xmlns="http://www.w3.org/2000/svg" viewBox="0 0 57 53.96"><defs><style>.cls-1{fill:#86b14c;}.cls-1,.cls-2{stroke-width:0px;}.cls-2{fill:#fafcf8;}</style></defs><g id="springboot"><path class="cls-1" d="M28.49,0c3.61,0,7.22,0,10.84,0,2.64,0,4.62,1.21,5.87,3.47,3.62,6.53,7.18,13.1,10.76,19.65,1.4,2.56,1.38,5.11-.03,7.68-3.57,6.51-7.1,13.05-10.69,19.55-1.27,2.3-3.28,3.58-5.95,3.59-7.18.03-14.37.04-21.55,0-2.59-.02-4.6-1.21-5.86-3.5-3.68-6.69-7.34-13.39-10.98-20.1-1.16-2.14-1.22-4.4-.08-6.53,3.7-6.92,7.45-13.82,11.28-20.66C13.23,1.12,15.15.03,17.53.01c3.65-.03,7.31,0,10.96,0ZM12.8,25.63c.04,3.71.96,6.76,2.74,9.56,3.92,6.2,11.73,8.85,18.26,6.18,7.89-3.22,12.03-11.98,9.58-20.23-1-3.36-2.8-6.18-5.53-8.37-1.02-.82-2.06-.73-2.81.1-.76.84-.74,2.09.05,2.97.22.25.49.46.74.68,5.78,5.07,5.52,14.57-.59,19.21-3.54,2.7-7.49,3.19-11.51,1.28-4.41-2.11-6.61-5.86-6.84-10.66-.18-3.74,1.12-7,3.91-9.6.25-.23.5-.45.74-.68.98-.96,1.08-2.22.26-3.14-.82-.92-1.89-.96-3.01,0-3.98,3.45-5.9,7.84-5.98,12.69ZM30.69,18.61c0-2.35.01-4.7,0-7.04-.01-1.56-.96-2.65-2.25-2.65-1.29,0-2.28,1.11-2.28,2.65-.02,4.7-.02,9.39,0,14.09,0,1.56.97,2.62,2.28,2.63,1.31,0,2.25-1.06,2.26-2.63.02-2.35,0-4.7,0-7.04Z"/><path class="cls-2" d="M12.8,25.63c.08-4.84,2-9.24,5.98-12.69,1.12-.97,2.18-.93,3.01,0,.82.92.72,2.18-.26,3.14-.24.24-.5.45-.74.68-2.79,2.6-4.09,5.86-3.91,9.6.23,4.8,2.43,8.55,6.84,10.66,4.02,1.92,7.96,1.42,11.51-1.28,6.11-4.65,6.36-14.14.59-19.21-.25-.22-.52-.44-.74-.68-.8-.88-.81-2.13-.05-2.97.75-.84,1.8-.92,2.81-.1,2.73,2.19,4.53,5.02,5.53,8.37,2.45,8.24-1.69,17-9.58,20.23-6.52,2.67-14.33.02-18.26-6.18-1.77-2.8-2.7-5.85-2.74-9.56Z"/><path class="cls-2" d="M30.69,18.61c0,2.35.01,4.7,0,7.04-.01,1.57-.95,2.63-2.26,2.63-1.31,0-2.28-1.07-2.28-2.63-.02-4.7-.02-9.39,0-14.09,0-1.54,1-2.64,2.28-2.65,1.29,0,2.24,1.09,2.25,2.65.02,2.35,0,4.7,0,7.04Z"/></g></svg>