<?xml version="1.0" encoding="UTF-8"?><svg id="Capa_2" xmlns="http://www.w3.org/2000/svg" viewBox="0 0 56 33.64"><defs><style>.cls-1{fill:#6da6b1;stroke-width:0px;}</style></defs><g id="tailwindCss"><path class="cls-1" d="M26.97,0c.75,0,1.5,0,2.25,0,2.35.14,4.58.69,6.64,1.85.94.53,1.83,1.14,2.64,1.86.1.09.21.16.32.24.09.08.18.16.26.24,1.06,1.04,2.12,2.08,3.19,3.12.11.11.23.22.34.32,1.65,1.62,3.62,2.46,5.95,2.42,2.04-.03,3.78-.8,5.32-2.1.65-.55,1.24-1.14,1.75-1.81.09-.12.17-.27.38-.35-.16.74-.39,1.43-.65,2.11-.7,1.88-1.67,3.61-3.07,5.07-1.89,1.97-4.23,3.08-6.89,3.55-2.09.37-4.2.38-6.3.08-2.79-.4-5.24-1.57-7.4-3.39-1.34-1.13-2.53-2.42-3.78-3.64-1.05-1.02-2.16-1.97-3.59-2.41-3.02-.95-5.74-.36-8.15,1.68-.64.54-1.22,1.12-1.73,1.78-.11.14-.24.27-.44.5.26-1.13.6-2.11,1.01-3.06,1.02-2.35,2.45-4.37,4.61-5.82,1.54-1.04,3.25-1.65,5.07-1.98.75-.14,1.5-.22,2.26-.27Z"/><path class="cls-1" d="M29.05,33.64c-1.03-.03-2.05,0-3.08-.08-3.15-.28-5.9-1.47-8.31-3.5-1.35-1.14-2.54-2.44-3.81-3.66-1.09-1.06-2.25-2.02-3.75-2.45-2.98-.86-5.64-.24-7.99,1.76-.66.57-1.25,1.2-1.8,1.87-.07.09-.1.3-.31.19.38-1.34.83-2.64,1.47-3.88,1.78-3.47,4.52-5.75,8.35-6.58,4.16-.9,8.22-.67,12.04,1.42,1.72.94,3.14,2.25,4.51,3.63.9.9,1.77,1.82,2.74,2.64,2.77,2.35,6.68,2.57,9.71.57,1.2-.8,2.2-1.81,3.08-2.95.12.13.02.23,0,.33-.03.12-.06.23-.09.35-.71,2.45-1.79,4.71-3.59,6.57-1.9,1.96-4.24,3.06-6.9,3.52-.75.13-1.51.21-2.26.26Z"/></g></svg>