<?xml version="1.0" encoding="UTF-8"?><svg id="Capa_1" xmlns="http://www.w3.org/2000/svg" viewBox="0 0 700 420"><defs><style>.cls-1{fill:#44a8b3;stroke-width:0px;}</style></defs><path class="cls-1" d="M175,140C198.33,46.67,256.67,0,350,0c140,0,157.5,105,227.5,122.5,46.67,11.67,87.5-5.83,122.5-52.5-23.33,93.33-81.67,140-175,140-140,0-157.5-105-227.5-122.5-46.67-11.67-87.5,5.83-122.5,52.5ZM0,350c23.33-93.33,81.67-140,175-140,140,0,157.5,105,227.5,122.5,46.67,11.67,87.5-5.83,122.5-52.5-23.33,93.33-81.67,140-175,140-140,0-157.5-105-227.5-122.5-46.67-11.67-87.5,5.83-122.5,52.5Z"/></svg>