<?xml version="1.0" encoding="UTF-8"?><svg id="Capa_2" xmlns="http://www.w3.org/2000/svg" viewBox="0 0 58 58"><defs><style>.cls-1{fill:#eccdb2;}.cls-1,.cls-2,.cls-3,.cls-4{stroke-width:0px;}.cls-2{fill:#80b8de;}.cls-3{fill:#e5e5e6;}.cls-4{fill:#2b2829;}</style></defs><g id="teamWork"><path class="cls-4" d="M0,31.49v-1.02c.3-.6.78-1.04,1.24-1.51,1.48-1.48,2.96-2.96,4.44-4.45.51-.51,1.03-1.01,1.69-1.31,1.54-.71,2.75-1.83,3.9-3.04.21-.22.4-.38.2-.75-.17-.31-.04-.67.22-.93.22-.23.46-.45.67-.69.08-.09.25-.15.14-.32-.47-.72-.03-1.18.45-1.65,2.3-2.29,4.59-4.59,6.89-6.88.21-.21.33-.34.12-.69-.67-1.11-.09-2.4,1.19-2.74.21-.06.34-.1.39-.37.16-.79.65-1.3,1.46-1.46.21-.04.3-.1.35-.34.17-.81.67-1.33,1.51-1.49.12-.02.26,0,.28-.2.1-.89.68-1.37,1.47-1.66h.79c.43.19.8.44,1.14.77,1.66,1.67,3.33,3.34,5,5.01.48.48.95.99,1.23,1.61.71,1.57,1.87,2.77,3.08,3.93.22.21.38.34.71.17.33-.18.67,0,.93.23.24.21.45.45.69.67.09.08.15.23.32.11.66-.44,1.11-.08,1.57.38,2.31,2.33,4.64,4.65,6.96,6.97.15.15.23.4.58.19,1.26-.77,2.49-.26,2.89,1.17.05.18.07.29.3.33.86.15,1.36.68,1.53,1.52.03.17.07.25.27.29.86.14,1.36.67,1.54,1.51.03.16.04.27.25.3.87.12,1.31.71,1.58,1.47v.79c-.22.46-.52.85-.88,1.22-1.62,1.6-3.23,3.22-4.84,4.84-.51.51-1.04,1.01-1.69,1.31-1.51.68-2.68,1.79-3.81,2.96-.27.28-.52.49-.27.93.16.29-.02.59-.23.83-.21.24-.45.46-.67.69-.1.1-.25.18-.13.37.4.62.06,1.05-.36,1.48-2.34,2.33-4.66,4.67-7,7.01-.22.22-.32.35-.11.69.66,1.08.09,2.41-1.14,2.7-.29.07-.39.19-.45.46-.18.74-.64,1.23-1.41,1.37-.24.05-.34.14-.39.38-.18.79-.65,1.3-1.47,1.45-.15.03-.28.04-.31.25-.13.86-.72,1.32-1.45,1.65h-.91c-.35-.24-.73-.43-1.04-.74-1.67-1.69-3.36-3.36-5.04-5.04-.48-.48-.95-.99-1.23-1.61-.69-1.51-1.77-2.7-2.96-3.81-.27-.25-.46-.49-.89-.27-.31.15-.63-.05-.87-.27-.22-.2-.43-.43-.65-.63-.1-.1-.18-.25-.37-.13-.61.38-1.06.08-1.49-.36-2.33-2.34-4.66-4.67-7-7-.18-.18-.29-.37-.64-.16-1.21.71-2.45.18-2.81-1.18-.07-.25-.16-.32-.39-.37-.77-.17-1.26-.66-1.43-1.43-.05-.24-.12-.33-.37-.39-.8-.17-1.28-.67-1.46-1.47-.03-.11.03-.28-.17-.3-.84-.09-1.3-.66-1.67-1.35ZM39.41,30.09c-.09-.1-.21-.22-.33-.34-2.33-2.34-4.67-4.67-7.01-7.01-.26-.26-.6-.54-.48-.9.2-.62-.21-.89-.55-1.21-.36-.35-.66-.75-.43-1.24.22-.47-.14-.58-.35-.76-.28-.25-.39.12-.52.24-2.34,2.33-4.68,4.66-7.01,7-.36.36-.74.67-1.29.44-.19-.08-.28.04-.38.14-.23.23-.45.46-.68.68-.28.27-.65.41-.99.24-.44-.22-.59.1-.77.32-.22.28.13.38.26.51,2.33,2.34,4.66,4.68,7,7.01.25.25.62.54.49.9-.23.65.21.92.55,1.26.34.33.66.72.43,1.19-.22.44.07.59.3.77.32.25.42-.14.55-.28,2.33-2.31,4.65-4.63,6.98-6.96.28-.28.6-.66,1.01-.5.54.21.75-.13,1.03-.41.42-.43.84-.83,1.52-.49.15.08.68-.4.66-.61ZM56.87,27.04c0-.27-.1-.48-.33-.61-.29-.17-.59-.14-.84.08-.48.43-.93.88-1.39,1.32-.28.27-.58.39-.89.08-.3-.31-.18-.62.09-.9.4-.4.79-.82,1.2-1.2.35-.32.53-.67.18-1.07-.34-.38-.73-.27-1.11,0-.49.36-.88.83-1.31,1.25-.28.27-.57.41-.88.1-.3-.3-.18-.62.08-.9.41-.42.81-.85,1.24-1.24.32-.29.48-.6.2-.98-.29-.38-.66-.36-1.05-.12-.54.33-.93.83-1.37,1.26-.29.28-.59.48-.92.14-.32-.33-.17-.65.12-.94.44-.44.88-.89,1.33-1.31.29-.27.29-.57.09-.86-.22-.32-.55-.41-.89-.21-.18.1-.32.26-.47.4-1.2,1.17-2.41,2.34-3.61,3.51-.28.27-.58.4-.89.09-.29-.3-.19-.62.08-.9.29-.3.58-.59.87-.89.34-.36.34-.77.03-1.12-.32-.35-.76-.39-1.12-.07-1.48,1.32-2.81,2.75-3.06,4.86-.21,1.78-.82,3.37-2.29,4.51-.35.28-.04.41.11.56,1.72,1.73,3.45,3.44,5.15,5.18.28.29.43.27.7-.01,1.2-1.29,2.47-2.49,4.11-3.22.47-.2.87-.54,1.23-.9,1.76-1.76,3.52-3.52,5.29-5.28.18-.18.33-.36.33-.63ZM21.42,6.58s-.09.02-.18.05c-.51.23-.55.78-.09,1.26,1.23,1.25,2.46,2.5,3.69,3.75.26.26.45.56.13.88-.32.31-.65.21-.94-.08-.3-.29-.58-.6-.9-.86-.41-.33-.86-.29-1.17.04-.31.33-.31.79.04,1.17.34.38.72.72,1.07,1.09,1,1.03,2.2,1.69,3.64,1.88,1.79.23,3.39.85,4.59,2.27.27.31.4.09.56-.08,1.72-1.72,3.43-3.46,5.16-5.16.31-.31.27-.46-.02-.74-1.13-1.11-2.31-2.17-2.96-3.67-.2-.46-.46-.92-.82-1.28-1.88-1.91-3.77-3.81-5.66-5.71-.32-.32-.71-.4-1.06-.07-.35.33-.3.72.02,1.05.41.44.84.86,1.26,1.3.26.27.42.56.11.89-.31.32-.62.18-.89-.08-.42-.41-.84-.82-1.25-1.23-.34-.34-.72-.46-1.09-.1-.37.37-.25.75.09,1.1.41.42.82.84,1.23,1.25.26.27.43.57.12.89-.32.32-.65.2-.94-.09-.42-.41-.84-.82-1.24-1.24-.3-.32-.63-.44-.99-.14-.37.3-.36.66-.08,1.05.36.49.83.88,1.24,1.31.27.28.5.58.16.92-.36.36-.68.15-.97-.14-.41-.41-.83-.82-1.24-1.24-.15-.15-.31-.27-.64-.23ZM1.11,30.93c0,.3.1.52.34.65.3.16.59.13.84-.1.47-.44.92-.89,1.38-1.34.28-.27.59-.39.89-.09.31.31.17.62-.1.89-.41.42-.82.84-1.24,1.24-.34.34-.45.7-.13,1.1.29.35.69.33,1.14-.08.44-.41.86-.84,1.29-1.27.28-.28.6-.35.89-.05.28.29.15.59-.1.85-.41.42-.82.84-1.24,1.24-.35.33-.48.69-.17,1.09.26.35.72.33,1.15-.05.41-.36.79-.76,1.18-1.15.29-.29.6-.53.97-.17.37.37.12.67-.17.96-.43.45-.92.84-1.28,1.36-.22.32-.2.65.08.92.29.28.61.27.92.04.12-.09.22-.2.33-.31,1.17-1.18,2.34-2.36,3.51-3.54.28-.28.6-.46.93-.12.32.33.16.65-.12.94-.26.27-.53.53-.77.83-.36.45-.35.89,0,1.21.33.31.83.29,1.22-.07.29-.27.56-.56.85-.83,1.13-1.07,1.89-2.34,2.08-3.9.22-1.78.86-3.35,2.27-4.53.3-.25.07-.37-.08-.52-1.73-1.74-3.48-3.46-5.19-5.22-.29-.3-.44-.25-.69.02-1.21,1.28-2.48,2.48-4.13,3.21-.47.21-.87.54-1.23.9-1.76,1.76-3.52,3.52-5.29,5.28-.18.18-.33.37-.32.6ZM35.34,52.44c.02-.17-.13-.32-.28-.47-.4-.4-.79-.81-1.2-1.21-.29-.29-.53-.6-.16-.96.36-.35.68-.14.98.15.44.44.88.89,1.34,1.3.3.27.64.23.92-.04.28-.27.31-.6.08-.92-.11-.15-.25-.28-.39-.41-1.18-1.17-2.35-2.34-3.53-3.52-.27-.27-.42-.58-.12-.89.32-.33.65-.19.94.09.27.26.53.54.82.78.41.34.91.33,1.22.01.33-.33.31-.81-.06-1.21-.32-.35-.67-.67-1-1-1.02-1.04-2.23-1.72-3.69-1.91-1.77-.23-3.36-.83-4.55-2.24-.26-.31-.39-.1-.56.07-1.71,1.7-3.42,3.41-5.16,5.09-.34.33-.28.49.02.78.94.92,1.99,1.78,2.57,2.99.63,1.3,1.51,2.37,2.53,3.37,1.44,1.39,2.83,2.83,4.25,4.23.42.41.84.44,1.14.09.34-.4.22-.76-.13-1.09-.4-.4-.8-.8-1.2-1.2-.29-.29-.42-.62-.09-.93.32-.31.62-.13.89.14.43.42.85.86,1.3,1.26.35.32.76.38,1.09-.02.32-.38.17-.72-.16-1.04-.45-.43-.89-.87-1.32-1.32-.2-.21-.24-.47-.05-.72.15-.2.35-.28.6-.22.19.05.32.2.45.33.45.43.84.92,1.36,1.28.26.18.53.2.8.03.23-.14.33-.35.33-.68ZM10.23,36.06c-.15.19-.24.37-.39.48-.42.31-.37.54,0,.89,2.24,2.21,4.47,4.44,6.68,6.68.27.27.41.31.7.02,2.53-2.56,5.08-5.11,7.64-7.64.29-.29.26-.43-.02-.7-2-1.98-3.97-3.97-5.97-5.95-.35-.35-.73-1.07-1.08-.92-.49.21-.53.97-.68,1.53-.01.05,0,.11-.01.17-.17.85-.31,1.7-.62,2.51-.53,1.38-1.54,2.39-2.56,3.4-1.29,1.28-2.61,1.16-3.7-.47ZM28.78,40.17c.53.43,1.15.65,1.78.7,2.66.22,4.64,1.61,6.32,3.56.78.91.69,2.27-.3,2.93-.57.38-.32.54,0,.82.21.18.33.5.7.12,2.29-2.32,4.61-4.63,6.92-6.93.2-.2.24-.3,0-.53-2.57-2.55-5.14-5.11-7.69-7.68-.34-.34-.49-.26-.78.03-2.19,2.21-4.4,4.41-6.6,6.61-.12.12-.23.24-.36.38ZM21.84,25.17c.1-.09.19-.16.26-.24.24-.24.48-.48.72-.72,2-2,4-4.01,6.01-6,.38-.38.32-.53-.13-.71-.44-.18-.88-.31-1.35-.4-.85-.15-1.7-.31-2.51-.62-1.39-.53-2.39-1.54-3.4-2.57-1.23-1.25-1.18-2.4.2-3.47.22-.17.16-.24.02-.38-.14-.13-.28-.26-.4-.4-.18-.23-.33-.22-.53,0-2.32,2.33-4.64,4.65-6.97,6.97-.19.18-.21.3,0,.5,2.61,2.59,5.21,5.2,7.81,7.8.08.08.16.15.26.24ZM40.17,29.23c.44-.64.61-1.29.73-1.96.14-.81.29-1.63.59-2.4.62-1.63,1.85-2.79,3.11-3.89.8-.69,2.1-.52,2.71.36.4.57.6.38.91,0,.17-.2.4-.32.09-.63-2.33-2.31-4.65-4.64-6.97-6.96-.19-.19-.3-.18-.49.01-2.58,2.6-5.17,5.19-7.76,7.77-.26.25-.24.39,0,.62.38.34.73.72,1.09,1.08,1.99,1.99,3.97,3.98,5.99,5.99ZM39.59,13.34c-.23-.22-.43-.44-.67-.62-.19-.15-.25.09-.34.18-2.19,2.18-4.37,4.37-6.57,6.54-.31.3-.14.43.07.6.2.16.3.55.69.16,2.17-2.2,4.36-4.38,6.54-6.56.08-.08.15-.16.28-.3ZM13.41,18.45c-.29.14-.48.38-.67.61-.17.2.1.29.2.39,2.15,2.17,4.32,4.32,6.46,6.5.25.25.41.29.6,0,.15-.22.6-.31.18-.73-2.19-2.16-4.35-4.34-6.52-6.51-.08-.08-.16-.15-.25-.24ZM45.48,38.84c-.21-.13-.32-.17-.4-.25-2.17-2.17-4.34-4.34-6.49-6.54-.29-.3-.44-.22-.65.03-.19.22-.53.35-.13.74,2.18,2.14,4.32,4.31,6.49,6.46.1.1.19.35.39.21.25-.17.46-.38.79-.66ZM18.39,44.65c.24.22.45.45.7.6.2.12.27-.14.38-.25,2.17-2.16,4.32-4.33,6.5-6.47.29-.29.17-.43-.05-.61-.2-.16-.31-.55-.7-.16-2.17,2.2-4.37,4.38-6.56,6.57-.08.08-.14.16-.26.31Z"/><path class="cls-1" d="M56.87,27.04c0,.27-.15.46-.33.63-1.76,1.76-3.52,3.52-5.29,5.28-.36.36-.76.69-1.23.9-1.65.72-2.92,1.93-4.11,3.22-.26.28-.41.3-.7.01-1.71-1.74-3.44-3.45-5.15-5.18-.15-.15-.46-.28-.11-.56,1.46-1.15,2.08-2.73,2.29-4.51.25-2.11,1.57-3.53,3.06-4.86.36-.32.8-.28,1.12.07.32.35.32.75-.03,1.12-.28.3-.58.6-.87.89-.27.28-.37.6-.08.9.3.31.61.18.89-.09,1.2-1.17,2.4-2.34,3.61-3.51.15-.14.3-.3.47-.4.35-.2.67-.11.89.21.2.29.2.59-.09.86-.45.43-.89.88-1.33,1.31-.29.28-.44.61-.12.94.33.34.63.14.92-.14.45-.43.83-.93,1.37-1.26.39-.24.76-.27,1.05.12.28.37.12.68-.2.98-.43.39-.83.82-1.24,1.24-.27.27-.38.59-.08.9.31.32.6.17.88-.1.43-.42.82-.89,1.31-1.25.38-.28.77-.39,1.11,0,.35.4.17.75-.18,1.07-.42.38-.81.79-1.2,1.2-.27.27-.39.59-.09.9.31.31.61.18.89-.08.46-.44.92-.9,1.39-1.32.25-.22.55-.25.84-.08.23.13.34.34.33.61Z"/><path class="cls-1" d="M21.42,6.58c.33-.04.49.08.64.23.41.42.83.83,1.24,1.24.29.29.61.51.97.14.34-.35.11-.64-.16-.92-.41-.44-.89-.82-1.24-1.31-.28-.38-.29-.74.08-1.05.36-.29.69-.18.99.14.4.42.83.83,1.24,1.24.29.29.62.41.94.09.31-.31.14-.62-.12-.89-.41-.42-.82-.84-1.23-1.25-.33-.34-.45-.73-.09-1.1.37-.37.75-.25,1.09.1.41.42.83.83,1.25,1.23.27.26.58.4.89.08.31-.32.15-.62-.11-.89-.42-.43-.85-.86-1.26-1.3-.32-.34-.37-.72-.02-1.05.35-.33.74-.25,1.06.07,1.89,1.9,3.78,3.8,5.66,5.71.36.37.62.82.82,1.28.65,1.5,1.83,2.57,2.96,3.67.29.28.33.43.02.74-1.74,1.71-3.45,3.44-5.16,5.16-.17.17-.3.39-.56.08-1.2-1.42-2.8-2.04-4.59-2.27-1.43-.19-2.63-.85-3.64-1.88-.36-.36-.73-.71-1.07-1.09-.35-.38-.34-.84-.04-1.17.31-.33.76-.37,1.17-.04.32.26.6.57.9.86.3.29.63.39.94.08.32-.32.13-.62-.13-.88-1.23-1.25-2.47-2.49-3.69-3.75-.46-.47-.42-1.02.09-1.26.08-.04.18-.05.18-.05Z"/><path class="cls-1" d="M1.11,30.93c-.01-.23.14-.42.32-.6,1.76-1.76,3.52-3.52,5.29-5.28.36-.36.76-.69,1.23-.9,1.65-.73,2.92-1.93,4.13-3.21.26-.27.4-.32.69-.02,1.72,1.75,3.46,3.48,5.19,5.22.15.15.38.27.08.52-1.4,1.18-2.05,2.75-2.27,4.53-.2,1.56-.95,2.83-2.08,3.9-.29.27-.55.57-.85.83-.4.36-.89.38-1.22.07-.35-.32-.36-.77,0-1.21.24-.29.51-.56.77-.83.28-.29.45-.61.12-.94-.33-.34-.65-.16-.93.12-1.17,1.18-2.34,2.36-3.51,3.54-.11.11-.21.22-.33.31-.31.23-.64.24-.92-.04-.28-.28-.3-.6-.08-.92.36-.52.85-.91,1.28-1.36.28-.29.54-.6.17-.96-.37-.36-.68-.12-.97.17-.39.39-.77.78-1.18,1.15-.43.38-.89.39-1.15.05-.31-.41-.17-.77.17-1.09.42-.4.83-.82,1.24-1.24.25-.25.38-.55.1-.85-.29-.3-.61-.23-.89.05-.43.42-.85.86-1.29,1.27-.44.41-.85.43-1.14.08-.32-.4-.21-.76.13-1.1.42-.41.83-.83,1.24-1.24.26-.27.41-.58.1-.89-.3-.3-.62-.18-.89.09-.46.45-.91.91-1.38,1.34-.24.23-.54.26-.84.1-.24-.13-.34-.34-.34-.65Z"/><path class="cls-1" d="M35.34,52.44c0,.33-.1.54-.33.68-.27.17-.54.15-.8-.03-.51-.36-.91-.85-1.36-1.28-.14-.13-.26-.27-.45-.33-.25-.07-.45.02-.6.22-.18.25-.15.51.05.72.43.45.87.9,1.32,1.32.33.32.48.66.16,1.04-.33.4-.74.33-1.09.02-.45-.4-.87-.83-1.3-1.26-.27-.26-.57-.44-.89-.14-.33.32-.2.64.09.93.4.4.8.8,1.2,1.2.34.33.46.7.13,1.09-.29.35-.72.32-1.14-.09-1.42-1.41-2.82-2.84-4.25-4.23-1.03-.99-1.9-2.07-2.53-3.37-.58-1.21-1.63-2.06-2.57-2.99-.3-.29-.36-.45-.02-.78,1.74-1.68,3.44-3.39,5.16-5.09.17-.17.31-.38.56-.07,1.19,1.41,2.78,2.01,4.55,2.24,1.46.19,2.67.87,3.69,1.91.33.34.68.66,1,1,.37.41.39.88.06,1.21-.31.32-.82.33-1.22-.01-.29-.24-.55-.52-.82-.78-.29-.28-.62-.42-.94-.09-.31.31-.15.62.12.89,1.18,1.17,2.35,2.34,3.53,3.52.13.13.28.26.39.41.23.32.2.65-.08.92-.28.27-.62.3-.92.04-.46-.42-.9-.86-1.34-1.3-.29-.29-.62-.5-.98-.15-.37.36-.12.68.16.96.4.4.8.8,1.2,1.21.15.15.3.3.28.47Z"/><path class="cls-2" d="M10.23,36.06c1.08,1.63,2.4,1.75,3.7.47,1.02-1.01,2.03-2.02,2.56-3.4.31-.81.44-1.67.62-2.51.01-.05,0-.12.01-.17.15-.56.19-1.33.68-1.53.35-.15.73.57,1.08.92,2,1.98,3.97,3.97,5.97,5.95.27.27.31.41.02.7-2.56,2.53-5.11,5.08-7.64,7.64-.29.3-.44.25-.7-.02-2.22-2.24-4.44-4.47-6.68-6.68-.36-.36-.42-.58,0-.89.15-.11.24-.29.39-.48Z"/><path class="cls-2" d="M28.78,40.17c.13-.14.24-.26.36-.38,2.2-2.2,4.41-4.4,6.6-6.61.29-.29.44-.37.78-.03,2.54,2.58,5.11,5.14,7.69,7.68.23.23.19.33,0,.53-2.31,2.3-4.63,4.6-6.92,6.93-.37.37-.49.06-.7-.12-.32-.27-.57-.44,0-.82.99-.66,1.09-2.02.3-2.93-1.68-1.95-3.66-3.34-6.32-3.56-.63-.05-1.24-.27-1.78-.7Z"/><path class="cls-2" d="M21.84,25.17c-.1-.09-.18-.16-.26-.24-2.6-2.6-5.2-5.21-7.81-7.8-.2-.2-.18-.31,0-.5,2.33-2.32,4.65-4.64,6.97-6.97.21-.21.35-.22.53,0,.12.15.26.27.4.4.14.14.2.21-.02.38-1.38,1.06-1.43,2.22-.2,3.47,1.01,1.02,2.02,2.04,3.4,2.57.81.31,1.66.47,2.51.62.46.08.91.21,1.35.4.45.19.51.34.13.71-2.02,1.98-4.01,4-6.01,6-.24.24-.48.48-.72.72-.08.08-.16.15-.26.24Z"/><path class="cls-2" d="M40.17,29.23c-2.02-2.02-4-4.01-5.99-5.99-.36-.36-.71-.74-1.09-1.08-.25-.23-.27-.37,0-.62,2.6-2.58,5.18-5.17,7.76-7.77.19-.19.3-.21.49-.01,2.32,2.33,4.63,4.65,6.97,6.96.31.3.08.43-.09.63-.32.37-.52.56-.91,0-.62-.88-1.92-1.06-2.71-.36-1.27,1.1-2.49,2.26-3.11,3.89-.3.78-.45,1.59-.59,2.4-.12.67-.29,1.32-.73,1.96Z"/><path class="cls-3" d="M39.59,13.34c-.13.13-.2.22-.28.3-2.18,2.18-4.37,4.36-6.54,6.56-.39.39-.49,0-.69-.16-.21-.17-.37-.3-.07-.6,2.2-2.17,4.38-4.36,6.57-6.54.09-.09.15-.32.34-.18.23.18.44.4.67.62Z"/><path class="cls-3" d="M13.41,18.45c.09.08.17.16.25.24,2.17,2.17,4.33,4.36,6.52,6.51.42.42-.03.51-.18.73-.2.29-.35.26-.6,0-2.14-2.17-4.31-4.33-6.46-6.5-.1-.1-.37-.18-.2-.39.19-.22.37-.47.67-.61Z"/><path class="cls-3" d="M45.48,38.84c-.33.28-.55.49-.79.66-.21.14-.29-.11-.39-.21-2.16-2.15-4.31-4.32-6.49-6.46-.4-.39-.05-.52.13-.74.21-.25.36-.33.65-.03,2.15,2.19,4.32,4.36,6.49,6.54.08.08.19.12.4.25Z"/><path class="cls-3" d="M18.39,44.65c.12-.14.19-.23.26-.31,2.19-2.19,4.38-4.37,6.56-6.57.38-.39.5,0,.7.16.22.18.35.32.05.61-2.18,2.15-4.33,4.32-6.5,6.47-.1.1-.18.37-.38.25-.25-.16-.45-.39-.7-.6Z"/></g></svg>