<?xml version="1.0" encoding="UTF-8"?><svg id="Capa_2" xmlns="http://www.w3.org/2000/svg" viewBox="0 0 57 57"><defs><style>.cls-1{fill:#c04a20;stroke-width:0px;}</style></defs><g id="ubuntu"><path class="cls-1" d="M28.52,0c15.77.01,28.48,12.73,28.48,28.49,0,15.83-12.75,28.54-28.58,28.51C12.67,56.97-.03,44.21,0,28.45.03,12.67,12.75-.01,28.52,0ZM44.96,30.21c.1-.42-.09-.69-.74-.68-1.29.02-2.58,0-3.87-.06-.59-.03-.78.17-.88.76-1.16,7.06-8.38,11.17-14.96,8.62-.56-.22-.83-.1-1.09.42-.57,1.11-1.16,2.22-1.83,3.27-.41.64-.29.9.38,1.18,3.28,1.36,6.64,1.65,10.11.95.55-.11.83-.36,1.03-.92.99-2.86,3.4-4.22,6.35-3.62.43.09.72.1,1.04-.24,2.5-2.69,3.98-5.85,4.46-9.67ZM42.17,27.5s0-.02,0-.03c.59,0,1.18-.05,1.76.01.96.11,1.11-.32.99-1.16-.52-3.46-1.93-6.49-4.3-9.07-.31-.33-.58-.49-1.1-.39-3.08.61-5.39-.71-6.43-3.66-.16-.46-.36-.73-.84-.83-3.59-.76-7.06-.47-10.44.99-.55.24-.59.46-.3.94.62,1.04,1.25,2.08,1.77,3.17.36.76.72.85,1.52.57,6.06-2.14,12.52,1.18,14.38,7.3.22.72,0,1.77.69,2.1.64.31,1.53.06,2.31.06ZM12.56,32.96c.02.08.04.15.06.23,1.11,3.59,3.17,6.5,6.2,8.74.5.36.66.1.88-.28.61-1.05,1.18-2.12,1.88-3.11.5-.71.34-1.06-.28-1.6-4.57-3.95-5.19-10.61-1.56-15.31.69-.89,2.26-1.35,2.08-2.54-.17-1.11-1.15-2.1-1.77-3.14-.1-.17-.22-.33-.3-.51-.28-.68-.64-.58-1.14-.19-2.81,2.16-4.78,4.91-5.89,8.28-.18.54-.13.89.27,1.35,1.99,2.24,1.97,5.03,0,7.32-.2.23-.51.39-.42.78ZM9.09,32.29c2.11,0,3.83-1.69,3.84-3.77.01-2.08-1.7-3.8-3.8-3.82-2.1-.01-3.82,1.68-3.84,3.77-.01,2.09,1.7,3.81,3.79,3.82ZM42,45.34c.04-2.07-1.66-3.82-3.76-3.87-2.05-.05-3.83,1.69-3.86,3.77-.03,2.08,1.66,3.83,3.76,3.87,2.07.04,3.82-1.67,3.86-3.77ZM42,11.73c.02-2.08-1.71-3.83-3.79-3.84-2.08,0-3.83,1.72-3.83,3.8,0,2.1,1.7,3.83,3.78,3.84,2.08.02,3.81-1.71,3.83-3.8Z"/></g></svg>