<?xml version="1.0" encoding="UTF-8"?><svg id="Capa_2" xmlns="http://www.w3.org/2000/svg" viewBox="0 0 58 50.5"><defs><style>.cls-1{fill:#495565;}.cls-1,.cls-2{stroke-width:0px;}.cls-2{fill:#79b888;}</style></defs><g id="vueJs"><path class="cls-2" d="M46.62.02h1.29s5.91,0,8.87,0c1.46,0,1.47,0,.77,1.22-6.2,10.7-12.41,21.4-18.61,32.11-3.12,5.39-6.23,10.78-9.35,16.17-.16.28-.33.55-.59.98-.93-1.59-1.8-3.06-2.66-4.54C17.73,31.09,9.11,16.23.5,1.36Q-.27.03,1.34.02c2.91,0,10.04,0,10.04,0h10.94c-.03.07-.05-.08-.04,0h-10.77c5.91,10.21,11.66,20.21,17.49,30.28C34.84,20.21,40.6,10.19,46.49.02h-10.77c0-.08,0,.07-.04,0h10.94Z"/><path class="cls-1" d="M22.27.02c2.21,3.79,4.43,7.64,6.72,11.57,2.28-3.9,4.5-7.76,6.73-11.57,3.51,0,10.77,0,10.77,0,0,0-11.65,20.19-17.49,30.28C23.17,20.23,11.51.02,11.51.02c0,0,7.24,0,10.77,0Z"/></g></svg>