<?xml version="1.0" encoding="UTF-8"?><svg id="Capa_2" xmlns="http://www.w3.org/2000/svg" viewBox="0 0 57 57"><defs><style>.cls-1{fill:#4477d0;}.cls-1,.cls-2{stroke-width:0px;}.cls-2{fill:#4476cf;}</style></defs><g id="windows"><path class="cls-2" d="M.03,26.23C.03,17.91.05,9.58,0,1.26,0,.21.21,0,1.26,0c8.32.05,16.65.03,24.97.03.48.82.75,1.66.74,2.66-.04,7.2-.01,14.4-.02,21.6,0,2.23-.43,2.65-2.66,2.65-7.2,0-14.4-.01-21.6.02-.99,0-1.84-.25-2.66-.73Z"/><path class="cls-2" d="M.03,56.22v-25.44c.82-.49,1.67-.74,2.66-.73,7.2.04,14.41.01,21.61.02,2.23,0,2.65.42,2.65,2.67,0,7.2.01,14.41,0,21.61,0,2.23-.42,2.63-2.67,2.63-7.2,0-14.41-.01-21.61.02-.99,0-1.85-.18-2.63-.78Z"/><path class="cls-1" d="M30.78.03h25.44c.6.78.78,1.64.78,2.63-.03,7.2-.01,14.4-.02,21.6,0,2.19-.43,2.62-2.68,2.63-7.14.01-14.27.01-21.41,0-2.33,0-2.76-.43-2.76-2.77-.01-7.14.01-14.27-.02-21.41,0-.99.29-1.83.69-2.68Z"/><path class="cls-2" d="M56.98,43.46c0,3.73-.04,7.46.02,11.19.03,1.71-.71,2.37-2.39,2.36-7.39-.04-14.79-.04-22.18,0-1.71,0-2.38-.72-2.37-2.39.03-7.39.03-14.79,0-22.18,0-1.7.73-2.37,2.41-2.37,7.39.03,14.79.03,22.18,0,1.7,0,2.38.72,2.36,2.4-.06,3.66-.02,7.33-.02,11Z"/></g></svg>