<?xml version="1.0" encoding="UTF-8"?><svg id="Capa_2" xmlns="http://www.w3.org/2000/svg" viewBox="0 0 54.1 52.75"><defs><style>.cls-1{fill:#3e0639;}.cls-1,.cls-2{stroke-width:0px;}.cls-2{fill:#df61f1;}</style></defs><g id="xd"><path class="cls-1" d="M0,43.91c0-11.71,0-23.41,0-35.12.08-.21.07-.43.1-.65.3-1.86,1.05-3.51,2.31-4.91C3.86,1.61,5.65.58,7.78.18,8.15.11,8.52.06,8.88,0c12.11,0,24.22,0,36.34,0,.02.04.06.04.1.04,1.32.1,2.57.45,3.72,1.09,2.65,1.47,4.28,3.68,4.89,6.65.07.35.12.7.17,1.05v35.16c-.07.03-.04.09-.05.14-.08.7-.21,1.39-.45,2.06-1.26,3.47-3.7,5.61-7.31,6.38-.35.08-.72.11-1.08.17H8.79s-.06-.04-.09-.04c-1.43-.13-2.78-.55-4-1.3-2.44-1.49-3.96-3.63-4.52-6.44C.1,44.61.06,44.26,0,43.91ZM46.1,23.18c0-3.76,0-7.51,0-11.27,0-.31-.03-.34-.33-.34-1.41,0-2.82,0-4.24,0q-.46,0-.46.45c0,2.22,0,4.45,0,6.67,0,.21-.06.26-.26.24-1.43-.13-2.86-.04-4.25.33-3.31.88-5.6,2.91-6.74,6.17-.57,1.63-.58,3.31-.31,4.99.54,3.42,2.49,5.65,5.78,6.71,1.52.49,3.07.58,4.65.48,2.04-.13,4.01-.53,5.91-1.3.33-.14.39-.2.36-.56-.14-1.63-.13-3.27-.12-4.91,0-2.55,0-5.11,0-7.66ZM18.53,22.4c-.03-.06-.07-.13-.1-.19-.56-1.12-1.16-2.22-1.79-3.31-.93-1.6-1.84-3.22-2.59-4.92-.15-.34-.37-.46-.73-.46-1.64,0-3.28,0-4.91,0-.12,0-.26-.03-.33.09-.08.13.04.23.1.32,2.22,3.76,4.43,7.51,6.66,11.26.09.15.09.25,0,.4-2.05,3.35-4.1,6.71-6.15,10.07-.24.4-.49.79-.73,1.19-.15.26-.1.35.19.35,1.54,0,3.08,0,4.62,0,.13,0,.26-.01.38-.01.18,0,.3-.09.39-.25,1.54-2.79,3.04-5.6,4.5-8.44.03-.06.04-.13.12-.16.06.03.08.09.11.14,1.51,2.71,3.02,5.43,4.4,8.22.16.32.38.45.72.45,1.72,0,3.44,0,5.16,0,.13,0,.32.07.39-.06.08-.15-.06-.3-.14-.43-2.33-3.83-4.66-7.65-7-11.48-.07-.12-.1-.2-.02-.34,2.21-3.64,4.42-7.29,6.63-10.94.05-.09.15-.16.08-.28-.07-.12-.19-.09-.3-.09-1.57,0-3.14,0-4.71-.01-.17,0-.3.05-.37.22-.07.16-.15.31-.23.46-1.4,2.69-2.93,5.33-4.24,8.07-.02.04-.03.09-.09.1Z"/><path class="cls-2" d="M46.1,23.18c0,2.55,0,5.11,0,7.66,0,1.64-.01,3.27.12,4.91.03.35-.02.42-.36.56-1.89.78-3.87,1.17-5.91,1.3-1.58.1-3.14,0-4.65-.48-3.29-1.06-5.24-3.29-5.78-6.71-.27-1.68-.26-3.36.31-4.99,1.14-3.26,3.42-5.29,6.74-6.17,1.39-.37,2.81-.46,4.25-.33.2.02.26-.03.26-.24,0-2.22,0-4.45,0-6.67q0-.45.46-.45c1.41,0,2.82,0,4.24,0,.3,0,.33.03.33.34,0,3.76,0,7.51,0,11.27ZM41.07,28.18c0-1.59,0-3.17,0-4.76,0-.16-.04-.22-.2-.25-1.16-.21-2.29-.14-3.38.33-1.25.54-2.22,1.39-2.68,2.71-.41,1.19-.41,2.42-.12,3.64.26,1.07.75,2,1.68,2.63,1.4.94,2.96.9,4.54.7.16-.02.15-.13.15-.25,0-1.59,0-3.17,0-4.76Z"/><path class="cls-2" d="M18.53,22.4c.07-.02.08-.06.09-.1,1.31-2.74,2.84-5.37,4.24-8.07.08-.15.17-.3.23-.46.07-.17.2-.22.37-.22,1.57,0,3.14,0,4.71.01.11,0,.23-.03.3.09.07.12-.02.2-.08.28-2.21,3.65-4.42,7.29-6.63,10.94-.08.14-.05.22.02.34,2.33,3.82,4.67,7.65,7,11.48.08.13.22.28.14.43-.07.14-.26.06-.39.06-1.72,0-3.44,0-5.16,0-.34,0-.56-.13-.72-.45-1.38-2.79-2.88-5.5-4.4-8.22-.03-.05-.05-.11-.11-.14-.08.03-.09.1-.12.16-1.46,2.84-2.96,5.65-4.5,8.44-.09.16-.2.25-.39.25-.13,0-.26.01-.38.01-1.54,0-3.08,0-4.62,0-.29,0-.34-.09-.19-.35.24-.4.48-.8.73-1.19,2.05-3.36,4.09-6.72,6.15-10.07.09-.15.09-.25,0-.4-2.22-3.75-4.44-7.51-6.66-11.26-.06-.1-.17-.19-.1-.32.07-.12.21-.09.33-.09,1.64,0,3.28,0,4.91,0,.36,0,.58.12.73.46.75,1.7,1.66,3.31,2.59,4.92.63,1.09,1.23,2.18,1.79,3.31.03.07.07.13.1.19Z"/><path class="cls-1" d="M41.07,28.18c0,1.59,0,3.17,0,4.76,0,.11.02.23-.15.25-1.58.2-3.14.23-4.54-.7-.93-.63-1.43-1.56-1.68-2.63-.29-1.22-.3-2.45.12-3.64.46-1.31,1.43-2.16,2.68-2.71,1.08-.47,2.22-.54,3.38-.33.16.03.2.09.2.25,0,1.59,0,3.17,0,4.76Z"/></g></svg>